<svg width="128" height="120" viewBox="0 0 128 120" fill="none" xmlns="http://www.w3.org/2000/svg">
<g clip-path="url(#clip0_563_3804)">
<path d="M117.121 8.58765H18.8202C12.9134 8.58765 8.125 13.3488 8.125 19.2219V109.366C8.125 115.239 12.9134 120 18.8202 120H117.121C123.027 120 127.816 115.239 127.816 109.366V19.2219C127.816 13.3488 123.027 8.58765 117.121 8.58765Z" fill="#B2FFC4"/>
<path d="M110.419 1.41479H12.118C6.21123 1.41479 1.42285 6.17593 1.42285 12.0491V102.193C1.42285 108.066 6.21123 112.827 12.118 112.827H110.419C116.325 112.827 121.114 108.066 121.114 102.193V12.0491C121.114 6.17593 116.325 1.41479 110.419 1.41479Z" fill="#D9E6FF"/>
<path d="M110.414 114.242H12.118C5.43532 114.242 0 108.838 0 102.193V12.049C0 5.40439 5.43532 0 12.118 0H110.414C117.097 0 122.532 5.40439 122.532 12.049V102.193C122.532 108.838 117.097 114.242 110.414 114.242ZM12.118 2.82952C7.00521 2.82952 2.84572 6.96534 2.84572 12.049V102.193C2.84572 107.277 7.00521 111.412 12.118 111.412H110.414C115.527 111.412 119.686 107.277 119.686 102.193V12.049C119.686 6.96534 115.527 2.82952 110.414 2.82952H12.118Z" fill="#1433E1"/>
<path d="M122.01 20.9761H1.42285V23.8056H122.01V20.9761Z" fill="#1433E1"/>
<path d="M21.3386 32.2046H13.9255C12.8777 32.2046 12.0283 33.0491 12.0283 34.0909V41.4618C12.0283 42.5036 12.8777 43.3482 13.9255 43.3482H21.3386C22.3863 43.3482 23.2357 42.5036 23.2357 41.4618V34.0909C23.2357 33.0491 22.3863 32.2046 21.3386 32.2046Z" fill="#57FF81"/>
<path d="M35.8845 32.2046H28.4714C27.4236 32.2046 26.5742 33.0491 26.5742 34.0909V41.4618C26.5742 42.5036 27.4236 43.3482 28.4714 43.3482H35.8845C36.9322 43.3482 37.7816 42.5036 37.7816 41.4618V34.0909C37.7816 33.0491 36.9322 32.2046 35.8845 32.2046Z" fill="#57FF81"/>
<path d="M50.4313 32.2046H43.0182C41.9705 32.2046 41.1211 33.0491 41.1211 34.0909V41.4618C41.1211 42.5036 41.9705 43.3482 43.0182 43.3482H50.4313C51.4791 43.3482 52.3285 42.5036 52.3285 41.4618V34.0909C52.3285 33.0491 51.4791 32.2046 50.4313 32.2046Z" fill="#57FF81"/>
<path d="M64.9733 32.2046H57.5602C56.5125 32.2046 55.6631 33.0491 55.6631 34.0909V41.4618C55.6631 42.5036 56.5125 43.3482 57.5602 43.3482H64.9733C66.0211 43.3482 66.8705 42.5036 66.8705 41.4618V34.0909C66.8705 33.0491 66.0211 32.2046 64.9733 32.2046Z" fill="#57FF81"/>
<path d="M79.5192 32.2046H72.1061C71.0584 32.2046 70.209 33.0491 70.209 34.0909V41.4618C70.209 42.5036 71.0584 43.3482 72.1061 43.3482H79.5192C80.567 43.3482 81.4164 42.5036 81.4164 41.4618V34.0909C81.4164 33.0491 80.567 32.2046 79.5192 32.2046Z" fill="#57FF81"/>
<path d="M21.3386 46.5078H13.9255C12.8777 46.5078 12.0283 47.3524 12.0283 48.3942V55.7651C12.0283 56.8069 12.8777 57.6514 13.9255 57.6514H21.3386C22.3863 57.6514 23.2357 56.8069 23.2357 55.7651V48.3942C23.2357 47.3524 22.3863 46.5078 21.3386 46.5078Z" fill="#57FF81"/>
<path d="M35.8845 46.5078H28.4714C27.4236 46.5078 26.5742 47.3524 26.5742 48.3942V55.7651C26.5742 56.8069 27.4236 57.6514 28.4714 57.6514H35.8845C36.9322 57.6514 37.7816 56.8069 37.7816 55.7651V48.3942C37.7816 47.3524 36.9322 46.5078 35.8845 46.5078Z" fill="#57FF81"/>
<path d="M50.4313 46.5078H43.0182C41.9705 46.5078 41.1211 47.3524 41.1211 48.3942V55.7651C41.1211 56.8069 41.9705 57.6514 43.0182 57.6514H50.4313C51.4791 57.6514 52.3285 56.8069 52.3285 55.7651V48.3942C52.3285 47.3524 51.4791 46.5078 50.4313 46.5078Z" fill="#57FF81"/>
<path d="M64.9733 46.5078H57.5602C56.5125 46.5078 55.6631 47.3524 55.6631 48.3942V55.7651C55.6631 56.8069 56.5125 57.6514 57.5602 57.6514H64.9733C66.0211 57.6514 66.8705 56.8069 66.8705 55.7651V48.3942C66.8705 47.3524 66.0211 46.5078 64.9733 46.5078Z" fill="#57FF81"/>
<path d="M79.5192 46.5078H72.1061C71.0584 46.5078 70.209 47.3524 70.209 48.3942V55.7651C70.209 56.8069 71.0584 57.6514 72.1061 57.6514H79.5192C80.567 57.6514 81.4164 56.8069 81.4164 55.7651V48.3942C81.4164 47.3524 80.567 46.5078 79.5192 46.5078Z" fill="#57FF81"/>
<path d="M21.3386 60.8157H13.9255C12.8777 60.8157 12.0283 61.6602 12.0283 62.702V70.0729C12.0283 71.1147 12.8777 71.9593 13.9255 71.9593H21.3386C22.3863 71.9593 23.2357 71.1147 23.2357 70.0729V62.702C23.2357 61.6602 22.3863 60.8157 21.3386 60.8157Z" fill="#57FF81"/>
<path d="M35.8845 60.8157H28.4714C27.4236 60.8157 26.5742 61.6602 26.5742 62.702V70.0729C26.5742 71.1147 27.4236 71.9593 28.4714 71.9593H35.8845C36.9322 71.9593 37.7816 71.1147 37.7816 70.0729V62.702C37.7816 61.6602 36.9322 60.8157 35.8845 60.8157Z" fill="#57FF81"/>
<path d="M50.4313 60.8157H43.0182C41.9705 60.8157 41.1211 61.6602 41.1211 62.702V70.0729C41.1211 71.1147 41.9705 71.9593 43.0182 71.9593H50.4313C51.4791 71.9593 52.3285 71.1147 52.3285 70.0729V62.702C52.3285 61.6602 51.4791 60.8157 50.4313 60.8157Z" fill="#57FF81"/>
<path d="M64.9733 60.8157H57.5602C56.5125 60.8157 55.6631 61.6602 55.6631 62.702V70.0729C55.6631 71.1147 56.5125 71.9593 57.5602 71.9593H64.9733C66.0211 71.9593 66.8705 71.1147 66.8705 70.0729V62.702C66.8705 61.6602 66.0211 60.8157 64.9733 60.8157Z" fill="#57FF81"/>
<path d="M79.5192 60.8157H72.1061C71.0584 60.8157 70.209 61.6602 70.209 62.702V70.0729C70.209 71.1147 71.0584 71.9593 72.1061 71.9593H79.5192C80.567 71.9593 81.4164 71.1147 81.4164 70.0729V62.702C81.4164 61.6602 80.567 60.8157 79.5192 60.8157Z" fill="#57FF81"/>
<path d="M21.3386 75.1189H13.9255C12.8777 75.1189 12.0283 75.9634 12.0283 77.0052V84.3761C12.0283 85.418 12.8777 86.2625 13.9255 86.2625H21.3386C22.3863 86.2625 23.2357 85.418 23.2357 84.3761V77.0052C23.2357 75.9634 22.3863 75.1189 21.3386 75.1189Z" fill="#57FF81"/>
<path d="M35.8845 75.1189H28.4714C27.4236 75.1189 26.5742 75.9634 26.5742 77.0052V84.3761C26.5742 85.418 27.4236 86.2625 28.4714 86.2625H35.8845C36.9322 86.2625 37.7816 85.418 37.7816 84.3761V77.0052C37.7816 75.9634 36.9322 75.1189 35.8845 75.1189Z" fill="#57FF81"/>
<path d="M50.4313 75.1189H43.0182C41.9705 75.1189 41.1211 75.9634 41.1211 77.0052V84.3761C41.1211 85.418 41.9705 86.2625 43.0182 86.2625H50.4313C51.4791 86.2625 52.3285 85.418 52.3285 84.3761V77.0052C52.3285 75.9634 51.4791 75.1189 50.4313 75.1189Z" fill="#57FF81"/>
<path d="M64.9733 75.1189H57.5602C56.5125 75.1189 55.6631 75.9634 55.6631 77.0052V84.3761C55.6631 85.418 56.5125 86.2625 57.5602 86.2625H64.9733C66.0211 86.2625 66.8705 85.418 66.8705 84.3761V77.0052C66.8705 75.9634 66.0211 75.1189 64.9733 75.1189Z" fill="#57FF81"/>
<path d="M79.5192 75.1189H72.1061C71.0584 75.1189 70.209 75.9634 70.209 77.0052V84.3761C70.209 85.418 71.0584 86.2625 72.1061 86.2625H79.5192C80.567 86.2625 81.4164 85.418 81.4164 84.3761V77.0052C81.4164 75.9634 80.567 75.1189 79.5192 75.1189Z" fill="#57FF81"/>
<path d="M21.3386 89.4221H13.9255C12.8777 89.4221 12.0283 90.2667 12.0283 91.3085V98.6794C12.0283 99.7212 12.8777 100.566 13.9255 100.566H21.3386C22.3863 100.566 23.2357 99.7212 23.2357 98.6794V91.3085C23.2357 90.2667 22.3863 89.4221 21.3386 89.4221Z" fill="#57FF81"/>
<path d="M35.8845 89.4221H28.4714C27.4236 89.4221 26.5742 90.2667 26.5742 91.3085V98.6794C26.5742 99.7212 27.4236 100.566 28.4714 100.566H35.8845C36.9322 100.566 37.7816 99.7212 37.7816 98.6794V91.3085C37.7816 90.2667 36.9322 89.4221 35.8845 89.4221Z" fill="#57FF81"/>
<path d="M50.4313 89.4221H43.0182C41.9705 89.4221 41.1211 90.2667 41.1211 91.3085V98.6794C41.1211 99.7212 41.9705 100.566 43.0182 100.566H50.4313C51.4791 100.566 52.3285 99.7212 52.3285 98.6794V91.3085C52.3285 90.2667 51.4791 89.4221 50.4313 89.4221Z" fill="#57FF81"/>
<path d="M64.9733 89.4221H57.5602C56.5125 89.4221 55.6631 90.2667 55.6631 91.3085V98.6794C55.6631 99.7212 56.5125 100.566 57.5602 100.566H64.9733C66.0211 100.566 66.8705 99.7212 66.8705 98.6794V91.3085C66.8705 90.2667 66.0211 89.4221 64.9733 89.4221Z" fill="#57FF81"/>
<path d="M79.5192 89.4221H72.1061C71.0584 89.4221 70.209 90.2667 70.209 91.3085V98.6794C70.209 99.7212 71.0584 100.566 72.1061 100.566H79.5192C80.567 100.566 81.4164 99.7212 81.4164 98.6794V91.3085C81.4164 90.2667 80.567 89.4221 79.5192 89.4221Z" fill="#57FF81"/>
<path d="M94.0651 32.2046H86.652C85.6043 32.2046 84.7549 33.0491 84.7549 34.0909V41.4618C84.7549 42.5036 85.6043 43.3482 86.652 43.3482H94.0651C95.1129 43.3482 95.9623 42.5036 95.9623 41.4618V34.0909C95.9623 33.0491 95.1129 32.2046 94.0651 32.2046Z" fill="#2962FF"/>
<path d="M108.607 32.2046H101.194C100.146 32.2046 99.2969 33.0491 99.2969 34.0909V41.4618C99.2969 42.5036 100.146 43.3482 101.194 43.3482H108.607C109.655 43.3482 110.504 42.5036 110.504 41.4618V34.0909C110.504 33.0491 109.655 32.2046 108.607 32.2046Z" fill="#2962FF"/>
<path d="M94.0651 46.5078H86.652C85.6043 46.5078 84.7549 47.3524 84.7549 48.3942V55.7651C84.7549 56.8069 85.6043 57.6514 86.652 57.6514H94.0651C95.1129 57.6514 95.9623 56.8069 95.9623 55.7651V48.3942C95.9623 47.3524 95.1129 46.5078 94.0651 46.5078Z" fill="#2962FF"/>
<path d="M108.607 46.5078H101.194C100.146 46.5078 99.2969 47.3524 99.2969 48.3942V55.7651C99.2969 56.8069 100.146 57.6514 101.194 57.6514H108.607C109.655 57.6514 110.504 56.8069 110.504 55.7651V48.3942C110.504 47.3524 109.655 46.5078 108.607 46.5078Z" fill="#2962FF"/>
<path d="M94.0651 60.8157H86.652C85.6043 60.8157 84.7549 61.6602 84.7549 62.702V70.0729C84.7549 71.1147 85.6043 71.9593 86.652 71.9593H94.0651C95.1129 71.9593 95.9623 71.1147 95.9623 70.0729V62.702C95.9623 61.6602 95.1129 60.8157 94.0651 60.8157Z" fill="#2962FF"/>
<path d="M108.607 60.8157H101.194C100.146 60.8157 99.2969 61.6602 99.2969 62.702V70.0729C99.2969 71.1147 100.146 71.9593 101.194 71.9593H108.607C109.655 71.9593 110.504 71.1147 110.504 70.0729V62.702C110.504 61.6602 109.655 60.8157 108.607 60.8157Z" fill="#2962FF"/>
<path d="M94.0651 75.1189H86.652C85.6043 75.1189 84.7549 75.9634 84.7549 77.0052V84.3761C84.7549 85.418 85.6043 86.2625 86.652 86.2625H94.0651C95.1129 86.2625 95.9623 85.418 95.9623 84.3761V77.0052C95.9623 75.9634 95.1129 75.1189 94.0651 75.1189Z" fill="#2962FF"/>
<path d="M108.607 75.1189H101.194C100.146 75.1189 99.2969 75.9634 99.2969 77.0052V84.3761C99.2969 85.418 100.146 86.2625 101.194 86.2625H108.607C109.655 86.2625 110.504 85.418 110.504 84.3761V77.0052C110.504 75.9634 109.655 75.1189 108.607 75.1189Z" fill="#2962FF"/>
<path d="M94.0651 89.4221H86.652C85.6043 89.4221 84.7549 90.2667 84.7549 91.3085V98.6794C84.7549 99.7212 85.6043 100.566 86.652 100.566H94.0651C95.1129 100.566 95.9623 99.7212 95.9623 98.6794V91.3085C95.9623 90.2667 95.1129 89.4221 94.0651 89.4221Z" fill="#2962FF"/>
<path d="M108.607 89.4221H101.194C100.146 89.4221 99.2969 90.2667 99.2969 91.3085V98.6794C99.2969 99.7212 100.146 100.566 101.194 100.566H108.607C109.655 100.566 110.504 99.7212 110.504 98.6794V91.3085C110.504 90.2667 109.655 89.4221 108.607 89.4221Z" fill="#2962FF"/>
<path d="M32.5878 71.2993C31.8479 71.2993 31.1412 70.9834 30.6432 70.4363L24.7146 63.8577C23.7518 62.7919 23.842 61.1508 24.9186 60.1935C25.9905 59.2361 27.641 59.3257 28.6038 60.3963L32.5498 64.7726L40.6696 55.388C41.6087 54.3033 43.2545 54.1807 44.3501 55.1145C45.4409 56.0482 45.5643 57.6846 44.6252 58.774L34.5656 70.3986C34.077 70.9645 33.3656 71.2946 32.6162 71.2993H32.5878Z" fill="#1433E1"/>
</g>
<defs>
<clipPath id="clip0_563_3804">
<rect width="127.811" height="120" fill="white"/>
</clipPath>
</defs>
</svg>
