<svg width="54" height="55" viewBox="0 0 54 55" fill="none" xmlns="http://www.w3.org/2000/svg">
<g clip-path="url(#clip0_484_695)">
<path d="M27.0958 7.49902C37.8787 7.49902 46.6194 16.2542 46.6194 27.0549C46.6194 37.8556 37.8787 46.6107 27.0958 46.6107C16.313 46.6107 7.57227 37.8556 7.57227 27.0549C7.57227 16.2542 16.313 7.49902 27.0958 7.49902Z" fill="#BCD3FF"/>
<path d="M42.0955 25.8113C42.7205 25.8113 43.2486 26.3403 43.2486 26.9663C43.2486 27.5923 42.7205 28.1213 42.0955 28.1213C41.4705 28.1213 40.9424 27.5923 40.9424 26.9663C40.9424 26.3403 41.4793 25.8113 42.0955 25.8113Z" fill="#1433E1"/>
<path d="M38.4507 15.5926C38.8908 16.0334 38.8908 16.7476 38.4507 17.1885C38.0105 17.6293 37.2975 17.6293 36.8574 17.1885C36.4173 16.7476 36.4173 16.0334 36.8574 15.5926C37.2975 15.1518 38.0105 15.1518 38.4507 15.5926Z" fill="#1433E1"/>
<path d="M38.4507 36.7442C38.8908 37.1851 38.8908 37.8992 38.4507 38.3401C38.0105 38.7809 37.2975 38.7809 36.8574 38.3401C36.4173 37.8992 36.4173 37.1851 36.8574 36.7442C37.2975 36.3034 38.0105 36.3034 38.4507 36.7442Z" fill="#1433E1"/>
<path d="M27.0955 10.8757C27.7205 10.8757 28.2486 11.4136 28.2486 12.0307C28.2486 12.6479 27.7117 13.1858 27.0955 13.1858C26.4793 13.1858 25.9424 12.6567 25.9424 12.0307C26.0304 11.3166 26.4793 10.8757 27.0955 10.8757Z" fill="#1433E1"/>
<path d="M27.0955 40.8357C27.7205 40.8357 28.2486 41.3647 28.2486 41.9907C28.2486 42.6167 27.7117 43.0575 27.0955 43.0575C26.4793 43.0575 25.9424 42.5197 25.9424 41.9025C26.0304 41.3647 26.4793 40.8357 27.0955 40.8357Z" fill="#1433E1"/>
<path d="M17.3344 15.5926C17.7746 16.0334 17.7746 16.7476 17.3344 17.1885C16.8943 17.6293 16.1813 17.6293 15.7412 17.1885C15.3011 16.7476 15.3011 16.0334 15.7412 15.5926C16.1813 15.1518 16.8943 15.1518 17.3344 15.5926Z" fill="#1433E1"/>
<path d="M17.3344 36.7445C17.7746 37.1853 17.7746 37.8995 17.3344 38.3403C16.8943 38.7812 16.1813 38.7812 15.7412 38.3403C15.3011 37.8995 15.3011 37.1853 15.7412 36.7445C16.1813 36.3036 16.8943 36.3036 17.3344 36.7445Z" fill="#1433E1"/>
<path d="M12.0965 25.8115C12.7126 25.8115 13.2496 26.3405 13.2496 26.9665C13.2496 27.5925 12.7126 28.1215 12.0965 28.1215C11.4803 28.1215 10.9434 27.5925 10.9434 26.9665C11.0314 26.3405 11.4803 25.8115 12.0965 25.8115Z" fill="#1433E1"/>
<path d="M27.0961 53.2849C20.0895 53.2849 13.5229 50.5252 8.54961 45.6407C3.66431 40.6591 0.90918 34.0817 0.90918 27.0547C0.90918 20.0276 3.66431 13.459 8.5408 8.47749C13.4261 3.49595 20.0807 0.833252 27.0961 0.833252C34.1116 0.833252 40.6781 3.59294 45.6426 8.47749C50.616 13.459 53.2743 20.0364 53.2743 27.0547C53.2743 34.0729 50.5191 40.6591 45.6426 45.6318C40.6693 50.5164 34.1028 53.2761 27.0961 53.2761V53.2849ZM27.0961 3.06392C13.8662 3.05511 3.12737 13.8117 3.12737 27.0547C3.12737 40.2976 13.8662 51.0542 27.0873 51.0542C40.3084 51.0542 51.0473 40.2976 51.0473 27.0547C51.0473 13.8117 40.3172 3.05511 27.0961 3.05511V3.06392Z" fill="#1433E1"/>
<path d="M27.0955 47.6773C15.7405 47.6773 6.50684 38.4284 6.50684 27.0546C6.50684 15.6808 15.7317 6.43188 27.0955 6.43188C38.4593 6.43188 47.6841 15.6808 47.6841 27.0546C47.6841 38.4284 38.4505 47.6773 27.0955 47.6773ZM27.0955 8.65374C16.9816 8.65374 8.72502 16.924 8.72502 27.0546C8.72502 37.1852 16.9816 45.4554 27.0955 45.4554C37.2094 45.4554 45.466 37.1852 45.466 27.0546C45.466 16.924 37.2094 8.65374 27.0955 8.65374Z" fill="#1433E1"/>
<path d="M23.1877 32.4772C22.9237 32.4772 22.6508 32.389 22.3867 32.1245C21.9466 31.6837 21.9466 30.9695 22.3867 30.5286L25.9341 26.9754V20.7507C25.9341 20.1247 26.471 19.5957 27.0872 19.5957C27.7033 19.5957 28.2403 20.1247 28.2403 20.7507V27.4163C28.2403 27.6808 28.1523 27.9453 27.8882 28.2186L23.9799 32.2215C23.8039 32.3978 23.4518 32.486 23.1789 32.486L23.1877 32.4772Z" fill="#1433E1"/>
<path d="M52.649 54.1667H1.62186C0.99689 54.1667 0.46875 53.6377 0.46875 53.0117C0.46875 52.3857 0.99689 51.8567 1.62186 51.8567H52.649C53.2739 51.8567 53.8021 52.3857 53.8021 53.0117C53.7141 53.6377 53.1771 54.1667 52.649 54.1667Z" fill="#1433E1"/>
</g>
<defs>
<clipPath id="clip0_484_695">
<rect width="53.3333" height="53.3333" fill="white" transform="translate(0.467773 0.833252)"/>
</clipPath>
</defs>
</svg>
