<svg width="160" height="120" viewBox="0 0 160 120" fill="none" xmlns="http://www.w3.org/2000/svg">
<g clip-path="url(#clip0_563_3855)">
<path d="M8.74609 16.3597L12.1791 7.11252C13.4597 3.65618 16.7565 1.36255 20.4438 1.36255H138.806C142.493 1.36255 145.786 3.65618 147.071 7.11252L150.504 16.3597V24.476H8.74609V16.3597Z" fill="#57FF81"/>
<path d="M156.03 31.6658H3.21471C2.18843 31.6658 1.35742 30.8346 1.35742 29.8081V19.1394C1.35742 18.1129 2.18843 17.2817 3.21471 17.2817H60.2593L64.0465 22.6139L98.6765 22.3822L101.769 17.2817H156.03C157.056 17.2817 157.887 18.1129 157.887 19.1394V29.8081C157.887 30.8346 157.056 31.6658 156.03 31.6658Z" fill="#09DE3F"/>
<path d="M156.03 33.0283H3.21506C1.43951 33.0283 0 31.584 0 29.8081V19.1394C0 17.3635 1.44405 15.9237 3.21506 15.9237H60.9635L64.7462 21.2513L97.9049 21.0288L100.997 15.9192H156.026C157.801 15.9192 159.241 17.3635 159.241 19.1348V29.8036C159.241 31.5795 157.797 33.0238 156.026 33.0238L156.03 33.0283ZM3.21506 18.6488C2.9426 18.6488 2.72463 18.8714 2.72463 19.1394V29.8081C2.72463 30.0807 2.94714 30.3032 3.21506 30.3032H156.03C156.303 30.3032 156.521 30.0807 156.521 29.8081V19.1394C156.521 18.8668 156.298 18.6488 156.03 18.6488H102.537L99.4488 23.7448L63.3521 23.9855L59.5603 18.6443H3.21506V18.6488Z" fill="#1433E1"/>
<path d="M136.581 108.55H22.669C17.4967 108.55 13.1828 104.603 12.715 99.4528L6.58008 31.6658H152.665L146.53 99.4528C146.063 104.603 141.749 108.55 136.577 108.55H136.581Z" fill="#57FF81"/>
<path d="M136.577 109.913H22.6692C16.7522 109.913 11.8933 105.471 11.3575 99.5799L5.09082 30.3032H154.16L147.893 99.5754C147.362 105.466 142.498 109.908 136.581 109.908L136.577 109.913ZM8.06974 33.0283L14.0685 99.3301C14.4726 103.808 18.169 107.188 22.6647 107.188H136.577C141.072 107.188 144.769 103.808 145.173 99.3301L151.172 33.0283H8.06974Z" fill="#1433E1"/>
<path d="M22.0553 108.55H38.8663V114.95C38.8663 116.984 37.2133 118.642 35.1744 118.642H25.7426C23.7083 118.642 22.0508 116.989 22.0508 114.95V108.55H22.0553Z" fill="#141B57"/>
<path d="M35.1793 120H25.7475C22.9639 120 20.6934 117.734 20.6934 114.945V107.183H40.2289V114.945C40.2289 117.729 37.9629 120 35.1747 120H35.1793ZM23.418 109.913V114.949C23.418 116.235 24.4624 117.279 25.7475 117.279H35.1793C36.4644 117.279 37.5088 116.235 37.5088 114.949V109.913H23.4225H23.418Z" fill="#1433E1"/>
<path d="M120.374 108.55H137.185V114.95C137.185 116.984 135.532 118.642 133.493 118.642H124.061C122.027 118.642 120.369 116.989 120.369 114.95V108.55H120.374Z" fill="#141B57"/>
<path d="M133.498 120H124.066C121.282 120 119.012 117.734 119.012 114.945V107.183H138.547V114.945C138.547 117.729 136.281 120 133.493 120H133.498ZM121.736 109.913V114.949C121.736 116.235 122.781 117.279 124.066 117.279H133.498C134.783 117.279 135.827 116.235 135.827 114.949V109.913H121.741H121.736Z" fill="#1433E1"/>
<path d="M150.504 17.7223C149.95 17.7223 149.432 17.3816 149.228 16.8321L145.795 7.58033C144.714 4.67356 141.908 2.72056 138.811 2.72056H20.4392C17.3377 2.72056 14.5313 4.67356 13.4505 7.58033L10.0175 16.8321C9.75412 17.5361 8.97306 17.8994 8.26465 17.636C7.56079 17.3725 7.19751 16.5913 7.46089 15.8828L10.8939 6.63109C12.3698 2.66606 16.2069 0 20.4392 0H138.806C143.038 0 146.875 2.66606 148.347 6.63563L151.78 15.8874C152.043 16.5913 151.684 17.3771 150.976 17.6405C150.822 17.6996 150.658 17.7268 150.504 17.7268V17.7223Z" fill="#1433E1"/>
<path d="M129.334 52.0496H29.9121C29.1583 52.0496 28.5498 51.441 28.5498 50.687C28.5498 49.9331 29.1583 49.3245 29.9121 49.3245H129.334C130.088 49.3245 130.696 49.9331 130.696 50.687C130.696 51.441 130.088 52.0496 129.334 52.0496Z" fill="#1433E1"/>
<path d="M129.334 72.3015H29.9121C29.1583 72.3015 28.5498 71.6929 28.5498 70.939C28.5498 70.185 29.1583 69.5764 29.9121 69.5764H129.334C130.088 69.5764 130.696 70.185 130.696 70.939C130.696 71.6929 130.088 72.3015 129.334 72.3015Z" fill="#1433E1"/>
<path d="M129.334 91.1094H29.9121C29.1583 91.1094 28.5498 90.5008 28.5498 89.7468C28.5498 88.9929 29.1583 88.3843 29.9121 88.3843H129.334C130.088 88.3843 130.696 88.9929 130.696 89.7468C130.696 90.5008 130.088 91.1094 129.334 91.1094Z" fill="#1433E1"/>
</g>
<defs>
<clipPath id="clip0_563_3855">
<rect width="159.245" height="120" fill="white"/>
</clipPath>
</defs>
</svg>
