<svg width="58" height="61" viewBox="0 0 58 61" fill="none" xmlns="http://www.w3.org/2000/svg">
<path fill-rule="evenodd" clip-rule="evenodd" d="M22.0862 37.3605C22.0862 41.6189 22.0862 44.3644 21.9744 45.5971C21.9185 46.8298 21.5272 47.9504 20.8564 48.9029C20.2415 49.9115 19.3472 50.5839 18.2292 50.9201C17.0554 51.3123 15.3785 51.5364 13.0867 51.5364H8V44.0843C8.61487 44.1403 9.06206 44.1403 9.34154 44.1403C10.0682 44.1403 10.6272 43.9722 11.0744 43.58C11.4656 43.1877 11.6892 42.6835 11.801 42.1232C11.8569 41.5628 11.8569 40.4982 11.8569 38.8733V8.89648H22.0862V37.3605Z" fill="#2962FF"/>
<path fill-rule="evenodd" clip-rule="evenodd" d="M39.8926 52.3209C39.3337 52.3769 38.7188 52.433 38.1039 52.433C35.3649 52.433 33.0172 51.8726 31.1167 50.696C29.1603 49.5753 27.8747 48.1746 27.3157 46.4376C26.7008 44.7006 26.3654 42.2352 26.3654 39.0414V36.2399H35.868V41.4508C35.868 43.0197 36.0357 44.0282 36.3152 44.5325C36.5388 44.9808 37.0419 45.2049 37.7126 45.2049C38.3834 45.2049 38.8865 44.9247 39.2219 44.3084C39.5572 43.7481 39.7249 42.9076 39.7249 41.7309C39.7249 39.2095 39.3896 37.5846 38.7747 36.8002C38.1598 36.0718 36.5388 34.783 34.0234 32.934C31.4521 31.141 29.7752 29.7962 28.9367 28.9558C28.0983 28.1713 27.4275 26.9947 26.8685 25.5379C26.3654 24.081 26.0859 22.232 26.0859 19.9907C26.0859 16.6849 26.4772 14.3316 27.2039 12.8187C27.9865 11.3059 29.2162 10.1292 30.949 9.28873C32.6818 8.44825 34.7501 8 37.1537 8C39.8367 8 42.1285 8.44825 43.9731 9.40079C45.8178 10.2973 47.1034 11.474 47.7183 12.9308C48.2773 14.3316 48.6126 16.7409 48.6126 20.1028V21.7837H39.1101V18.646C39.1101 17.1331 38.9983 16.2366 38.7188 15.7884C38.4952 15.3962 38.1039 15.2281 37.5449 15.2281C36.9301 15.2281 36.427 15.5082 36.1475 16.0125C35.8121 16.5728 35.6444 17.4133 35.6444 18.4779C35.6444 19.9347 35.8121 20.9993 36.2034 21.7277C36.5388 22.4561 37.489 23.2966 39.0542 24.3052C43.6378 27.2748 46.4885 29.6281 47.6624 31.5332C48.8362 33.3822 49.4511 36.464 49.4511 40.6103C49.4511 43.636 49.1157 45.8773 48.4449 47.3341C47.8301 48.7909 46.5444 49.9676 44.6439 50.9201C43.2465 51.6485 41.6813 52.1528 39.8926 52.3209Z" fill="#2962FF"/>
</svg>
