<svg width="368" height="100" viewBox="0 0 368 100" fill="none" xmlns="http://www.w3.org/2000/svg">
<g clip-path="url(#clip0_518_534)">
<path fill-rule="evenodd" clip-rule="evenodd" d="M146.252 70.9544C146.401 70.5578 146.55 70.1117 146.699 69.7152L149.578 62.3794H151.563L146.997 73.6805H144.862L140.296 62.3794H142.281L145.16 69.7152C145.309 70.1117 145.458 70.5578 145.657 70.9544L145.954 71.797L145.905 71.9457L145.954 71.8466V71.797L146.252 70.9544Z" fill="#141B57"/>
<path fill-rule="evenodd" clip-rule="evenodd" d="M30.0052 29.5663C29.9059 29.6654 29.8563 29.6654 29.7074 29.6158C29.6577 29.5663 29.6081 29.5167 29.5585 29.5167C29.5585 29.5167 29.4592 29.4671 29.4095 29.4176C29.211 29.3184 29.1117 29.2689 28.9628 29.1698C28.9132 29.1698 28.8139 29.1202 28.8139 29.1202C28.8139 29.0706 28.4665 28.9219 28.4168 28.9219V28.8723C28.3672 28.8723 28.3672 28.8228 28.3672 28.8228C28.3176 28.8228 28.2679 28.8228 28.2183 28.7732C28.119 28.7236 28.0694 28.6741 28.0197 28.6741C28.0197 28.6741 28.0197 28.6741 27.9701 28.6245C27.9701 28.6245 27.9205 28.6245 27.8708 28.5749C27.8708 28.5749 27.7219 28.4758 27.6227 28.4263C27.4737 28.3767 27.3248 28.2775 27.3248 28.2775C27.2752 28.2775 27.1759 28.1784 27.0767 28.1289C26.9774 28.0793 26.8781 28.0297 26.7788 27.9802C26.6796 27.9306 26.6299 27.881 26.5803 27.8315C26.5307 27.8315 26.481 27.7819 26.4314 27.7819C26.3818 27.7819 26.3321 27.7323 26.084 27.5836C25.9847 27.5341 25.8358 27.3854 25.7861 27.3358C25.7861 27.2367 25.7861 26.9393 25.7861 26.8401C25.8358 26.8401 25.8358 26.7906 25.8854 26.741C25.8854 26.6914 25.935 26.6419 25.9847 26.5427C26.0343 26.4932 26.1832 26.3445 26.3321 26.1958C26.5803 25.9479 26.7292 25.8488 26.9774 25.7497C27.027 25.7001 27.0767 25.6505 27.1263 25.6505C27.1263 25.601 27.1759 25.601 27.1759 25.601C27.1759 25.601 27.2256 25.601 27.3248 25.5514C27.3745 25.5514 27.4241 25.5018 27.4737 25.5018H27.5234C27.573 25.4523 27.8212 25.4027 28.1686 25.4027C28.3176 25.3531 28.4665 25.3531 28.6154 25.3531C28.9132 25.4027 29.211 25.4523 29.211 25.5018C29.2606 25.5018 29.2606 25.5018 29.3103 25.5018C29.3599 25.5018 29.5088 25.5514 29.757 25.7001C29.8563 25.7497 29.9555 25.7497 29.9555 25.7497L30.0052 25.7992C30.0052 25.7992 30.0052 25.7992 30.0052 25.7497C30.0052 25.7497 29.9555 25.7001 29.9555 25.6505C29.9555 25.5514 29.9059 25.4523 29.9059 25.4027C29.8563 25.254 29.8066 25.1053 29.8066 25.0062C29.757 24.9071 29.757 24.8079 29.7074 24.8079C29.7074 24.7583 29.7074 24.6592 29.7074 24.6096L29.6577 24.5105C29.6081 24.461 29.6081 24.4114 29.6081 24.3618C29.6081 24.3618 29.6081 24.2627 29.5585 24.1636C29.5088 24.0149 29.4592 23.8662 29.4095 23.6679C29.3599 23.4696 29.3599 23.3705 29.3103 23.2218C29.2606 23.0731 29.211 22.8253 29.211 22.7261C29.2606 22.627 29.3599 22.4783 29.4592 22.3792C29.4592 22.3792 29.5584 22.3296 29.6577 22.28C29.757 22.2305 29.8066 22.2305 30.5512 22.2305C30.9979 22.2305 31.4446 22.2305 31.4942 22.28C31.5935 22.28 31.7424 22.28 31.8913 22.3296C31.9906 22.3296 32.1395 22.3296 32.1395 22.3792C32.1395 22.3792 32.1891 22.3792 32.2884 22.3792C32.3381 22.3792 32.3877 22.4287 32.4373 22.4287C32.487 22.4783 32.5366 22.4783 32.5366 22.4783C32.6359 22.4783 33.2811 22.7757 33.3308 22.8253C33.3804 22.8748 33.3804 22.8748 33.43 22.8748L33.4797 22.9244C33.6782 23.0235 33.7279 23.1227 33.7775 23.1722L33.8768 23.2218V25.7497C33.8768 27.4845 33.8768 28.3271 33.8768 28.3271C33.9264 28.3271 33.9264 28.3767 33.976 28.4263C33.976 28.4758 34.0257 28.5254 34.0753 28.5254C34.1249 28.5749 34.2738 28.6741 34.2738 28.7237C34.2738 28.7237 33.8271 28.7237 33.2811 28.7237C32.1891 28.6741 31.6432 28.7236 31.395 28.7732C31.3453 28.8228 31.2461 28.8228 31.2461 28.8228C31.1964 28.8228 31.1468 28.8723 31.1468 28.8723C31.0972 28.8723 30.9979 28.9219 30.9482 28.9715C30.849 28.9715 30.7993 29.021 30.7497 29.021C30.5512 29.1202 30.5015 29.1697 30.303 29.3184C30.2037 29.368 30.0548 29.5167 30.0052 29.5663Z" fill="#141B57"/>
<path fill-rule="evenodd" clip-rule="evenodd" d="M37.3504 31.3508C37.3504 31.4995 37.3504 31.6482 37.3008 31.6977C37.3008 31.7473 37.2512 31.8464 37.2512 31.8464C37.2512 31.9456 37.0526 32.243 37.0526 32.2925C37.003 32.2925 37.003 32.2925 37.003 32.3421C37.003 32.3421 36.7052 32.6395 36.5066 32.7386C36.3577 32.8378 36.2584 32.8873 35.9606 32.9369C35.7621 32.9865 35.7621 32.9865 33.8759 32.9865C32.8336 32.9865 31.9401 32.9865 31.8905 32.9865C31.4934 32.8873 31.3445 32.8378 31.0963 32.6395C30.8978 32.5404 30.6992 32.3421 30.6496 32.1934C30.4511 31.896 30.4014 31.7473 30.4014 31.4003C30.3518 31.1525 30.4014 31.1029 30.4511 30.9543C30.4511 30.8551 30.5007 30.756 30.5007 30.756C30.5503 30.7064 30.5503 30.6569 30.5503 30.6569C30.5503 30.5577 31.0467 30.062 31.1956 30.0125L31.2452 29.9629C31.2452 29.9629 31.4438 29.8638 31.4934 29.8638C31.543 29.8638 31.5927 29.8638 31.5927 29.8142C31.6919 29.7647 31.9401 29.7646 34.0745 29.7646C35.911 29.7646 36.0599 29.7647 36.1095 29.8142C36.1592 29.8638 36.2088 29.8638 36.2584 29.8638C36.2584 29.8638 36.3081 29.9134 36.4073 29.9134C36.457 29.9629 36.5563 30.0125 36.5563 30.0125C36.6555 30.062 37.0526 30.409 37.1022 30.5081C37.1022 30.5577 37.1519 30.6073 37.1519 30.6073C37.2015 30.7064 37.2512 30.8056 37.3008 30.9543C37.3008 31.0534 37.3504 31.2021 37.3504 31.3508Z" fill="#141B57"/>
<path fill-rule="evenodd" clip-rule="evenodd" d="M55.6169 2.7013C55.8651 2.55261 56.3615 2.35434 56.5104 2.35434C56.56 2.35434 56.6097 2.35434 56.6593 2.30477C56.7089 2.30477 56.8578 2.25521 57.0564 2.20564C57.2053 2.15608 57.5031 2.10651 57.6024 2.10651C57.9002 2.05694 58.744 2.05694 58.9922 2.10651C59.6871 2.20564 59.7863 2.20564 59.8856 2.25521C59.9353 2.30478 59.9849 2.30477 60.0345 2.30477C60.1834 2.30477 60.4812 2.40391 60.8783 2.60217C61.0272 2.65174 61.1761 2.75087 61.1761 2.75087C61.1761 2.75087 61.2754 2.75087 61.3251 2.80044C61.3747 2.85 61.5732 2.94914 61.7718 3.09784C62.2185 3.34567 62.2185 3.39523 63.5587 4.68396C64.1543 5.27875 64.7003 5.82398 64.7499 5.92311C64.8988 6.12138 64.8988 6.46835 64.7996 6.71618C64.6507 6.96401 64.4521 7.11271 63.9558 7.4101C62.9134 7.95533 62.6156 8.10403 62.3178 8.25273C62.2681 8.30229 62.1192 8.40143 61.9703 8.50056C61.8214 8.59969 61.5732 8.7484 61.474 8.84753C61.3251 8.94666 61.2258 9.0458 61.1761 9.09536C60.8783 9.29363 59.5382 10.6319 59.29 11.0284C59.29 11.0284 59.1907 11.1771 59.0418 11.3258C58.7936 11.6728 58.744 11.6728 58.4958 11.5241C58.3469 11.4745 58.0987 11.3754 57.9002 11.3258C57.8009 11.2763 57.652 11.2763 57.5527 11.2267C57.2549 11.1276 56.3615 11.078 55.6666 11.1276C55.2695 11.1276 54.9717 11.1276 54.9717 11.1276C54.9717 11.078 55.1206 10.9293 55.2695 10.8302C55.3191 10.7311 55.3688 10.6815 55.3688 10.6815C55.3688 10.6319 55.4184 10.5823 55.468 10.5328C55.5177 10.4832 55.5177 9.98755 55.468 6.71618C55.468 4.58483 55.468 2.85001 55.468 2.85001C55.468 2.80044 55.5177 2.75087 55.6169 2.7013Z" fill="#141B57"/>
<path fill-rule="evenodd" clip-rule="evenodd" d="M58.1982 73.6805V58.1167H60.0348V67.5839L59.8859 67.683V67.7326L60.0348 67.7821V67.5839L65.9414 62.3794H68.3239L63.6582 66.543V66.6421V66.6917L68.4232 73.6805H66.2889L62.318 67.8813H62.1195L60.0348 69.7152V69.7648V73.6805H58.1982Z" fill="#141B57"/>
<path fill-rule="evenodd" clip-rule="evenodd" d="M47.4273 12.8128C47.3281 12.912 47.2288 12.8624 47.0303 12.7633C46.9806 12.7137 46.8813 12.6641 46.8317 12.6641C46.7821 12.6146 46.6332 12.565 46.5339 12.4659C46.1864 12.2676 46.0872 12.218 45.839 12.0693C45.7397 12.0198 45.6404 11.9702 45.6404 11.9206C45.5908 11.8711 45.0448 11.5737 44.9952 11.5737C44.9456 11.5737 44.9455 11.5737 44.8959 11.5241C44.8959 11.4745 44.8463 11.4745 44.8463 11.4745C44.7966 11.4745 44.6974 11.425 44.5981 11.3258C44.4492 11.2763 44.3499 11.1771 44.3499 11.1771C44.3003 11.1771 44.3003 11.1771 44.2507 11.1276C44.201 11.1276 44.1514 11.078 44.1017 11.0284C44.0521 11.0284 43.8039 10.8797 43.6054 10.7806C43.4068 10.6319 43.2083 10.5328 43.1587 10.4832C43.109 10.4832 42.9105 10.3841 42.7616 10.2849C42.6623 10.1858 42.4141 10.0867 42.2652 9.98754C42.1659 9.93798 42.017 9.83885 41.9674 9.78928C41.8681 9.73972 41.8185 9.69015 41.7689 9.69015C41.6696 9.64059 41.5703 9.54145 41.2229 9.34319C40.9747 9.24406 40.7761 8.99623 40.6769 8.84753C40.6272 8.74839 40.6272 8.20316 40.6769 8.05446C40.7265 8.0049 40.7761 7.90577 40.8258 7.8562C40.8258 7.80663 40.9251 7.65793 40.9747 7.5588C41.074 7.4101 41.3221 7.1127 41.5207 6.91444C41.9178 6.46834 42.1659 6.27008 42.5134 6.07181C42.6127 6.02224 42.7616 5.97268 42.7616 5.92311C42.8112 5.92311 42.8608 5.87355 42.8608 5.87355C42.9105 5.87355 43.0098 5.82398 43.109 5.77441C43.1587 5.72484 43.2579 5.72485 43.3572 5.72485C43.4068 5.72485 43.4565 5.67528 43.4565 5.67528C43.5061 5.62571 43.9528 5.52658 44.4988 5.42745C44.747 5.42745 44.9456 5.42745 45.1937 5.42745C45.6901 5.52658 46.1368 5.57615 46.1864 5.62572C46.2361 5.67528 46.2857 5.67528 46.2857 5.67528C46.385 5.67528 46.6332 5.77441 47.0303 5.97268C47.1792 6.02225 47.3281 6.12138 47.3777 6.12138H47.4273C47.4273 6.07181 47.3777 5.97268 47.3777 5.87355C47.3281 5.77442 47.3281 5.57615 47.2784 5.47702C47.1792 5.22918 47.1295 4.98135 47.0799 4.73352C47.0303 4.63439 47.0303 4.48569 46.9806 4.38656C46.931 4.28743 46.931 4.18829 46.931 4.13873C46.931 4.0396 46.8813 3.94046 46.8317 3.8909C46.8317 3.84133 46.7821 3.74219 46.7821 3.69263C46.7821 3.64306 46.7324 3.49436 46.7324 3.34566C46.6332 3.04827 46.5339 2.80044 46.4843 2.50304C46.385 2.10651 46.3354 1.90824 46.2857 1.70997C46.1864 1.41258 46.1368 1.01605 46.1368 0.81778C46.1864 0.619515 46.3354 0.322119 46.4843 0.222986C46.5339 0.17342 46.6828 0.0742855 46.7821 0.0742855C46.9806 -0.0248471 47.0799 -0.0248455 48.2711 -0.0248455C48.966 -0.0744118 49.6609 -0.0248455 49.8099 -0.0248455C49.9588 -0.0248455 50.2069 0.0247238 50.4055 0.0247238C50.604 0.0742901 50.7529 0.0742886 50.8026 0.123855C50.8522 0.123855 50.9515 0.173424 51.0507 0.173424C51.15 0.173424 51.2493 0.222989 51.2989 0.272555C51.3982 0.272555 51.4478 0.322117 51.4975 0.322117C51.5967 0.322117 52.6887 0.867352 52.788 0.916919C52.788 0.966485 52.8376 1.01605 52.8873 1.01605C52.8873 1.01605 52.9369 1.06561 53.0362 1.06561C53.2844 1.26388 53.3836 1.36301 53.5325 1.46214L53.6318 1.61084L53.6814 6.02224C53.7311 8.99622 53.7311 10.4832 53.7807 10.4832C53.7807 10.4832 53.8303 10.5823 53.88 10.6319C53.88 10.6815 53.9793 10.7806 54.0289 10.8302C54.1282 10.9293 54.3763 11.1276 54.3763 11.1276C54.3763 11.1276 53.6318 11.1276 52.7384 11.1276C51.0011 11.1771 50.1573 11.2267 49.7602 11.3258C49.6609 11.3754 49.512 11.425 49.4624 11.425C49.4624 11.425 49.3631 11.425 49.3135 11.4745C49.2639 11.5241 49.115 11.5737 49.0157 11.6232C48.9164 11.6728 48.7675 11.7224 48.7675 11.7224C48.4201 11.9702 48.2711 12.0198 48.023 12.2676C47.8244 12.4163 47.6259 12.6146 47.5266 12.7137C47.477 12.7633 47.477 12.7633 47.4273 12.8128Z" fill="#141B57"/>
<path fill-rule="evenodd" clip-rule="evenodd" d="M59.3895 15.6876C59.3895 15.9354 59.3896 16.1832 59.3399 16.3319C59.2903 16.3815 59.2406 16.5302 59.2406 16.5798C59.191 16.7285 58.9428 17.2737 58.8932 17.2737C58.8436 17.3233 58.8436 17.3728 58.8436 17.3728C58.8436 17.472 58.3472 17.9181 58.099 18.1163C57.8012 18.265 57.6523 18.3642 57.2056 18.4633C56.8581 18.5624 56.8581 18.5624 53.8303 18.612C52.1427 18.612 50.7033 18.612 50.6537 18.612C50.0084 18.4633 49.7106 18.3642 49.3135 18.0668C49.0653 17.8685 48.7179 17.5215 48.569 17.3233C48.2711 16.778 48.1719 16.4806 48.1719 15.9354C48.1719 15.4893 48.1719 15.3902 48.2215 15.1423C48.2711 14.9936 48.3208 14.7954 48.3704 14.7458C48.4201 14.6962 48.4201 14.5971 48.4201 14.5971C48.4201 14.4484 49.2142 13.5067 49.4128 13.4571C49.4624 13.4571 49.512 13.4075 49.512 13.4075C49.5617 13.358 49.8595 13.2093 49.9588 13.2093C49.9588 13.2093 50.058 13.1597 50.1077 13.1101C50.2566 13.011 50.7033 13.011 54.0785 12.9614C57.007 12.9614 57.2552 12.9614 57.4041 13.0606C57.4538 13.0606 57.553 13.1101 57.553 13.1101C57.6027 13.1101 57.7019 13.1597 57.8012 13.2093C57.9501 13.2588 58.0494 13.358 58.099 13.358C58.2479 13.4075 58.8932 14.0519 58.9428 14.2006C58.9925 14.2501 59.0421 14.3493 59.0421 14.3989C59.0917 14.498 59.191 14.7458 59.2903 14.9936C59.3399 15.1423 59.3895 15.4397 59.3895 15.6876Z" fill="#141B57"/>
<path fill-rule="evenodd" clip-rule="evenodd" d="M56.2126 20.3966C56.3119 20.3966 56.3119 20.4462 56.3615 20.4462C56.4111 20.4957 56.56 20.5949 56.6593 20.694C57.2549 21.1896 57.7017 21.6358 58.0491 22.0323C58.1484 22.181 58.2476 22.2801 58.2476 22.2801C58.3469 22.3297 58.6447 22.7262 58.744 22.8253C58.7936 22.9245 58.8433 23.0236 58.9425 23.0732C58.9922 23.1227 59.0418 23.2219 59.0418 23.2714C59.0915 23.321 59.0915 23.3706 59.0915 23.3706C59.1411 23.4201 59.1907 23.4697 59.2404 23.5688C59.3893 23.7175 59.7367 24.3123 59.7864 24.4115C59.7864 24.461 59.836 24.5106 59.836 24.5106C59.836 24.5106 59.8856 24.5602 59.8856 24.6097C59.9353 24.7089 59.9353 24.7584 59.9353 24.7584C59.9849 24.808 60.1834 25.1054 60.2827 25.3532C60.2827 25.4028 60.3323 25.5515 60.382 25.6506C60.4316 25.7497 60.4813 25.8489 60.4813 25.8984C60.4813 25.948 60.5309 25.9976 60.5309 26.0471C60.5805 26.0471 60.6302 26.1463 60.6302 26.1958C60.6302 26.2454 60.6302 26.3445 60.6798 26.3941C60.7294 26.4932 60.7791 26.5924 60.7791 26.6419C60.7791 26.6915 60.7791 26.7411 60.8287 26.7906C60.8783 26.8898 60.8783 26.9889 61.0272 27.5341C61.0272 27.6333 61.0769 27.8315 61.1265 27.9307C61.1762 28.0794 61.1762 28.2776 61.2258 28.3768C61.2258 28.5255 61.2754 28.7237 61.2754 28.8724C61.3251 28.9716 61.3747 29.4177 61.3747 29.8637C61.4243 30.3098 61.4243 30.7064 61.474 30.7559C61.474 30.8055 61.474 30.8551 61.474 30.9046C61.474 31.0038 61.7718 31.3012 61.9207 31.3507C62.1689 31.4994 62.5163 31.4994 62.7149 31.3507C63.0623 31.202 63.2112 30.8551 63.2112 30.4586C63.2112 30.1116 63.112 28.9716 63.0623 28.6246C63.0623 28.4263 63.0127 28.1785 63.0127 28.0794C62.963 27.9802 62.9134 27.782 62.9134 27.6828C62.8638 27.5341 62.8141 27.3854 62.8141 27.2367C62.6652 26.7411 62.5163 26.0967 62.4667 26.0471C62.4667 26.0471 62.417 25.948 62.417 25.8489C62.417 25.7993 62.3674 25.7002 62.3178 25.7002C62.3178 25.6506 62.2681 25.6011 62.2681 25.5019C62.2185 25.3037 62.0696 24.9567 62.02 24.9071C62.02 24.9071 61.9703 24.808 61.9703 24.7584C61.9703 24.7584 61.9703 24.6593 61.9207 24.6593C61.8711 24.6097 61.8711 24.5602 61.8214 24.5106C61.8214 24.4115 61.7718 24.3619 61.7718 24.3123C61.7221 24.3123 61.6725 24.2628 61.6725 24.2132C61.6725 24.1636 61.6229 24.0645 61.5732 23.9654C61.5236 23.8662 61.4243 23.7175 61.4243 23.7175C61.3747 23.6184 61.3747 23.5688 61.2754 23.4201C61.2258 23.321 61.1265 23.2219 61.1265 23.1227C61.0769 23.0732 60.9776 22.9245 60.8783 22.7758C60.7791 22.6271 60.7294 22.4784 60.6798 22.4288C60.6798 22.3792 60.5805 22.2801 60.4813 22.1314C60.382 22.0323 60.2827 21.8836 60.2331 21.7844C60.1834 21.7349 60.1338 21.6853 60.0842 21.6357C60.0345 21.5862 59.9353 21.4375 59.836 21.3383C59.6374 21.0905 59.4885 20.9418 58.9425 20.347C58.744 20.1488 58.5951 19.9505 58.5951 19.9505C58.5951 19.9009 58.6944 19.8018 58.8433 19.7522C58.9922 19.6531 59.1411 19.554 59.2404 19.5044C59.29 19.4548 59.3893 19.3557 59.4389 19.3061C59.5878 19.2566 59.8856 18.9592 60.0842 18.7113C60.1834 18.6122 60.2827 18.4635 60.4813 18.1661C60.5309 18.1165 60.5805 18.0174 60.5805 17.9678C60.6302 17.9183 60.8783 17.9183 60.8783 17.9678C60.928 18.0174 60.9776 18.067 61.0272 18.067C61.1265 18.1165 61.2754 18.2157 61.4243 18.2652C61.6229 18.3644 61.7718 18.4635 61.7718 18.4635C61.8711 18.5131 62.7149 19.0087 62.8141 19.1079C63.6083 19.7027 64.2536 20.2479 65.0477 21.0409C65.5441 21.5862 66.7354 23.0732 66.7354 23.2219C66.7354 23.2714 66.7354 23.321 66.785 23.321C66.785 23.3706 66.8843 23.4697 66.9339 23.5688C67.0332 23.7175 67.0828 23.8167 67.0828 23.8167C67.0828 23.8662 67.1821 24.0149 67.2813 24.2132C67.3806 24.4115 67.4799 24.6593 67.5295 24.7089C67.5792 24.808 67.6288 24.9071 67.6288 24.9071C67.6288 24.9567 67.6288 25.0063 67.6784 25.0063C67.7281 25.0558 67.7281 25.1054 67.7281 25.155C67.7281 25.155 67.7777 25.3036 67.8273 25.3532C67.877 25.4523 67.877 25.5515 67.877 25.601C67.877 25.6506 67.9266 25.7002 67.9762 25.7498C67.9762 25.7993 68.0259 25.8489 68.0259 25.8984C68.0259 25.8984 68.0259 25.9976 68.0755 26.0471C68.1252 26.1463 68.1748 26.2454 68.1748 26.3445C68.2244 26.4437 68.2244 26.5428 68.2741 26.5924C68.3237 26.7411 68.3733 26.9889 68.423 27.2863C68.4726 27.3359 68.5222 27.5341 68.5222 27.6333C68.5719 27.7324 68.6215 27.8811 68.6215 27.9802C68.6215 28.0298 68.6215 28.2281 68.6712 28.3272C68.7208 28.4759 68.7704 28.7733 68.7704 29.0707C68.8201 29.3185 68.8201 29.5168 68.8697 29.5663C68.8697 29.6159 68.9193 33.2838 68.969 37.7448C69.0682 43.9901 69.1179 45.8737 69.1675 45.9232C69.1675 45.9728 69.2171 46.0719 69.2668 46.1711C69.3164 46.518 69.6639 47.212 69.7631 47.3111C69.7631 47.3111 69.8128 47.3606 69.8128 47.4102C69.8624 47.5589 69.9617 47.658 70.2099 47.9554C70.8055 48.5998 71.004 48.8972 71.0537 49.4424C71.1529 49.7894 71.0537 50.3346 70.9048 50.5824C70.9048 50.632 70.8551 50.6816 70.8551 50.7312C70.8055 50.8303 70.6069 51.1277 70.458 51.2268C70.3091 51.3755 70.061 51.6233 70.0113 51.6233C70.0113 51.6233 69.912 51.6729 69.8128 51.6729C69.7135 51.7225 69.5646 51.8216 69.4653 51.8216C69.3164 51.8712 67.5792 51.9207 54.2272 52.0694C43.8036 52.2181 40.5277 52.2181 39.4357 52.2181H39.1875H33.8765C25.2399 52.2181 24.4953 52.2181 24.3961 52.2181L24.1975 52.119H5.38558C2.50671 52.119 0.173828 51.772 0.173828 51.3755V49.8885C0.173828 49.492 2.50671 49.145 5.38558 49.145H24.4457V49.0459C24.4953 48.9963 24.4953 48.9468 24.4953 48.8972C24.4953 48.8972 24.545 48.7981 24.545 48.7485C24.545 48.6989 24.5946 48.5007 24.5946 47.8563V47.1624H16.1565C13.3273 47.1624 10.9448 46.8154 10.9448 46.4189V44.9319C10.9448 44.4858 13.3273 44.1388 16.1565 44.1388H24.5946V39.5292C24.6443 38.9839 24.6939 38.8352 24.6939 38.6865C24.7435 38.5874 24.7435 38.4387 24.7932 38.3892C24.8428 38.0918 24.8428 38.0422 24.8924 37.8935C24.8924 37.8439 24.9421 37.6952 24.9917 37.6457C24.9917 37.5465 25.0413 37.4474 25.0413 37.3978C25.091 37.3483 25.091 37.2987 25.091 37.2987C25.091 37.2491 25.091 37.1996 25.1406 37.1996C25.1406 37.15 25.1902 37.1004 25.1902 37.1004C25.1902 37.0509 25.2399 36.9517 25.2399 36.9022C25.3391 36.7039 25.3888 36.6543 25.3888 36.6543C25.3888 36.6048 25.3888 36.6048 25.3888 36.5552C25.4384 36.5552 25.4384 36.5056 25.4384 36.5056C25.4384 36.5056 25.5377 36.2578 25.6866 36.01C25.7362 35.9604 25.7859 35.9108 25.7859 35.8613C25.8355 35.8613 25.8851 35.7621 25.9348 35.663C25.9844 35.6134 26.0341 35.4647 26.0837 35.4152C26.1333 35.3656 26.183 35.316 26.183 35.316C26.2326 35.316 26.2326 35.2665 26.2326 35.2665C26.2326 35.2169 26.7786 34.5725 27.1757 34.2256C27.6224 33.829 28.4166 33.2343 28.5158 33.2343L28.5655 33.1847C28.5655 33.1847 28.6647 33.1351 28.7144 33.0856C28.8137 33.036 28.8633 32.9864 28.9129 32.9864C29.31 32.7386 29.5582 32.6395 29.6078 32.6395C29.6078 32.689 29.7071 32.7882 29.7567 32.8873C29.9056 33.0856 30.2035 33.383 30.3524 33.4325C30.402 33.4821 30.4516 33.4821 30.5509 33.5812C30.6005 33.5812 30.6998 33.6308 30.7494 33.6804C30.8487 33.7299 30.8984 33.7795 30.8984 33.7795C30.8984 33.829 30.7991 33.9282 30.6998 34.0273C30.3524 34.3247 30.2531 34.4734 30.1538 34.6221C30.0545 34.6717 30.0049 34.7708 29.9553 34.8204C29.9056 34.8204 29.9056 34.8699 29.9056 34.8699C29.9056 34.8699 29.856 34.9691 29.8064 35.0186C29.6575 35.1673 29.6575 35.2169 29.6078 35.2665C29.6078 35.2665 29.5582 35.3656 29.5086 35.4647C29.3596 35.663 29.31 35.7126 29.2107 35.8613C29.1115 36.0595 29.1115 36.0595 29.0618 36.1091C29.0618 36.1587 28.9626 36.3569 28.9129 36.5056C28.8633 36.5056 28.8137 36.6048 28.8137 36.7039C28.764 36.7535 28.764 36.8526 28.7144 36.8526C28.6647 36.9517 28.6151 37.15 28.5655 37.1996C28.5655 37.2491 28.5655 37.2987 28.5158 37.3483C28.5158 37.3483 28.5158 37.3978 28.5158 37.4474C28.4662 37.497 28.4662 37.5961 28.4662 37.6457C28.4166 37.6952 28.3669 37.8935 28.3173 37.9926C28.3173 38.0917 28.3173 38.1909 28.2677 38.2404C28.2677 38.29 28.2677 38.3891 28.2677 38.4387C28.218 38.4883 28.218 38.5874 28.218 38.637C28.1684 38.7857 28.1188 39.0831 28.1188 39.6779C28.1188 39.7274 28.1188 39.8266 28.1188 39.8761C28.1188 40.0744 28.1684 40.1735 28.218 40.2727C28.3669 40.3718 28.4662 40.4214 28.6647 40.4214C28.9129 40.4214 29.1115 40.2727 29.2107 40.0744C29.2107 39.9753 29.2604 39.7274 29.2604 39.43C29.2604 39.1822 29.31 38.8848 29.31 38.8353C29.31 38.7361 29.3596 38.637 29.3596 38.5874C29.3596 38.5379 29.3596 38.4883 29.3596 38.4387C29.4093 38.3891 29.4093 38.29 29.4589 38.2404C29.4589 38.0422 29.5086 37.8935 29.5582 37.7944C29.5582 37.7448 29.6078 37.6952 29.6078 37.6457C29.6078 37.5961 29.6575 37.5465 29.6575 37.497L29.7071 37.4474C29.7071 37.3978 29.7071 37.3483 29.7567 37.2987C29.7567 37.1996 29.8064 37.15 29.856 37.1004C29.9056 36.9022 29.9553 36.8526 30.0545 36.6543C30.1042 36.5552 30.1538 36.4065 30.2035 36.4065C30.2035 36.4065 30.2035 36.4065 30.2035 36.3569C30.2035 36.3569 30.2531 36.3074 30.2531 36.2578C30.3027 36.2578 30.3027 36.2082 30.3027 36.2082C30.3027 36.1587 30.3524 36.1091 30.402 36.0595C30.4516 35.9604 30.5013 35.9108 30.5013 35.9108V35.8613H30.5509C30.5509 35.7621 30.8984 35.3656 30.948 35.316C30.9976 35.2665 31.0473 35.2169 31.2458 34.9691C31.4443 34.7708 31.7918 34.4734 32.0896 34.2256L32.3874 34.0273H32.8838C33.2809 34.0273 33.4298 34.0273 33.4298 34.0273C33.4298 34.0769 33.4794 34.3743 33.529 34.7708C33.529 34.9195 33.529 35.1673 33.5787 35.316C33.5787 35.4152 33.5787 35.663 33.6283 35.8613C33.6283 36.0595 33.6283 36.3074 33.678 36.3569C33.678 36.4065 33.678 36.6048 33.678 36.7535C33.678 36.9022 33.7276 37.15 33.7276 37.2987C33.7772 37.4474 33.7772 37.7448 33.8269 37.943C33.8269 38.1413 33.8269 38.3396 33.8269 38.4387C33.8765 38.4883 33.8765 38.637 33.8765 38.7361C33.8765 38.9839 33.9261 39.1326 34.075 39.2318C34.3232 39.43 34.621 39.3805 34.8692 39.1822L34.9685 39.0831V38.6865C34.9685 38.4883 34.9685 38.29 34.9685 38.2404C34.9685 38.1909 34.9188 37.9431 34.9188 37.7448C34.9188 37.497 34.8692 37.2491 34.8692 37.1996C34.8692 37.1996 34.8196 37.0013 34.8196 36.8526C34.8196 36.7039 34.7699 36.4561 34.7699 36.2578C34.7699 36.1091 34.7203 35.8117 34.7203 35.5639C34.6707 35.3656 34.6707 35.1178 34.6707 35.0682C34.6707 35.0186 34.621 34.8699 34.621 34.7212C34.621 34.6221 34.621 34.4238 34.621 34.3247C34.5714 34.0273 34.5218 34.0273 35.0181 34.0273C35.3656 34.0273 35.4152 34.0273 35.4152 34.0769C35.4648 34.0769 35.5641 34.176 35.6137 34.2256C35.9612 34.4734 36.259 34.7708 36.5072 35.0186C36.5568 35.0682 36.6065 35.1178 36.6065 35.1178C36.6561 35.1673 36.8546 35.4152 36.9043 35.4647C36.9043 35.5143 36.9539 35.5639 37.0036 35.6134C37.0532 35.6134 37.1028 35.663 37.1028 35.7126V35.7621C37.1525 35.8117 37.1525 35.8117 37.2021 35.8613C37.3014 35.9604 37.4999 36.3074 37.5495 36.3569C37.5495 36.4065 37.5495 36.4065 37.5495 36.4065C37.5992 36.4065 37.5992 36.4561 37.5992 36.5056C37.5992 36.5552 37.6488 36.5552 37.6488 36.5552C37.6488 36.6048 37.7481 36.7535 37.8474 36.9022C37.8474 36.9517 37.897 37.0509 37.897 37.1004C37.9466 37.15 37.9466 37.1996 37.9466 37.2491L37.9963 37.2987C37.9963 37.3483 38.0459 37.3483 38.0459 37.3978C38.0459 37.3978 38.0459 37.497 38.0955 37.5465L38.1452 37.6457C38.1452 37.6952 38.1452 37.7448 38.1452 37.7448C38.1948 37.7944 38.1948 37.8439 38.2941 38.1413C38.2941 38.2405 38.3437 38.3396 38.3437 38.3892C38.3437 38.4883 38.3933 38.5874 38.3933 38.6865C38.3933 38.7361 38.443 38.8352 38.443 38.9344C38.443 38.9839 38.4926 39.2318 38.4926 39.5292C38.4926 39.777 38.4926 39.9753 38.5423 40.0248C38.5423 40.0248 38.5423 40.0744 38.5423 40.124C38.5423 40.1735 38.6912 40.3222 38.8401 40.3718C38.8897 40.4214 38.989 40.4214 39.0882 40.4214V38.2404L39.0386 37.0013L38.989 36.803C38.9393 36.7535 38.9393 36.7039 38.9393 36.6543C38.8897 36.6543 38.8897 36.6048 38.8897 36.6048C38.8897 36.5552 38.8897 36.5552 38.8401 36.5056C38.8401 36.5056 38.8401 36.4561 38.7904 36.4065C38.7904 36.4065 38.7904 36.3569 38.7408 36.3569C38.7408 36.3074 38.7408 36.3074 38.7408 36.2578C38.7408 36.2578 38.6912 36.1587 38.6415 36.1091C38.5919 36.0595 38.5919 36.01 38.5423 35.9604C38.5423 35.9108 38.5423 35.9108 38.443 35.8117C38.443 35.7621 38.3933 35.663 38.3437 35.663C38.3437 35.6134 38.2941 35.5143 38.2444 35.4152C38.1948 35.3656 38.1452 35.2665 38.0955 35.2665C38.0955 35.2169 38.0459 35.1178 37.9963 35.0682C37.897 35.0186 37.8474 34.9195 37.8474 34.8699C37.7977 34.8204 37.7481 34.7708 37.7481 34.7708C37.6985 34.7212 37.6488 34.6717 37.5992 34.5725C37.4999 34.4734 37.4006 34.3743 37.0532 34.0273C36.9043 33.9282 36.805 33.829 36.805 33.7795C36.805 33.7795 36.9043 33.7299 37.0036 33.6804C37.0532 33.6308 37.1525 33.5812 37.2021 33.5317C37.2517 33.5317 37.351 33.4821 37.351 33.4325C37.4503 33.383 37.6488 33.2343 37.7481 33.0856C37.7977 33.036 37.897 32.9369 37.9963 32.7882C38.0459 32.7386 38.0459 32.689 38.0955 32.689C38.0955 32.6395 38.2444 32.6395 38.2444 32.689C38.2941 32.689 38.2941 32.7386 38.3437 32.7386C38.3933 32.7386 38.4926 32.7882 38.5919 32.8377C38.6912 32.8873 38.7904 32.9369 38.8401 32.9864L39.0386 33.0856V32.6395C38.989 31.202 38.989 30.2603 38.989 30.1611C39.0386 29.6655 39.0882 29.3681 39.0882 29.1203C39.1379 28.922 39.1379 28.7733 39.1875 28.6742C39.1875 28.4759 39.2372 28.2776 39.2868 28.1289C39.3364 27.6333 39.3861 27.5341 39.4357 27.3359L39.535 26.9393L39.2372 27.088C39.1875 27.1376 39.0883 27.1872 38.989 27.2367C38.8897 27.2863 38.7904 27.3854 38.6912 27.435C38.5919 27.4846 38.5423 27.5837 38.4926 27.5837C38.2941 27.6828 37.4999 28.4759 37.3014 28.6742C37.3014 28.6742 37.2517 28.7733 37.1525 28.8724C37.0035 29.0211 37.0035 29.0211 36.8546 28.9716C36.7057 28.922 36.5568 28.8724 36.4576 28.8229C36.4079 28.8229 36.3086 28.7733 36.259 28.7733C36.0605 28.7237 35.5145 28.6742 35.0678 28.7237C34.8196 28.7237 34.621 28.7237 34.621 28.6742C34.621 28.6742 34.7203 28.575 34.8196 28.5255C34.8692 28.4759 34.9188 28.4759 34.9188 28.4263V28.3768C34.9685 28.3272 34.9685 28.0794 34.9685 26.1463C34.9685 24.9567 34.9685 23.9654 35.0181 23.9654C35.0181 23.8662 35.5641 23.668 35.6634 23.668C35.6634 23.668 35.713 23.668 35.7627 23.668C35.7627 23.6184 35.8619 23.6184 36.0108 23.5688C36.1101 23.5688 36.259 23.5688 36.3583 23.5193C36.5072 23.5193 37.0532 23.5193 37.2021 23.5193C37.5992 23.6184 37.6985 23.6184 37.7481 23.668C37.7977 23.668 37.8474 23.668 37.8474 23.668C37.9466 23.668 38.1452 23.7671 38.3437 23.8662C38.443 23.8662 38.5423 23.9158 38.5423 23.9158C38.5423 23.9158 38.5919 23.9654 38.6415 23.9654C38.6912 23.9654 38.7904 24.0645 38.8897 24.1141C39.1875 24.3123 39.1875 24.3123 39.9817 25.0558L40.1306 25.2045L40.1802 25.1054C40.1802 25.0558 40.2299 25.0063 40.2299 24.9567C40.2795 24.9567 40.2795 24.9071 40.2795 24.8575C40.2795 24.808 40.4781 24.461 40.7262 24.0645C40.7759 23.9654 40.8255 23.8167 40.8751 23.7671C40.8751 23.7175 40.9744 23.5193 41.0737 23.4201C41.173 23.2714 41.2722 23.0732 41.3219 22.974C41.3715 22.8749 41.4708 22.7758 41.4708 22.7758C41.5204 22.7758 41.5204 22.7262 41.5204 22.7262C41.5204 22.5775 42.4635 21.487 43.0591 20.8922C43.754 20.1983 45.0445 19.1079 45.1934 19.1079L45.2431 19.0583C45.2927 19.0087 45.392 18.9096 45.5409 18.86C45.6402 18.7609 45.7891 18.7113 45.8387 18.6618C46.484 18.2652 46.8811 18.067 46.9307 18.1165C46.9803 18.1165 47.0796 18.2652 47.2285 18.4635C47.4271 18.8105 47.973 19.3061 48.1716 19.4548C48.2709 19.554 48.2709 19.554 48.4694 19.6531C48.519 19.7027 48.6679 19.8018 48.8169 19.8514C48.9658 19.9505 49.0154 20.0001 49.065 20.0496C49.065 20.0992 48.9161 20.2479 48.7176 20.4462C48.1716 20.9914 48.0227 21.2392 47.8241 21.487C47.7249 21.5862 47.6256 21.7844 47.5263 21.834C47.4767 21.8836 47.4271 21.9331 47.4271 21.9827C47.4271 21.9827 47.3774 22.0818 47.2781 22.181C47.0796 22.4784 47.03 22.5279 46.9803 22.6271C46.9803 22.6766 46.8811 22.8253 46.8314 22.9245C46.5832 23.321 46.5336 23.4697 46.3847 23.7175C46.2358 23.9654 46.2358 24.0149 46.1862 24.1636C46.1365 24.2132 45.9876 24.5106 45.8883 24.7584C45.8387 24.8576 45.7891 25.0062 45.7394 25.1054C45.6898 25.2541 45.6402 25.4028 45.5905 25.4524C45.5409 25.6011 45.4416 25.8984 45.392 26.0471C45.392 26.1463 45.3424 26.1958 45.2927 26.2454C45.2927 26.295 45.2431 26.3941 45.2431 26.4932C45.1934 26.5428 45.1934 26.6915 45.1438 26.7411C45.0942 26.9393 45.0445 27.1872 44.9949 27.435C44.9949 27.5341 44.9453 27.7324 44.8956 27.8315C44.8956 27.9307 44.846 28.0794 44.846 28.1289C44.846 28.2281 44.846 28.4263 44.7964 28.575C44.7467 28.8229 44.6971 29.269 44.6475 30.3098C44.6475 30.9046 44.6971 31.1525 44.8956 31.3507C45.0942 31.549 45.2927 31.6481 45.5905 31.6481C45.9876 31.6481 46.3351 31.4003 46.4343 31.0038C46.4343 30.8551 46.484 30.409 46.484 29.9133C46.5336 29.4177 46.5336 28.9716 46.5832 28.8229C46.6329 28.7237 46.6329 28.5255 46.6329 28.4263C46.6329 28.3272 46.6825 28.2281 46.6825 28.1785C46.6825 28.0794 46.7322 27.9307 46.7818 27.782C46.8314 27.435 46.8811 27.1872 46.9803 27.0385C46.9803 26.9889 47.03 26.8402 47.03 26.7906C47.0796 26.6915 47.0796 26.5924 47.1292 26.5428C47.1292 26.4932 47.1789 26.4437 47.1789 26.3941C47.1789 26.3445 47.2285 26.2454 47.2285 26.1463C47.2781 26.0471 47.3774 25.8984 47.3774 25.7993C47.5263 25.5019 47.576 25.4028 47.7249 25.0558C47.8241 24.808 47.9234 24.6593 47.9234 24.6097C47.973 24.6097 47.973 24.5601 47.973 24.5601C47.973 24.5106 48.0227 24.4115 48.0723 24.4115C48.122 24.3619 48.122 24.3123 48.122 24.2628C48.122 24.2132 48.2212 24.0645 48.2709 23.9654C48.3701 23.8662 48.4198 23.7671 48.4198 23.7175C48.4198 23.7175 48.4198 23.7175 48.4694 23.7175C48.4694 23.7175 48.519 23.668 48.519 23.6184C48.5687 23.5193 49.065 22.8253 49.1643 22.6766C49.2636 22.5775 49.2636 22.5279 49.6607 22.1314C49.9585 21.7844 50.5045 21.1896 51.0008 20.7931L51.3979 20.3966H52.2417C52.887 20.3966 53.0855 20.3966 53.1352 20.4462C53.1352 20.4957 53.1848 20.9914 53.2841 21.7349C53.2841 21.9827 53.3337 22.4288 53.3337 22.6271C53.3833 22.8253 53.433 23.2714 53.433 23.6184C53.4826 23.9654 53.5323 24.3619 53.5323 24.461C53.5819 24.6097 53.5819 24.9071 53.5819 25.155C53.6315 25.4028 53.6812 25.8489 53.6812 26.1463C53.7308 26.3941 53.7804 26.8898 53.7804 27.2367C53.8301 27.5837 53.8797 27.9307 53.8797 28.0794C53.9293 28.1785 53.9293 28.4263 53.9293 28.6246C53.9293 29.0211 54.0286 29.269 54.2768 29.4672C54.6739 29.7646 55.1702 29.715 55.5177 29.3681L55.7162 29.1698V28.5255C55.7162 28.1785 55.7162 27.8315 55.6666 27.7324C55.6666 27.6333 55.617 27.2367 55.5673 26.8402C55.5673 26.3941 55.5177 25.9976 55.468 25.948C55.468 25.8489 55.4184 25.601 55.4184 25.3036C55.4184 25.0558 55.3688 24.6097 55.3191 24.3123C55.3191 24.0149 55.2695 23.4697 55.2199 23.1227C55.1702 22.7262 55.1702 22.3297 55.1206 22.181C55.1206 22.0818 55.071 21.834 55.071 21.6357C55.071 21.4375 55.071 21.0905 55.0213 20.8427C54.9221 20.347 54.922 20.347 55.6666 20.3966C55.9644 20.3966 56.1133 20.3966 56.2126 20.3966Z" fill="#141B57"/>
<path fill-rule="evenodd" clip-rule="evenodd" d="M272.327 14.2007C275.851 14.2502 278.283 14.4485 279.623 14.845C281.162 15.2911 282.353 15.9851 283.148 16.9764C283.991 17.9677 284.488 19.1077 284.686 20.2973C284.885 21.5365 284.984 23.9157 284.984 27.4845V40.7187C284.984 44.0892 284.835 46.3692 284.537 47.5092C284.239 48.6493 283.743 49.5415 282.999 50.1858C282.254 50.8302 281.361 51.2763 280.269 51.5241C279.177 51.7719 277.588 51.9206 275.404 51.9206H263.938V14.2007H270.739C271.285 14.2007 271.831 14.2007 272.327 14.2007ZM273.022 20.6443V45.4274C274.312 45.4274 275.156 45.1796 275.454 44.5848C275.752 44.0396 275.901 42.503 275.901 39.9752V25.3035C275.901 23.6183 275.851 22.5278 275.752 22.0322C275.653 21.5861 275.404 21.1895 275.057 20.9913C274.709 20.7434 274.015 20.6443 273.022 20.6443Z" fill="#141B57"/>
<path fill-rule="evenodd" clip-rule="evenodd" d="M252.621 45.13H249.395L248.849 51.9206H239.418L244.034 14.2007H257.188L262.399 51.9206H253.068L252.621 45.13ZM252.373 38.4386C251.926 34.1759 251.43 28.9219 250.983 22.627C250.09 29.8141 249.494 35.1177 249.246 38.4386H252.373Z" fill="#141B57"/>
<path fill-rule="evenodd" clip-rule="evenodd" d="M229.292 52.6146C228.845 52.6641 228.398 52.7137 227.902 52.7137C227.157 52.7137 226.413 52.6146 225.668 52.5154C224.477 52.3667 223.385 52.0198 222.392 51.5737C220.804 50.8302 219.613 49.8389 218.819 48.6493C218.024 47.4597 217.578 46.2205 217.429 44.8822C217.28 43.5439 217.181 40.7682 217.181 36.5055V14.2007H226.264V42.4535C226.264 44.0892 226.363 45.1796 226.512 45.6257C226.711 46.0718 227.009 46.3197 227.555 46.3197C228.101 46.3197 228.498 46.0718 228.647 45.5762C228.795 45.0309 228.895 43.8413 228.895 41.9578V14.2007H237.978V39.3804C237.978 42.2552 237.879 44.2379 237.73 45.4275C237.531 46.5675 237.035 47.7571 236.191 48.9962C235.347 50.1858 234.206 51.1276 232.816 51.7719C231.774 52.218 230.632 52.5154 229.292 52.6146Z" fill="#141B57"/>
<path fill-rule="evenodd" clip-rule="evenodd" d="M208.346 49.9876C208.346 50.8303 208.544 51.3755 208.793 51.5738C209.09 51.772 209.736 51.9207 210.828 51.9207H213.955V56.4808H207.105C205.467 56.4808 204.276 56.3321 203.581 56.0347C202.936 55.7869 202.489 55.3904 202.241 54.8451C201.993 54.2999 201.893 53.3086 201.893 51.9207C199.809 51.8216 198.071 51.2764 196.582 50.1363C195.093 49.0459 194.1 47.658 193.654 45.9728C193.157 44.2379 192.909 41.7101 192.909 38.3396V26.6419C192.909 24.114 193.058 22.1314 193.356 20.7931C193.604 19.4548 194.2 18.2156 195.093 17.0261C195.937 15.8365 197.079 14.8947 198.468 14.2999C199.858 13.7051 201.397 13.4077 203.085 13.4077C205.07 13.4077 206.906 13.7547 208.495 14.5477C210.083 15.2912 211.274 16.233 212.069 17.373C212.813 18.513 213.359 19.7026 213.558 20.9418C213.806 22.1809 213.955 24.0149 213.955 26.4437V38.6865C213.955 42.057 213.806 44.3371 213.508 45.5267C213.161 46.7163 212.615 47.658 211.771 48.3519C210.877 49.0954 209.736 49.6407 208.346 49.9876ZM201.993 23.8662V41.5118C201.993 43.6927 202.092 45.031 202.241 45.5267C202.439 46.0719 202.787 46.3197 203.432 46.3197C204.028 46.3197 204.425 46.0223 204.574 45.4275C204.772 44.8327 204.871 43.4449 204.871 41.2144V23.8662C204.871 22.1314 204.772 20.9914 204.574 20.4957C204.425 20.0496 204.028 19.8018 203.482 19.8018C202.985 19.8018 202.638 20 202.39 20.3966C202.141 20.7931 201.993 21.9331 201.993 23.8662Z" fill="#141B57"/>
<path fill-rule="evenodd" clip-rule="evenodd" d="M181.84 52.6146C181.344 52.6642 180.798 52.7138 180.252 52.7138C177.82 52.7138 175.735 52.2181 174.047 51.1772C172.31 50.1859 171.168 48.9467 170.672 47.4102C170.126 45.8736 169.828 43.6927 169.828 40.8674V38.3891H178.266V42.9988C178.266 44.3866 178.415 45.2788 178.663 45.7249C178.862 46.1215 179.309 46.3197 179.904 46.3197C180.5 46.3197 180.947 46.0719 181.244 45.5267C181.542 45.031 181.691 44.2875 181.691 43.2466C181.691 41.0161 181.393 39.5787 180.847 38.8848C180.301 38.2404 178.862 37.1004 176.628 35.4647C174.345 33.8786 172.856 32.689 172.112 31.9455C171.367 31.2516 170.771 30.2107 170.275 28.922C169.828 27.6332 169.58 25.9976 169.58 24.0149C169.58 21.0905 169.928 19.0087 170.573 17.6704C171.268 16.3321 172.36 15.2912 173.898 14.5477C175.437 13.8042 177.274 13.4077 179.408 13.4077C181.79 13.4077 183.826 13.8042 185.464 14.6469C187.102 15.4399 188.243 16.4808 188.789 17.7696C189.285 19.0087 189.583 21.1401 189.583 24.114V25.601H181.145V22.8253C181.145 21.487 181.046 20.694 180.798 20.2974C180.599 19.9505 180.252 19.8018 179.755 19.8018C179.209 19.8018 178.763 20.0496 178.515 20.4957C178.217 20.9914 178.068 21.7349 178.068 22.6766C178.068 23.9653 178.217 24.9071 178.564 25.5514C178.862 26.1958 179.706 26.9393 181.096 27.8315C185.166 30.4585 187.697 32.5403 188.739 34.2256C189.782 35.8612 190.328 38.5874 190.328 42.2553C190.328 44.9319 190.03 46.9145 189.434 48.2033C188.888 49.492 187.747 50.5329 186.059 51.3755C184.818 52.0199 183.428 52.4659 181.84 52.6146Z" fill="#141B57"/>
<path fill-rule="evenodd" clip-rule="evenodd" d="M147.89 35.762V51.9206H138.807V14.2007H147.89V28.8227L151.96 14.2007H160.448L155.286 31.2019L160.944 51.9206H151.563L147.89 35.762Z" fill="#141B57"/>
<path fill-rule="evenodd" clip-rule="evenodd" d="M135.183 14.2007V51.9206H127.191L122.476 34.7707V51.9206H114.882V14.2007H122.476L127.589 31.1524V14.2007H135.183Z" fill="#141B57"/>
<path fill-rule="evenodd" clip-rule="evenodd" d="M102.672 52.6146C102.225 52.6641 101.778 52.7137 101.332 52.7137C99.247 52.7137 97.4104 52.3172 95.7725 51.5737C94.1841 50.8302 92.9929 49.8389 92.1987 48.6493C91.4045 47.4597 90.9578 46.2205 90.8089 44.8822C90.66 43.5439 90.6104 40.7682 90.6104 36.5055V14.2007H99.6937V42.4535C99.6937 44.0892 99.7433 45.1796 99.9419 45.6257C100.091 46.0718 100.438 46.3197 100.935 46.3197C101.481 46.3197 101.878 46.0718 102.027 45.5762C102.225 45.0309 102.275 43.8413 102.275 41.9578V14.2007H111.358V39.3804C111.358 42.2552 111.308 44.2379 111.11 45.4275C110.961 46.5675 110.415 47.7571 109.571 48.9962C108.727 50.1858 107.635 51.1276 106.246 51.7719C105.203 52.218 104.012 52.5154 102.672 52.6146Z" fill="#141B57"/>
<path fill-rule="evenodd" clip-rule="evenodd" d="M87.185 39.3804C87.185 43.1474 87.185 45.5761 87.0857 46.6666C87.0361 47.7571 86.6886 48.7484 86.093 49.591C85.547 50.4832 84.7528 51.078 83.7601 51.3754C82.7178 51.7224 81.2287 51.9206 79.1936 51.9206H74.6768V45.3283C75.2228 45.3779 75.6198 45.3779 75.868 45.3779C76.5133 45.3779 77.0096 45.2292 77.4067 44.8822C77.7542 44.5353 77.9527 44.0892 78.052 43.5935C78.1016 43.0978 78.1016 42.1561 78.1016 40.7187V14.2007H87.185V39.3804Z" fill="#141B57"/>
<path fill-rule="evenodd" clip-rule="evenodd" d="M277.042 77.2989C276.546 77.7945 275.801 78.191 274.709 78.191C274.262 78.191 273.766 78.1415 273.518 78.0423V76.6049C273.766 76.704 274.064 76.7536 274.362 76.7536C275.652 76.7536 276 75.9606 276.397 75.0188L276.893 73.7301L272.128 62.3794H274.113L277.836 71.5987L281.459 62.3794H283.445L278.035 75.7127C277.836 76.1588 277.538 76.8032 277.042 77.2989Z" fill="#141B57"/>
<path fill-rule="evenodd" clip-rule="evenodd" d="M312.085 95.2419C308.362 92.02 306.029 87.3112 306.029 82.0572C306.029 81.4624 306.079 80.8676 306.128 80.2233L306.178 79.9754L305.88 78.6867L300.966 78.7363C298.236 78.7859 296.003 78.7363 296.003 78.6371C296.003 78.6371 295.159 78.6371 293.62 78.5876H287.614V62.2307H290.989L291.089 35.3658C291.138 19.7028 291.238 10.8305 291.387 8.79824L291.436 8.59998L291.387 8.55041V8.45128V8.30258V8.15388L291.486 8.00518V7.90605V7.75735L291.535 7.60866V7.50952L291.635 7.36082L291.684 7.21212L291.734 7.06342L291.833 6.96429L291.933 6.81559L292.032 6.66689L292.081 6.56776L292.23 6.46863L292.28 6.31993L292.429 6.2208L292.479 6.0721L292.627 6.02253L292.677 5.87383L292.826 5.82427L292.876 5.67557L293.025 5.57643L293.074 5.4773L293.173 5.3286L293.322 5.27903L293.372 5.13034L293.521 5.08077L293.62 4.98164L293.769 4.83294L293.918 4.78337L294.067 4.73381L294.265 4.63468L294.365 4.58511L294.514 4.53554L294.663 4.43641L294.762 4.38685L294.911 4.33728H295.06L295.209 4.23815L295.308 4.18858H295.457L295.655 4.13901H295.854L296.003 4.03988L296.201 3.99031H296.35H296.499H296.598H296.747H296.896H296.995L297.144 4.03988L297.244 3.99031L314.467 3.94074C326.38 3.84161 332.237 3.94075 333.229 4.13901C333.974 4.33728 334.867 4.48597 335.165 4.53554C335.413 4.53554 335.562 4.63467 335.513 4.78337H335.662L335.811 4.83294H335.959L336.059 4.93207L336.208 4.98164H336.357L336.456 5.08077L336.605 5.13034L336.754 5.27903L336.903 5.3286L337.002 5.4773L337.051 5.57643L337.151 5.626L337.2 5.67557L337.25 5.72513L337.647 6.02253C337.995 6.31993 338.342 6.66689 338.789 7.06342C338.938 7.21212 339.087 7.36082 339.235 7.45995L339.335 7.55909L339.434 7.70779C339.682 8.15388 340.03 8.55041 340.377 8.94694L340.725 9.29391L341.668 10.8305L342.362 11.8218L342.462 12.0696C343.008 13.2096 343.901 14.3497 344.199 14.7958C344.795 15.688 345.44 16.6793 346.085 17.4228L346.532 17.9184L348.071 20.1489C348.418 20.595 348.765 21.0907 349.063 21.4872L349.311 21.8342L349.361 21.8837C349.361 21.9829 349.411 22.082 349.46 22.1316L349.51 22.2803C349.56 22.429 349.659 22.5281 349.709 22.6272L349.808 22.7264L350.106 23.1725C350.304 23.4203 350.552 23.6681 350.701 23.8168L350.85 23.9655L350.949 24.1638C350.999 24.2629 351.049 24.3125 351.148 24.4116L351.297 24.5603L351.446 24.9073C351.843 25.6012 352.736 26.9395 353.828 28.4761C355.218 30.4587 356.36 32.144 356.36 32.144C356.36 32.1935 357.005 33.1353 357.75 34.2257C359.04 36.0597 359.189 36.4067 359.189 37.9432C359.189 39.4302 359.239 39.678 359.735 39.5789C360.033 39.5293 360.182 39.1824 360.281 36.7536V35.911V35.8614C359.536 35.2171 358.99 33.631 358.99 31.7474V22.7759C358.99 20.3472 359.934 18.315 361.125 18.315H365.443C366.634 18.315 367.577 20.3472 367.577 22.7759V31.7474C367.577 34.2257 366.634 36.2084 365.443 36.2084H364.103L363.954 36.3571C363.855 36.6049 363.855 37.1006 363.805 38.0424C363.805 39.0832 363.755 40.1241 363.755 40.3224C363.706 41.0163 361.969 42.3051 360.579 42.652L359.189 42.999V57.2741C359.189 66.3943 359.04 72.0944 358.842 73.0362C358.643 73.8788 358.544 74.5727 358.593 74.6223C358.643 74.6718 358.395 75.0188 357.998 75.4153C357.601 75.8119 357.303 76.2084 357.303 76.3075C357.303 76.4562 356.856 76.8032 356.26 77.1997C355.268 77.7945 353.828 78.4885 353.282 78.4885C352.836 78.538 350.255 78.5876 347.574 78.5876L342.66 78.6371V78.8354L342.76 79.3311C342.859 80.2233 342.958 81.165 342.958 82.0572C342.958 91.9209 334.669 99.9011 324.494 99.9011C319.729 99.9011 315.361 98.1167 312.085 95.2419ZM328.762 82.0572C328.762 84.4364 326.876 86.3695 324.494 86.3695C322.111 86.3695 320.225 84.4364 320.225 82.0572C320.225 79.678 322.111 77.7945 324.494 77.7945C326.876 77.7945 328.762 79.678 328.762 82.0572ZM348.865 39.678C348.865 42.8007 348.765 44.3373 348.468 44.5851C347.922 45.0808 347.227 45.0312 344.199 44.1886C342.71 43.792 338.541 42.7512 334.917 41.859C331.343 40.9668 326.777 39.8267 324.791 39.3311C322.806 38.8354 320.423 38.2406 319.53 37.9928C318.587 37.745 317.793 37.3484 317.594 37.0015C317.396 36.6545 317.247 32.3918 317.247 25.4525C317.247 15.4401 317.296 14.4488 317.793 13.854C318.339 13.2592 318.686 13.2592 326.38 13.1601C330.797 13.1105 334.371 13.1601 334.371 13.2592C334.321 13.3088 334.57 13.7053 334.867 14.1018C335.215 14.5479 335.91 15.5393 336.456 16.3819C336.605 16.5802 336.754 16.7784 336.903 16.9767L337.101 17.2245L337.349 17.7202C337.945 18.7611 338.789 19.9507 339.732 21.2889L340.228 22.082L340.873 23.0238L341.916 24.6595L342.164 25.0064L342.611 25.7499L342.66 25.8986C342.71 25.9977 342.76 26.0969 342.859 26.196L342.958 26.2951L343.008 26.3943C343.256 26.9395 343.206 26.9395 344.546 28.5752L344.993 29.17L345.142 29.3683C345.539 30.0622 346.085 30.9544 346.681 31.8466L348.865 35.1179V39.678ZM310.844 48.253C310.844 48.9469 309.702 49.4922 308.312 49.4922H303.25C301.81 49.4922 300.718 48.9469 300.718 48.253V45.8243C300.718 45.1799 301.81 44.6347 303.25 44.6347H308.312C309.156 44.6347 309.95 44.8329 310.397 45.1799C310.695 45.3782 310.844 45.5764 310.844 45.8243V48.253ZM312.73 36.7536V36.8032C311.985 37.9928 310.993 38.7859 309.901 38.7859H301.959C301.115 38.7859 300.371 38.3398 299.725 37.6458L299.676 37.5963L299.576 37.5467C299.477 37.5467 299.477 37.4971 299.428 37.4971V37.2989V37.2493C298.534 36.0101 297.938 34.1762 297.938 32.0944V18.7115C297.938 15.0436 299.725 12.0201 301.959 12.0201H309.901C312.085 12.0201 313.872 15.0436 313.872 18.7115V32.0944C313.872 33.6805 313.524 35.1675 312.978 36.3075L312.73 36.7536ZM312.482 82.0572C312.482 88.4513 317.892 93.6557 324.494 93.6557C331.145 93.6557 336.505 88.4513 336.505 82.0572C336.505 75.6632 331.145 70.4587 324.494 70.4587C317.892 70.4587 312.482 75.6632 312.482 82.0572ZM336.754 59.4054C339.285 61.0411 341.668 63.1229 342.859 64.8577C343.703 66.1464 345.738 70.0622 345.738 70.4587C345.738 70.5083 345.787 70.6074 345.837 70.657V70.8057C345.837 71.0535 345.936 71.3509 346.036 71.5492L346.184 71.7474V72.1935C346.234 72.5405 346.284 72.9866 346.383 73.3831L346.78 75.4153H349.758C353.233 75.3658 354.325 74.9693 355.168 73.3336C355.714 72.4414 355.715 70.9048 355.715 54.8453C355.715 39.7772 355.665 36.5058 355.069 35.9606H355.02V35.911C354.92 35.7623 354.821 35.6136 354.672 35.5145L354.523 35.4153L354.474 35.2171C354.374 35.0684 354.225 34.8701 354.076 34.6719C353.779 34.2753 352.736 32.7883 351.793 31.45C351.347 30.7561 350.9 30.1118 350.503 29.7152L350.255 29.4178L350.205 29.3187C350.155 29.17 350.106 29.0709 350.056 28.9717L349.957 28.9222V28.7735C349.857 28.5256 349.709 28.2778 349.46 28.1291L349.311 27.8317C349.163 27.5839 349.014 27.2865 348.765 26.9395C348.17 26.0969 346.979 24.4116 346.135 23.1725C345.787 22.6768 345.49 22.2803 345.192 21.9333L345.092 21.7846L345.043 21.6855L344.795 21.2394C344.745 20.8924 344.596 20.5455 344.298 20.3472H344.249L343.355 18.9098C342.908 18.1663 341.965 16.5802 340.973 15.6384L340.873 15.5888L340.824 15.4401C340.725 15.2914 340.625 15.0932 340.476 14.9445C339.285 13.2592 338.491 12.1688 337.746 11.0287C336.555 9.14521 335.116 8.00518 333.478 7.50952C331.294 6.91472 302.952 6.86516 298.038 7.41039C297.74 7.41039 297.492 7.45995 297.393 7.50952C296.052 8.05475 294.861 9.29391 294.514 10.4339C294.414 10.8305 294.365 16.7784 294.365 24.8577C294.365 27.5839 294.365 30.5083 294.365 33.5318L294.464 55.7871H309.851C327.075 55.7871 329.308 55.9358 333.279 57.5715C334.421 58.0671 335.612 58.7115 336.754 59.4054Z" fill="#141B57"/>
<path fill-rule="evenodd" clip-rule="evenodd" d="M261.307 64.2131C262.101 62.8253 263.64 62.1313 265.129 62.1313C267.76 62.1313 269.497 63.6183 269.497 66.4436V73.6803H267.661V66.6914C267.661 64.5105 266.469 63.5688 264.732 63.5688C262.846 63.5688 261.307 65.0062 261.307 67.088V73.6803H259.471V62.3792H261.307V64.2131L261.158 64.461L261.307 64.6592V64.2131Z" fill="#141B57"/>
<path fill-rule="evenodd" clip-rule="evenodd" d="M253.515 65.5018C253.515 64.3618 252.274 63.5688 250.586 63.5688C248.948 63.5688 247.658 64.3618 247.559 65.5514H245.672C245.772 63.5688 247.856 62.1313 250.686 62.1313C253.316 62.1313 255.351 63.3705 255.351 65.6506V71.5985C255.351 72.0942 255.55 72.342 256.046 72.342C256.245 72.342 256.394 72.342 256.493 72.2924V73.6307C256.344 73.7299 255.997 73.7794 255.6 73.7794C254.557 73.7794 253.813 73.2342 253.713 71.9455V71.6976L253.862 71.4498L253.713 71.4002V71.6976L253.565 71.8959C252.721 72.9864 251.232 73.9281 249.097 73.9281C246.963 73.9281 245.275 72.8872 245.275 70.9046C245.275 68.6741 247.41 67.9306 249.594 67.5341C251.827 67.088 253.515 66.8401 253.515 65.5018ZM253.515 67.2862C252.721 68.1289 251.629 68.3767 249.842 68.7732C248.005 69.1698 247.162 69.6654 247.162 70.7559C247.162 72.0942 248.254 72.4907 249.345 72.4907C250.934 72.4907 252.621 71.6976 253.515 70.1115V67.2862Z" fill="#141B57"/>
<path fill-rule="evenodd" clip-rule="evenodd" d="M231.873 78.1908V62.3792H233.66V64.3618L233.61 64.4114C233.561 64.5105 233.511 64.6097 233.461 64.7088H233.66V64.3618L233.809 64.114C234.603 62.8748 236.042 62.1313 237.73 62.1313C240.907 62.1313 242.942 64.7584 242.942 67.9802C242.942 71.4994 240.708 73.9281 237.631 73.9281C235.894 73.9281 234.553 73.0855 233.858 72.0446L233.71 71.7968V71.5489H233.561L233.71 71.7968V78.1908H231.873ZM233.71 67.9306V68.228C233.71 70.4585 235.149 72.4907 237.432 72.4907C239.815 72.4907 241.056 70.4089 241.056 68.0297C241.056 65.601 239.765 63.5688 237.432 63.5688C235.05 63.5688 233.71 65.601 233.71 67.9306Z" fill="#141B57"/>
<path fill-rule="evenodd" clip-rule="evenodd" d="M212.466 64.6592V64.2131L212.615 63.9653C213.409 62.7261 214.699 62.1313 216.089 62.1313C217.777 62.1313 219.117 62.6766 219.762 63.9157L219.861 64.0644H219.911H219.961L220.06 63.9157C220.854 62.7261 222.145 62.1313 223.634 62.1313C226.314 62.1313 228.002 63.5688 228.002 66.0471V73.6803H226.115V66.3445C226.115 64.4114 225.123 63.5688 223.336 63.5688C221.996 63.5688 220.606 64.4114 220.258 66.2949V66.0471V65.9975L220.209 66.0471V66.0967L220.258 66.2949V73.6803H218.422V66.5923C218.422 64.5105 217.429 63.5688 215.692 63.5688C213.855 63.5688 212.515 65.1549 212.515 67.0384V73.6803H210.679V62.3792H212.466V64.2131C212.416 64.3123 212.366 64.4114 212.317 64.5105L212.466 64.6592Z" fill="#141B57"/>
<path fill-rule="evenodd" clip-rule="evenodd" d="M197.624 72.2924C196.582 71.2515 196.036 69.7646 196.036 68.0297C196.036 64.5105 198.319 62.1313 201.794 62.1313C203.481 62.1313 204.921 62.7261 205.914 63.767C206.956 64.8079 207.502 66.2453 207.502 68.0297C207.502 71.5489 205.219 73.9281 201.794 73.9281C200.057 73.9281 198.617 73.3333 197.624 72.2924ZM197.873 68.0297C197.873 70.6567 199.461 72.4907 201.794 72.4907C204.127 72.4907 205.665 70.6567 205.665 68.0297C205.665 65.4027 204.127 63.5688 201.794 63.5688C199.461 63.5688 197.873 65.4027 197.873 68.0297Z" fill="#141B57"/>
<path fill-rule="evenodd" clip-rule="evenodd" d="M180.55 65.8491C180.55 69.4674 182.684 72.4414 186.457 72.4414C189.336 72.4414 191.42 70.657 191.917 68.2282H193.803C193.058 71.7474 190.428 73.9284 186.407 73.9284C181.394 73.9284 178.614 70.4587 178.614 65.8986C178.614 61.1403 181.692 57.9185 186.556 57.9185C190.13 57.9185 192.86 59.6533 193.753 62.7759H191.867C191.073 60.595 189.236 59.4054 186.606 59.4054C182.635 59.4054 180.55 62.2803 180.55 65.8491Z" fill="#141B57"/>
<path fill-rule="evenodd" clip-rule="evenodd" d="M169.431 73.6805H167.595V58.1167H169.431V73.6805Z" fill="#141B57"/>
<path fill-rule="evenodd" clip-rule="evenodd" d="M161.639 65.5018C161.639 64.3618 160.448 63.5688 158.71 63.5688C157.122 63.5688 155.782 64.3618 155.683 65.5514H153.797C153.896 63.5688 155.98 62.1313 158.81 62.1313C161.44 62.1313 163.475 63.3705 163.475 65.6506V71.5985C163.475 72.0942 163.674 72.342 164.17 72.342C164.369 72.342 164.518 72.342 164.617 72.2924V73.6307C164.468 73.7299 164.121 73.7794 163.724 73.7794C162.681 73.7794 161.937 73.2342 161.837 71.9455V71.6976L161.986 71.4498L161.837 71.4002V71.6976L161.689 71.8959C160.845 72.9864 159.356 73.9281 157.221 73.9281C155.087 73.9281 153.399 72.8872 153.399 70.9046C153.399 68.6741 155.534 67.9306 157.718 67.5341C159.951 67.088 161.639 66.8401 161.639 65.5018ZM161.639 67.2862C160.845 68.1289 159.753 68.3767 157.966 68.7732C156.129 69.1698 155.286 69.6654 155.286 70.7559C155.286 72.0942 156.378 72.4907 157.47 72.4907C159.058 72.4907 160.746 71.6976 161.639 70.1115V67.2862Z" fill="#141B57"/>
<path fill-rule="evenodd" clip-rule="evenodd" d="M128.482 72.2924C127.489 71.2515 126.894 69.7646 126.894 68.0297C126.894 64.5105 129.226 62.1313 132.651 62.1313C136.126 62.1313 138.409 64.5105 138.409 68.0297C138.409 69.7646 137.813 71.2515 136.821 72.2924C135.828 73.3333 134.389 73.9281 132.651 73.9281C130.964 73.9281 129.524 73.3333 128.482 72.2924ZM128.78 68.0297C128.78 70.6567 130.318 72.4907 132.651 72.4907C134.984 72.4907 136.523 70.6567 136.523 68.0297C136.523 65.4027 134.984 63.5688 132.651 63.5688C130.318 63.5688 128.78 65.4027 128.78 68.0297Z" fill="#141B57"/>
<path fill-rule="evenodd" clip-rule="evenodd" d="M115.924 63.9157C116.718 62.7261 118.009 62.1313 119.498 62.1313C122.178 62.1313 123.816 63.5688 123.816 66.0471V73.6803H121.98V66.3445C121.98 64.4114 120.987 63.5688 119.2 63.5688C117.86 63.5688 116.47 64.4114 116.123 66.2949V66.0471V65.7992H116.073L116.023 65.8984L116.123 66.2949V73.6803H114.286V66.5923C114.286 64.5105 113.293 63.5688 111.556 63.5688C109.72 63.5688 108.379 65.1549 108.379 67.0384V73.6803H106.543V62.3792H108.33V64.2131C108.28 64.3123 108.231 64.4114 108.181 64.5105L108.33 64.6592V64.2131L108.479 63.9653C109.273 62.7261 110.563 62.1313 111.953 62.1313C113.641 62.1313 114.981 62.6766 115.626 63.9157L115.775 64.2131L115.924 63.9157Z" fill="#141B57"/>
<path fill-rule="evenodd" clip-rule="evenodd" d="M94.0346 68.3767C94.0842 70.5081 95.474 72.4907 98.0055 72.4907C99.6434 72.4907 100.984 71.7472 101.43 70.4585H103.217C102.721 72.5403 100.636 73.9281 97.9558 73.9281C94.2331 73.9281 92.1484 71.202 92.1484 67.9802C92.1484 64.6592 94.3324 62.1313 97.8565 62.1313C101.182 62.1313 103.416 64.4114 103.416 67.6828V68.3767H94.0346ZM101.53 67.088C101.43 65.0558 99.9909 63.5688 97.8565 63.5688C95.6229 63.5688 94.2331 65.2045 94.0842 67.088H101.53Z" fill="#141B57"/>
<path fill-rule="evenodd" clip-rule="evenodd" d="M78.5981 67.0386V73.6805H76.7119V58.2158H83.9091C86.9369 58.2158 89.1705 60.0993 89.1705 62.5776C89.1705 64.2133 88.1778 65.6012 86.5894 66.2951L86.242 66.196V66.3943L86.5894 66.2951C88.277 66.8404 88.9223 68.0299 88.9223 69.4674V71.9457C88.9223 72.59 89.1208 73.1353 89.4683 73.6805H87.4332C87.1851 73.284 87.0362 72.6892 87.0362 71.9952V69.4674C87.0362 68.0299 85.9938 67.0386 83.8595 67.0386H78.5981ZM78.5981 65.5516H83.8595C85.8945 65.5516 87.2843 64.2629 87.2843 62.6272C87.2843 60.942 85.8449 59.6532 83.8595 59.6532H78.5981V65.5516Z" fill="#141B57"/>
<path fill-rule="evenodd" clip-rule="evenodd" d="M44.25 73.6803V62.3792H46.0369V64.2131L45.9873 64.3123H46.0369V64.2131H46.0865C46.8311 62.8253 48.4194 62.1313 49.9085 62.1313C50.9012 62.1313 51.745 62.3296 52.4399 62.7261C53.5815 63.4201 54.2764 64.7088 54.2764 66.4436V73.6803H52.4399V66.6914C52.4399 64.5105 51.2486 63.5688 49.5114 63.5688C48.2209 63.5688 47.0792 64.2627 46.4836 65.3532C46.2354 65.8488 46.0865 66.4436 46.0865 67.088V73.6803H44.25Z" fill="#141B57"/>
<path fill-rule="evenodd" clip-rule="evenodd" d="M24.6439 73.0361C23.8497 73.6309 22.7577 73.9283 21.4672 73.9283C18.5883 73.9283 16.7021 72.3422 16.7021 69.7648V68.823H18.5883V69.7152C18.5883 71.45 19.7796 72.4909 21.4672 72.4909C23.3037 72.4909 24.3957 71.3509 24.3957 69.6161V58.2158H26.2818V69.5169C26.2818 71.0535 25.6862 72.2431 24.6439 73.0361Z" fill="#141B57"/>
<path fill-rule="evenodd" clip-rule="evenodd" d="M40.2794 62.3794V73.6805H38.4925V71.8466L38.3436 72.0944C37.599 73.2344 36.2589 73.9283 34.6705 73.9283C32.0398 73.9283 30.2529 72.4413 30.2529 69.6656V62.3794H32.0895V69.3682C32.0895 71.5492 33.2807 72.4909 35.0676 72.4909C36.1596 72.4909 37.053 71.9953 37.6983 71.2518L37.7479 71.1031V71.0535L37.8472 70.9048L37.9465 70.8552L38.0457 70.7065C38.2939 70.2109 38.4428 69.6656 38.4428 69.0708V62.3794H40.2794Z" fill="#141B57"/>
</g>
<defs>
<clipPath id="clip0_518_534">
<rect width="367.429" height="100" fill="white"/>
</clipPath>
</defs>
</svg>
