<svg width="177" height="48" viewBox="0 0 177 48" fill="none" xmlns="http://www.w3.org/2000/svg">
<g clip-path="url(#clip0_606_519)">
<path fill-rule="evenodd" clip-rule="evenodd" d="M70.2008 34.058C70.2723 33.8677 70.3438 33.6535 70.4152 33.4632L71.7971 29.942H72.7501L70.5582 35.3665H69.5337L67.3418 29.942H68.2948L69.6767 33.4632C69.7481 33.6535 69.8196 33.8677 69.9149 34.058L70.0579 34.4625L70.034 34.5338L70.0579 34.4863V34.4625L70.2008 34.058Z" fill="#2962FF"/>
<path fill-rule="evenodd" clip-rule="evenodd" d="M14.4021 14.1918C14.3544 14.2394 14.3306 14.2394 14.2591 14.2156C14.2353 14.1918 14.2115 14.168 14.1877 14.168C14.1877 14.168 14.14 14.1443 14.1162 14.1205C14.0209 14.0729 13.9732 14.0491 13.9018 14.0015C13.8779 14.0015 13.8303 13.9777 13.8303 13.9777C13.8303 13.9539 13.6635 13.8826 13.6397 13.8826V13.8588C13.6159 13.8588 13.6159 13.835 13.6159 13.835C13.592 13.835 13.5682 13.835 13.5444 13.8112C13.4967 13.7874 13.4729 13.7636 13.4491 13.7636C13.4491 13.7636 13.4491 13.7636 13.4253 13.7398C13.4253 13.7398 13.4014 13.7398 13.3776 13.716C13.3776 13.716 13.3061 13.6684 13.2585 13.6446C13.187 13.6208 13.1155 13.5733 13.1155 13.5733C13.0917 13.5733 13.0441 13.5257 12.9964 13.5019C12.9488 13.4781 12.9011 13.4543 12.8535 13.4305C12.8058 13.4067 12.782 13.3829 12.7582 13.3591C12.7343 13.3591 12.7105 13.3353 12.6867 13.3353C12.6629 13.3353 12.639 13.3115 12.5199 13.2402C12.4723 13.2164 12.4008 13.145 12.377 13.1212C12.377 13.0736 12.377 12.9309 12.377 12.8833C12.4008 12.8833 12.4008 12.8595 12.4246 12.8357C12.4246 12.8119 12.4484 12.7881 12.4723 12.7405C12.4961 12.7167 12.5676 12.6454 12.639 12.574C12.7582 12.455 12.8296 12.4075 12.9488 12.3599C12.9726 12.3361 12.9964 12.3123 13.0202 12.3123C13.0202 12.2885 13.0441 12.2885 13.0441 12.2885C13.0441 12.2885 13.0679 12.2885 13.1155 12.2647C13.1394 12.2647 13.1632 12.2409 13.187 12.2409H13.2108C13.2347 12.2171 13.3538 12.1933 13.5206 12.1933C13.592 12.1695 13.6635 12.1695 13.735 12.1695C13.8779 12.1933 14.0209 12.2171 14.0209 12.2409C14.0447 12.2409 14.0447 12.2409 14.0685 12.2409C14.0924 12.2409 14.1638 12.2647 14.283 12.3361C14.3306 12.3599 14.3783 12.3599 14.3783 12.3599L14.4021 12.3837C14.4021 12.3837 14.4021 12.3837 14.4021 12.3599C14.4021 12.3599 14.3783 12.3361 14.3783 12.3123C14.3783 12.2647 14.3544 12.2171 14.3544 12.1933C14.3306 12.122 14.3068 12.0506 14.3068 12.003C14.283 11.9554 14.283 11.9078 14.2591 11.9078C14.2591 11.884 14.2591 11.8365 14.2591 11.8127L14.2353 11.7651C14.2115 11.7413 14.2115 11.7175 14.2115 11.6937C14.2115 11.6937 14.2115 11.6461 14.1877 11.5985C14.1638 11.5272 14.14 11.4558 14.1162 11.3606C14.0924 11.2654 14.0924 11.2179 14.0685 11.1465C14.0447 11.0751 14.0209 10.9562 14.0209 10.9086C14.0447 10.861 14.0924 10.7896 14.14 10.742C14.14 10.742 14.1877 10.7182 14.2353 10.6944C14.283 10.6707 14.3068 10.6707 14.6642 10.6707C14.8786 10.6707 15.093 10.6707 15.1168 10.6944C15.1645 10.6944 15.236 10.6944 15.3074 10.7182C15.3551 10.7182 15.4266 10.7182 15.4266 10.742C15.4266 10.742 15.4504 10.742 15.4981 10.742C15.5219 10.742 15.5457 10.7658 15.5695 10.7658C15.5933 10.7896 15.6172 10.7896 15.6172 10.7896C15.6648 10.7896 15.9746 10.9324 15.9984 10.9562C16.0222 10.9799 16.0222 10.9799 16.046 10.9799L16.0699 11.0037C16.1652 11.0513 16.189 11.0989 16.2128 11.1227L16.2605 11.1465V12.3599C16.2605 13.1926 16.2605 13.597 16.2605 13.597C16.2843 13.597 16.2843 13.6208 16.3081 13.6446C16.3081 13.6684 16.3319 13.6922 16.3558 13.6922C16.3796 13.716 16.4511 13.7636 16.4511 13.7874C16.4511 13.7874 16.2366 13.7874 15.9746 13.7874C15.4504 13.7636 15.1883 13.7874 15.0692 13.8112C15.0454 13.835 14.9977 13.835 14.9977 13.835C14.9739 13.835 14.9501 13.8588 14.9501 13.8588C14.9262 13.8588 14.8786 13.8826 14.8548 13.9063C14.8071 13.9063 14.7833 13.9301 14.7595 13.9301C14.6642 13.9777 14.6403 14.0015 14.545 14.0729C14.4974 14.0967 14.4259 14.168 14.4021 14.1918Z" fill="#2962FF"/>
<path fill-rule="evenodd" clip-rule="evenodd" d="M17.9284 15.0483C17.9284 15.1197 17.9284 15.1911 17.9046 15.2149C17.9046 15.2387 17.8807 15.2862 17.8807 15.2862C17.8807 15.3338 17.7854 15.4766 17.7854 15.5004C17.7616 15.5004 17.7616 15.5004 17.7616 15.5242C17.7616 15.5242 17.6187 15.6669 17.5234 15.7145C17.4519 15.7621 17.4042 15.7859 17.2613 15.8097C17.166 15.8335 17.166 15.8335 16.2606 15.8335C15.7603 15.8335 15.3315 15.8335 15.3076 15.8335C15.117 15.7859 15.0456 15.7621 14.9264 15.6669C14.8311 15.6193 14.7358 15.5242 14.712 15.4528C14.6167 15.31 14.5929 15.2387 14.5929 15.0721C14.5691 14.9532 14.5929 14.9294 14.6167 14.858C14.6167 14.8104 14.6405 14.7628 14.6405 14.7628C14.6644 14.739 14.6644 14.7152 14.6644 14.7152C14.6644 14.6677 14.9026 14.4297 14.9741 14.4059L14.9979 14.3822C14.9979 14.3822 15.0932 14.3346 15.117 14.3346C15.1409 14.3346 15.1647 14.3346 15.1647 14.3108C15.2123 14.287 15.3315 14.287 16.3559 14.287C17.2375 14.287 17.3089 14.287 17.3328 14.3108C17.3566 14.3346 17.3804 14.3346 17.4042 14.3346C17.4042 14.3346 17.4281 14.3584 17.4757 14.3584C17.4995 14.3822 17.5472 14.4059 17.5472 14.4059C17.5948 14.4297 17.7854 14.5963 17.8093 14.6439C17.8093 14.6677 17.8331 14.6915 17.8331 14.6915C17.8569 14.739 17.8807 14.7866 17.9046 14.858C17.9046 14.9056 17.9284 14.977 17.9284 15.0483Z" fill="#2962FF"/>
<path fill-rule="evenodd" clip-rule="evenodd" d="M26.6964 1.29663C26.8156 1.22526 27.0538 1.13009 27.1253 1.13009C27.1491 1.13009 27.1729 1.13009 27.1968 1.1063C27.2206 1.1063 27.2921 1.0825 27.3874 1.05871C27.4588 1.03492 27.6018 1.01113 27.6495 1.01113C27.7924 0.987338 28.1974 0.987338 28.3166 1.01113C28.6501 1.05871 28.6978 1.05871 28.7454 1.08251C28.7692 1.1063 28.7931 1.1063 28.8169 1.1063C28.8884 1.1063 29.0313 1.15388 29.2219 1.24905C29.2934 1.27284 29.3649 1.32042 29.3649 1.32042C29.3649 1.32042 29.4125 1.32042 29.4363 1.34421C29.4602 1.36801 29.5555 1.41559 29.6508 1.48697C29.8652 1.60593 29.8652 1.62972 30.5085 2.2483C30.7944 2.53381 31.0564 2.79552 31.0803 2.8431C31.1517 2.93827 31.1517 3.10481 31.1041 3.22377C31.0326 3.34273 30.9373 3.4141 30.6991 3.55685C30.1987 3.81856 30.0558 3.88994 29.9128 3.96131C29.889 3.98511 29.8175 4.03269 29.7461 4.08027C29.6746 4.12786 29.5555 4.19924 29.5078 4.24682C29.4363 4.2944 29.3887 4.34199 29.3649 4.36578C29.2219 4.46095 28.5786 5.10332 28.4595 5.29366C28.4595 5.29366 28.4119 5.36504 28.3404 5.43641C28.2213 5.60295 28.1974 5.60295 28.0783 5.53158C28.0068 5.50778 27.8877 5.4602 27.7924 5.43641C27.7448 5.41262 27.6733 5.41262 27.6256 5.38882C27.4827 5.34124 27.0538 5.31745 26.7203 5.34124C26.5297 5.34124 26.3867 5.34124 26.3867 5.34124C26.3867 5.31745 26.4582 5.24608 26.5297 5.19849C26.5535 5.15091 26.5773 5.12712 26.5773 5.12712C26.5773 5.10332 26.6011 5.07953 26.625 5.05574C26.6488 5.03195 26.6488 4.79403 26.625 3.22377C26.625 2.20072 26.625 1.36801 26.625 1.36801C26.625 1.34422 26.6488 1.32042 26.6964 1.29663Z" fill="#2962FF"/>
<path fill-rule="evenodd" clip-rule="evenodd" d="M27.9346 35.3665V27.8959H28.8161V32.4401L28.7446 32.4877V32.5115L28.8161 32.5353V32.4401L31.6513 29.942H32.7949L30.5553 31.9405V31.9881V32.0119L32.8426 35.3665H31.8181L29.9121 32.5829H29.8168L28.8161 33.4632V33.487V35.3665H27.9346Z" fill="#2962FF"/>
<path fill-rule="evenodd" clip-rule="evenodd" d="M22.7649 6.1502C22.7173 6.19778 22.6696 6.17399 22.5743 6.1264C22.5505 6.10261 22.5028 6.07882 22.479 6.07882C22.4552 6.05503 22.3837 6.03124 22.3361 5.98365C22.1693 5.88848 22.1216 5.8647 22.0025 5.79332C21.9549 5.76953 21.9072 5.74574 21.9072 5.72194C21.8834 5.69815 21.6213 5.5554 21.5975 5.5554C21.5737 5.5554 21.5737 5.5554 21.5498 5.53161C21.5498 5.50782 21.526 5.50782 21.526 5.50782C21.5022 5.50782 21.4545 5.48403 21.4069 5.43644C21.3354 5.41265 21.2878 5.36507 21.2878 5.36507C21.2639 5.36507 21.2639 5.36507 21.2401 5.34127C21.2163 5.34127 21.1925 5.31748 21.1686 5.29369C21.1448 5.29369 21.0257 5.22232 20.9304 5.17473C20.8351 5.10336 20.7398 5.05577 20.716 5.03198C20.6921 5.03198 20.5968 4.9844 20.5254 4.93681C20.4777 4.88923 20.3586 4.84164 20.2871 4.79406C20.2395 4.77027 20.168 4.72269 20.1442 4.6989C20.0965 4.6751 20.0727 4.65131 20.0489 4.65131C20.0012 4.62752 19.9536 4.57994 19.7868 4.48477C19.6677 4.43719 19.5724 4.31823 19.5247 4.24685C19.5009 4.19927 19.5009 3.93756 19.5247 3.86618C19.5485 3.84239 19.5724 3.79481 19.5962 3.77102C19.5962 3.74722 19.6438 3.67585 19.6677 3.62826C19.7153 3.55689 19.8344 3.41414 19.9297 3.31897C20.1203 3.10484 20.2395 3.00968 20.4062 2.91451C20.4539 2.89072 20.5254 2.86692 20.5254 2.84313C20.5492 2.84313 20.573 2.81934 20.573 2.81934C20.5968 2.81934 20.6445 2.79555 20.6921 2.77176C20.716 2.74796 20.7636 2.74797 20.8113 2.74797C20.8351 2.74797 20.8589 2.72417 20.8589 2.72417C20.8827 2.70038 21.0972 2.6528 21.3592 2.60521C21.4784 2.60521 21.5737 2.60521 21.6928 2.60521C21.931 2.6528 22.1455 2.67659 22.1693 2.70038C22.1931 2.72417 22.2169 2.72417 22.2169 2.72417C22.2646 2.72417 22.3837 2.77176 22.5743 2.86693C22.6458 2.89072 22.7173 2.9383 22.7411 2.9383H22.7649C22.7649 2.91451 22.7411 2.86693 22.7411 2.81934C22.7173 2.77176 22.7173 2.67659 22.6935 2.62901C22.6458 2.51005 22.622 2.39109 22.5981 2.27213C22.5743 2.22455 22.5743 2.15317 22.5505 2.10559C22.5267 2.058 22.5267 2.01042 22.5267 1.98663C22.5267 1.93904 22.5028 1.89146 22.479 1.86767C22.479 1.84388 22.4552 1.79629 22.4552 1.7725C22.4552 1.74871 22.4314 1.67733 22.4314 1.60596C22.3837 1.46321 22.3361 1.34425 22.3122 1.2015C22.2646 1.01116 22.2408 0.915994 22.2169 0.820827C22.1693 0.678076 22.1455 0.487741 22.1455 0.392574C22.1693 0.297406 22.2408 0.154656 22.3122 0.107072C22.3361 0.0832805 22.4075 0.0356961 22.4552 0.0356961C22.5505 -0.0118875 22.5982 -0.0118868 23.17 -0.0118868C23.5035 -0.0356786 23.8371 -0.0118868 23.9085 -0.0118868C23.98 -0.0118868 24.0991 0.0119065 24.1944 0.0119065C24.2897 0.0356983 24.3612 0.0356976 24.385 0.0594894C24.4089 0.0594894 24.4565 0.0832827 24.5042 0.0832827C24.5518 0.0832827 24.5995 0.107074 24.6233 0.130866C24.6709 0.130866 24.6948 0.154655 24.7186 0.154655C24.7662 0.154655 25.2904 0.416368 25.338 0.44016C25.338 0.463952 25.3619 0.487743 25.3857 0.487743C25.3857 0.487743 25.4095 0.511533 25.4572 0.511533C25.5763 0.6067 25.6239 0.654284 25.6954 0.701868L25.7431 0.773244L25.7669 2.89071C25.7907 4.31822 25.7907 5.03198 25.8145 5.03198C25.8145 5.03198 25.8384 5.07956 25.8622 5.10336C25.8622 5.12715 25.9098 5.17473 25.9337 5.19852C25.9813 5.24611 26.1004 5.34127 26.1004 5.34127C26.1004 5.34127 25.7431 5.34127 25.3142 5.34127C24.4803 5.36507 24.0753 5.38886 23.8847 5.43644C23.8371 5.46024 23.7656 5.48403 23.7418 5.48403C23.7418 5.48403 23.6941 5.48402 23.6703 5.50782C23.6465 5.53161 23.575 5.5554 23.5273 5.57919C23.4797 5.60298 23.4082 5.62677 23.4082 5.62677C23.2414 5.74573 23.17 5.76953 23.0508 5.88849C22.9555 5.95986 22.8602 6.05503 22.8126 6.10261C22.7888 6.1264 22.7888 6.12641 22.7649 6.1502Z" fill="#2962FF"/>
<path fill-rule="evenodd" clip-rule="evenodd" d="M28.5066 7.53011C28.5066 7.64907 28.5066 7.76803 28.4827 7.8394C28.4589 7.86319 28.4351 7.93457 28.4351 7.95836C28.4113 8.02974 28.2921 8.29145 28.2683 8.29145C28.2445 8.31524 28.2445 8.33903 28.2445 8.33903C28.2445 8.38662 28.0062 8.60074 27.8871 8.69591C27.7442 8.76729 27.6727 8.81487 27.4582 8.86245C27.2915 8.91004 27.2915 8.91004 25.8381 8.93383C25.0281 8.93383 24.3372 8.93383 24.3133 8.93383C24.0036 8.86245 23.8606 8.81487 23.67 8.67212C23.5509 8.57695 23.3841 8.41041 23.3127 8.31524C23.1697 8.05353 23.1221 7.91078 23.1221 7.64907C23.1221 7.43494 23.1221 7.38736 23.1459 7.2684C23.1697 7.19702 23.1935 7.10186 23.2174 7.07806C23.2412 7.05427 23.2412 7.00669 23.2412 7.00669C23.2412 6.93531 23.6224 6.48327 23.7177 6.45948C23.7415 6.45948 23.7653 6.43569 23.7653 6.43569C23.7892 6.41189 23.9321 6.34052 23.9798 6.34052C23.9798 6.34052 24.0274 6.31673 24.0512 6.29293C24.1227 6.24535 24.3372 6.24535 25.9573 6.22156C27.3629 6.22156 27.4821 6.22156 27.5535 6.26914C27.5774 6.26914 27.625 6.29293 27.625 6.29293C27.6488 6.29293 27.6965 6.31672 27.7441 6.34052C27.8156 6.36431 27.8633 6.41189 27.8871 6.41189C27.9586 6.43568 28.2683 6.74498 28.2921 6.81635C28.316 6.84015 28.3398 6.88773 28.3398 6.91152C28.3636 6.95911 28.4113 7.07806 28.4589 7.19702C28.4827 7.2684 28.5066 7.41115 28.5066 7.53011Z" fill="#2962FF"/>
<path fill-rule="evenodd" clip-rule="evenodd" d="M26.9816 9.79033C27.0293 9.79033 27.0293 9.81412 27.0531 9.81412C27.0769 9.83792 27.1484 9.8855 27.196 9.93308C27.4819 10.171 27.6964 10.3851 27.8631 10.5755C27.9108 10.6468 27.9584 10.6944 27.9584 10.6944C28.0061 10.7182 28.149 10.9085 28.1967 10.9561C28.2205 11.0037 28.2443 11.0513 28.292 11.0751C28.3158 11.0989 28.3396 11.1465 28.3396 11.1703C28.3635 11.1941 28.3635 11.2178 28.3635 11.2178C28.3873 11.2416 28.4111 11.2654 28.4349 11.313C28.5064 11.3844 28.6732 11.6699 28.697 11.7175C28.697 11.7413 28.7208 11.7651 28.7208 11.7651C28.7208 11.7651 28.7447 11.7888 28.7447 11.8126C28.7685 11.8602 28.7685 11.884 28.7685 11.884C28.7923 11.9078 28.8876 12.0506 28.9353 12.1695C28.9353 12.1933 28.9591 12.2647 28.9829 12.3123C29.0067 12.3598 29.0306 12.4074 29.0306 12.4312C29.0306 12.455 29.0544 12.4788 29.0544 12.5026C29.0782 12.5026 29.102 12.5502 29.102 12.574C29.102 12.5978 29.102 12.6454 29.1259 12.6691C29.1497 12.7167 29.1735 12.7643 29.1735 12.7881C29.1735 12.8119 29.1735 12.8357 29.1973 12.8595C29.2212 12.9071 29.2212 12.9546 29.2926 13.2164C29.2926 13.2639 29.3165 13.3591 29.3403 13.4067C29.3641 13.4781 29.3641 13.5732 29.388 13.6208C29.388 13.6922 29.4118 13.7874 29.4118 13.8587C29.4356 13.9063 29.4594 14.1204 29.4594 14.3346C29.4832 14.5487 29.4833 14.739 29.5071 14.7628C29.5071 14.7866 29.5071 14.8104 29.5071 14.8342C29.5071 14.8818 29.65 15.0245 29.7215 15.0483C29.8406 15.1197 30.0074 15.1197 30.1027 15.0483C30.2695 14.9769 30.341 14.8104 30.341 14.6201C30.341 14.4535 30.2933 13.9063 30.2695 13.7398C30.2695 13.6446 30.2457 13.5256 30.2457 13.4781C30.2218 13.4305 30.198 13.3353 30.198 13.2877C30.1742 13.2164 30.1504 13.145 30.1504 13.0736C30.0789 12.8357 30.0074 12.5264 29.9836 12.5026C29.9836 12.5026 29.9598 12.455 29.9598 12.4074C29.9598 12.3836 29.9359 12.3361 29.9121 12.3361C29.9121 12.3123 29.8883 12.2885 29.8883 12.2409C29.8645 12.1457 29.793 11.9792 29.7692 11.9554C29.7692 11.9554 29.7453 11.9078 29.7453 11.884C29.7453 11.884 29.7453 11.8364 29.7215 11.8364C29.6977 11.8126 29.6977 11.7888 29.6739 11.7651C29.6739 11.7175 29.65 11.6937 29.65 11.6699C29.6262 11.6699 29.6024 11.6461 29.6024 11.6223C29.6024 11.5985 29.5786 11.5509 29.5547 11.5033C29.5309 11.4558 29.4832 11.3844 29.4832 11.3844C29.4594 11.3368 29.4594 11.313 29.4118 11.2416C29.3879 11.194 29.3403 11.1465 29.3403 11.0989C29.3165 11.0751 29.2688 11.0037 29.2212 10.9323C29.1735 10.861 29.1497 10.7896 29.1259 10.7658C29.1259 10.742 29.0782 10.6944 29.0306 10.623C28.9829 10.5755 28.9353 10.5041 28.9114 10.4565C28.8876 10.4327 28.8638 10.4089 28.84 10.3851C28.8161 10.3613 28.7685 10.29 28.7208 10.2424C28.6255 10.1234 28.5541 10.052 28.292 9.76654C28.1967 9.67137 28.1252 9.57621 28.1252 9.57621C28.1252 9.55241 28.1729 9.50483 28.2443 9.48104C28.3158 9.43346 28.3873 9.38587 28.4349 9.36208C28.4588 9.33829 28.5064 9.2907 28.5302 9.26691C28.6017 9.24312 28.7447 9.10037 28.84 8.98141C28.8876 8.93383 28.9353 8.86245 29.0306 8.7197C29.0544 8.69591 29.0782 8.64833 29.0782 8.62453C29.102 8.60074 29.2212 8.60074 29.2212 8.62453C29.245 8.64833 29.2688 8.67212 29.2926 8.67212C29.3403 8.69591 29.4118 8.74349 29.4832 8.76729C29.5786 8.81487 29.65 8.86245 29.65 8.86245C29.6977 8.88624 30.1027 9.12416 30.1504 9.17175C30.5316 9.45725 30.8413 9.71896 31.2225 10.0996C31.4607 10.3613 32.0325 11.0751 32.0325 11.1465C32.0325 11.1703 32.0325 11.194 32.0564 11.194C32.0564 11.2178 32.104 11.2654 32.1278 11.313C32.1755 11.3844 32.1993 11.432 32.1993 11.432C32.1993 11.4558 32.247 11.5271 32.2946 11.6223C32.3423 11.7175 32.3899 11.8364 32.4137 11.8602C32.4376 11.9078 32.4614 11.9554 32.4614 11.9554C32.4614 11.9792 32.4614 12.003 32.4852 12.003C32.509 12.0268 32.509 12.0506 32.509 12.0743C32.509 12.0743 32.5329 12.1457 32.5567 12.1695C32.5805 12.2171 32.5805 12.2647 32.5805 12.2885C32.5805 12.3123 32.6043 12.3361 32.6282 12.3599C32.6282 12.3836 32.652 12.4074 32.652 12.4312C32.652 12.4312 32.652 12.4788 32.6758 12.5026C32.6996 12.5502 32.7235 12.5978 32.7235 12.6453C32.7473 12.6929 32.7473 12.7405 32.7711 12.7643C32.7949 12.8357 32.8188 12.9546 32.8426 13.0974C32.8664 13.1212 32.8902 13.2164 32.8902 13.2639C32.9141 13.3115 32.9379 13.3829 32.9379 13.4305C32.9379 13.4543 32.9379 13.5494 32.9617 13.597C32.9855 13.6684 33.0094 13.8111 33.0094 13.9539C33.0332 14.0729 33.0332 14.168 33.057 14.1918C33.057 14.2156 33.0808 15.9762 33.1047 18.1175C33.1523 21.1152 33.1761 22.0193 33.2 22.0431C33.2 22.0669 33.2238 22.1145 33.2476 22.1621C33.2715 22.3286 33.4382 22.6617 33.4859 22.7093C33.4859 22.7093 33.5097 22.7331 33.5097 22.7569C33.5335 22.8282 33.5812 22.8758 33.7003 23.0186C33.9862 23.3279 34.0815 23.4706 34.1053 23.7323C34.153 23.8989 34.1053 24.1606 34.0339 24.2795C34.0339 24.3033 34.01 24.3271 34.01 24.3509C33.9862 24.3985 33.8909 24.5413 33.8194 24.5888C33.748 24.6602 33.6288 24.7792 33.605 24.7792C33.605 24.7792 33.5573 24.803 33.5097 24.803C33.462 24.8268 33.3906 24.8743 33.3429 24.8743C33.2714 24.8981 32.4376 24.9219 26.0286 24.9933C21.0253 25.0647 19.4529 25.0647 18.9287 25.0647H18.8096H16.2603C12.1147 25.0647 11.7573 25.0647 11.7097 25.0647L11.6144 25.0171H2.58465C1.20279 25.0171 0.0830078 24.8506 0.0830078 24.6602V23.9465C0.0830078 23.7561 1.20279 23.5896 2.58465 23.5896H11.7335V23.542C11.7573 23.5182 11.7573 23.4944 11.7573 23.4706C11.7573 23.4706 11.7812 23.423 11.7812 23.3993C11.7812 23.3755 11.805 23.2803 11.805 22.971V22.6379H7.75471C6.39667 22.6379 5.25307 22.4714 5.25307 22.281V21.5673C5.25307 21.3532 6.39667 21.1866 7.75471 21.1866H11.805V18.974C11.8288 18.7123 11.8526 18.6409 11.8526 18.5695C11.8765 18.5219 11.8765 18.4506 11.9003 18.4268C11.9241 18.284 11.9241 18.2602 11.9479 18.1888C11.9479 18.1651 11.9718 18.0937 11.9956 18.0699C11.9956 18.0223 12.0194 17.9747 12.0194 17.9509C12.0432 17.9271 12.0432 17.9033 12.0432 17.9033C12.0432 17.8796 12.0432 17.8558 12.0671 17.8558C12.0671 17.832 12.0909 17.8082 12.0909 17.8082C12.0909 17.7844 12.1147 17.7368 12.1147 17.713C12.1624 17.6178 12.1862 17.5941 12.1862 17.5941C12.1862 17.5703 12.1862 17.5703 12.1862 17.5465C12.21 17.5465 12.21 17.5227 12.21 17.5227C12.21 17.5227 12.2577 17.4037 12.3291 17.2848C12.353 17.261 12.3768 17.2372 12.3768 17.2134C12.4006 17.2134 12.4244 17.1658 12.4483 17.1182C12.4721 17.0944 12.4959 17.023 12.5197 16.9993C12.5436 16.9755 12.5674 16.9517 12.5674 16.9517C12.5912 16.9517 12.5912 16.9279 12.5912 16.9279C12.5912 16.9041 12.8533 16.5948 13.0439 16.4282C13.2583 16.2379 13.6395 15.9524 13.6872 15.9524L13.711 15.9286C13.711 15.9286 13.7586 15.9048 13.7825 15.881C13.8301 15.8572 13.8539 15.8335 13.8778 15.8335C14.0684 15.7145 14.1875 15.6669 14.2113 15.6669C14.2113 15.6907 14.259 15.7383 14.2828 15.7859C14.3543 15.881 14.4972 16.0238 14.5687 16.0476C14.5925 16.0714 14.6164 16.0714 14.664 16.119C14.6878 16.119 14.7355 16.1428 14.7593 16.1665C14.807 16.1903 14.8308 16.2141 14.8308 16.2141C14.8308 16.2379 14.7831 16.2855 14.7355 16.3331C14.5687 16.4758 14.5211 16.5472 14.4734 16.6186C14.4258 16.6424 14.4019 16.69 14.3781 16.7138C14.3543 16.7138 14.3543 16.7375 14.3543 16.7375C14.3543 16.7375 14.3305 16.7851 14.3066 16.8089C14.2352 16.8803 14.2352 16.9041 14.2113 16.9279C14.2113 16.9279 14.1875 16.9755 14.1637 17.023C14.0922 17.1182 14.0684 17.142 14.0207 17.2134C13.9731 17.3085 13.9731 17.3085 13.9492 17.3323C13.9492 17.3561 13.9016 17.4513 13.8778 17.5227C13.8539 17.5227 13.8301 17.5703 13.8301 17.6178C13.8063 17.6416 13.8063 17.6892 13.7825 17.6892C13.7586 17.7368 13.7348 17.832 13.711 17.8558C13.711 17.8795 13.711 17.9033 13.6872 17.9271C13.6872 17.9271 13.6872 17.9509 13.6872 17.9747C13.6633 17.9985 13.6633 18.0461 13.6633 18.0699C13.6395 18.0937 13.6157 18.1888 13.5919 18.2364C13.5919 18.284 13.5919 18.3316 13.568 18.3554C13.568 18.3792 13.568 18.4268 13.568 18.4506C13.5442 18.4743 13.5442 18.5219 13.5442 18.5457C13.5204 18.6171 13.4966 18.7598 13.4966 19.0453C13.4966 19.0691 13.4966 19.1167 13.4966 19.1405C13.4966 19.2357 13.5204 19.2833 13.5442 19.3309C13.6157 19.3784 13.6633 19.4022 13.7586 19.4022C13.8778 19.4022 13.9731 19.3309 14.0207 19.2357C14.0207 19.1881 14.0445 19.0691 14.0445 18.9264C14.0445 18.8074 14.0684 18.6647 14.0684 18.6409C14.0684 18.5933 14.0922 18.5457 14.0922 18.5219C14.0922 18.4981 14.0922 18.4743 14.0922 18.4506C14.116 18.4268 14.116 18.3792 14.1398 18.3554C14.1398 18.2602 14.1637 18.1888 14.1875 18.1413C14.1875 18.1175 14.2113 18.0937 14.2113 18.0699C14.2113 18.0461 14.2352 18.0223 14.2352 17.9985L14.259 17.9747C14.259 17.9509 14.259 17.9271 14.2828 17.9033C14.2828 17.8558 14.3066 17.832 14.3305 17.8082C14.3543 17.713 14.3781 17.6892 14.4258 17.5941C14.4496 17.5465 14.4734 17.4751 14.4972 17.4751C14.4972 17.4751 14.4972 17.4751 14.4972 17.4513C14.4972 17.4513 14.5211 17.4275 14.5211 17.4037C14.5449 17.4037 14.5449 17.3799 14.5449 17.3799C14.5449 17.3561 14.5687 17.3323 14.5925 17.3085C14.6164 17.261 14.6402 17.2372 14.6402 17.2372V17.2134H14.664C14.664 17.1658 14.8308 16.9755 14.8546 16.9517C14.8784 16.9279 14.9023 16.9041 14.9976 16.7851C15.0929 16.69 15.2596 16.5472 15.4026 16.4282L15.5455 16.3331H15.7838C15.9744 16.3331 16.0459 16.3331 16.0459 16.3331C16.0459 16.3569 16.0697 16.4996 16.0935 16.69C16.0935 16.7613 16.0935 16.8803 16.1173 16.9517C16.1173 16.9993 16.1173 17.1182 16.1412 17.2134C16.1412 17.3085 16.1412 17.4275 16.165 17.4513C16.165 17.4751 16.165 17.5703 16.165 17.6416C16.165 17.713 16.1888 17.832 16.1888 17.9033C16.2126 17.9747 16.2126 18.1175 16.2365 18.2126C16.2365 18.3078 16.2365 18.403 16.2365 18.4506C16.2603 18.4743 16.2603 18.5457 16.2603 18.5933C16.2603 18.7123 16.2841 18.7836 16.3556 18.8312C16.4747 18.9264 16.6177 18.9026 16.7368 18.8074L16.7844 18.7599V18.5695C16.7844 18.4743 16.7844 18.3792 16.7844 18.3554C16.7844 18.3316 16.7606 18.2126 16.7606 18.1175C16.7606 17.9985 16.7368 17.8795 16.7368 17.8558C16.7368 17.8558 16.713 17.7606 16.713 17.6892C16.713 17.6178 16.6891 17.4989 16.6891 17.4037C16.6891 17.3323 16.6653 17.1896 16.6653 17.0706C16.6415 16.9755 16.6415 16.8565 16.6415 16.8327C16.6415 16.8089 16.6177 16.7375 16.6177 16.6662C16.6177 16.6186 16.6177 16.5234 16.6177 16.4758C16.5938 16.3331 16.57 16.3331 16.8083 16.3331C16.975 16.3331 16.9989 16.3331 16.9989 16.3569C17.0227 16.3569 17.0703 16.4045 17.0942 16.4282C17.2609 16.5472 17.4039 16.69 17.523 16.8089C17.5468 16.8327 17.5707 16.8565 17.5707 16.8565C17.5945 16.8803 17.6898 16.9993 17.7136 17.023C17.7136 17.0468 17.7374 17.0706 17.7613 17.0944C17.7851 17.0944 17.8089 17.1182 17.8089 17.142V17.1658C17.8327 17.1896 17.8327 17.1896 17.8566 17.2134C17.9042 17.261 17.9995 17.4275 18.0233 17.4513C18.0233 17.4751 18.0233 17.4751 18.0233 17.4751C18.0472 17.4751 18.0472 17.4989 18.0472 17.5227C18.0472 17.5465 18.071 17.5465 18.071 17.5465C18.071 17.5703 18.1187 17.6416 18.1663 17.713C18.1663 17.7368 18.1901 17.7844 18.1901 17.8082C18.214 17.832 18.214 17.8558 18.214 17.8795L18.2378 17.9033C18.2378 17.9271 18.2616 17.9271 18.2616 17.9509C18.2616 17.9509 18.2616 17.9985 18.2854 18.0223L18.3093 18.0699C18.3093 18.0937 18.3093 18.1175 18.3093 18.1175C18.3331 18.1413 18.3331 18.1651 18.3807 18.3078C18.3807 18.3554 18.4046 18.403 18.4046 18.4268C18.4046 18.4743 18.4284 18.5219 18.4284 18.5695C18.4284 18.5933 18.4522 18.6409 18.4522 18.6885C18.4522 18.7123 18.476 18.8312 18.476 18.974C18.476 19.0929 18.476 19.1881 18.4999 19.2119C18.4999 19.2119 18.4999 19.2357 18.4999 19.2595C18.4999 19.2833 18.5713 19.3546 18.6428 19.3784C18.6666 19.4022 18.7143 19.4022 18.7619 19.4022V18.3554L18.7381 17.7606L18.7143 17.6654C18.6905 17.6416 18.6905 17.6178 18.6905 17.5941C18.6666 17.5941 18.6666 17.5703 18.6666 17.5703C18.6666 17.5465 18.6666 17.5465 18.6428 17.5227C18.6428 17.5227 18.6428 17.4989 18.619 17.4751C18.619 17.4751 18.619 17.4513 18.5952 17.4513C18.5952 17.4275 18.5952 17.4275 18.5952 17.4037C18.5952 17.4037 18.5713 17.3561 18.5475 17.3323C18.5237 17.3085 18.5237 17.2848 18.4999 17.261C18.4999 17.2372 18.4999 17.2372 18.4522 17.1896C18.4522 17.1658 18.4284 17.1182 18.4046 17.1182C18.4046 17.0944 18.3807 17.0468 18.3569 16.9993C18.3331 16.9755 18.3093 16.9279 18.2854 16.9279C18.2854 16.9041 18.2616 16.8565 18.2378 16.8327C18.1901 16.8089 18.1663 16.7613 18.1663 16.7375C18.1425 16.7138 18.1187 16.69 18.1187 16.69C18.0948 16.6662 18.071 16.6424 18.0472 16.5948C17.9995 16.5472 17.9519 16.4996 17.7851 16.3331C17.7136 16.2855 17.666 16.2379 17.666 16.2141C17.666 16.2141 17.7136 16.1903 17.7613 16.1665C17.7851 16.1428 17.8327 16.119 17.8566 16.0952C17.8804 16.0952 17.928 16.0714 17.928 16.0476C17.9757 16.0238 18.071 15.9524 18.1187 15.881C18.1425 15.8572 18.1901 15.8097 18.2378 15.7383C18.2616 15.7145 18.2616 15.6907 18.2854 15.6907C18.2854 15.6669 18.3569 15.6669 18.3569 15.6907C18.3807 15.6907 18.3807 15.7145 18.4046 15.7145C18.4284 15.7145 18.476 15.7383 18.5237 15.7621C18.5713 15.7859 18.619 15.8097 18.6428 15.8335L18.7381 15.881V15.6669C18.7143 14.977 18.7143 14.5249 18.7143 14.4773C18.7381 14.2394 18.7619 14.0967 18.7619 13.9777C18.7858 13.8825 18.7858 13.8112 18.8096 13.7636C18.8096 13.6684 18.8334 13.5732 18.8572 13.5019C18.8811 13.2639 18.9049 13.2164 18.9287 13.1212L18.9764 12.9309L18.8334 13.0022C18.8096 13.026 18.7619 13.0498 18.7143 13.0736C18.6666 13.0974 18.619 13.145 18.5713 13.1688C18.5237 13.1926 18.4999 13.2401 18.476 13.2401C18.3807 13.2877 17.9995 13.6684 17.9042 13.7636C17.9042 13.7636 17.8804 13.8112 17.8327 13.8587C17.7613 13.9301 17.7613 13.9301 17.6898 13.9063C17.6183 13.8825 17.5468 13.8587 17.4992 13.8349C17.4754 13.8349 17.4277 13.8111 17.4039 13.8111C17.3086 13.7874 17.0465 13.7636 16.8321 13.7874C16.713 13.7874 16.6177 13.7874 16.6177 13.7636C16.6177 13.7636 16.6653 13.716 16.713 13.6922C16.7368 13.6684 16.7606 13.6684 16.7606 13.6446V13.6208C16.7844 13.597 16.7844 13.4781 16.7844 12.5502C16.7844 11.9792 16.7844 11.5033 16.8083 11.5033C16.8083 11.4558 17.0703 11.3606 17.118 11.3606C17.118 11.3606 17.1418 11.3606 17.1656 11.3606C17.1656 11.3368 17.2133 11.3368 17.2848 11.313C17.3324 11.313 17.4039 11.313 17.4515 11.2892C17.523 11.2892 17.7851 11.2892 17.8566 11.2892C18.0472 11.3368 18.0948 11.3368 18.1187 11.3606C18.1425 11.3606 18.1663 11.3606 18.1663 11.3606C18.214 11.3606 18.3093 11.4082 18.4046 11.4558C18.4522 11.4558 18.4999 11.4796 18.4999 11.4796C18.4999 11.4796 18.5237 11.5033 18.5475 11.5033C18.5713 11.5033 18.619 11.5509 18.6666 11.5747C18.8096 11.6699 18.8096 11.6699 19.1908 12.0268L19.2623 12.0981L19.2861 12.0506C19.2861 12.0268 19.3099 12.003 19.3099 11.9792C19.3337 11.9792 19.3337 11.9554 19.3337 11.9316C19.3337 11.9078 19.429 11.7413 19.5482 11.5509C19.572 11.5033 19.5958 11.432 19.6196 11.4082C19.6196 11.3844 19.6673 11.2892 19.7149 11.2416C19.7626 11.1703 19.8102 11.0751 19.8341 11.0275C19.8579 10.9799 19.9055 10.9323 19.9055 10.9323C19.9294 10.9323 19.9294 10.9085 19.9294 10.9085C19.9294 10.8372 20.382 10.3138 20.6679 10.0282C21.0015 9.69516 21.6209 9.17175 21.6924 9.17175L21.7162 9.14795C21.7401 9.12416 21.7877 9.07658 21.8592 9.05279C21.9069 9.0052 21.9783 8.98141 22.0022 8.95762C22.3119 8.76728 22.5025 8.67212 22.5263 8.69591C22.5501 8.69591 22.5978 8.76728 22.6693 8.86245C22.7646 9.02899 23.0266 9.26691 23.1219 9.33829C23.1696 9.38587 23.1696 9.38587 23.2649 9.43345C23.2887 9.45725 23.3602 9.50483 23.4317 9.52862C23.5031 9.57621 23.527 9.6 23.5508 9.62379C23.5508 9.64758 23.4793 9.71896 23.384 9.81412C23.1219 10.0758 23.0505 10.1948 22.9552 10.3138C22.9075 10.3613 22.8599 10.4565 22.8122 10.4803C22.7884 10.5041 22.7646 10.5279 22.7646 10.5517C22.7646 10.5517 22.7407 10.5993 22.6931 10.6468C22.5978 10.7896 22.574 10.8134 22.5501 10.861C22.5501 10.8848 22.5025 10.9561 22.4787 11.0037C22.3595 11.194 22.3357 11.2654 22.2642 11.3844C22.1928 11.5033 22.1928 11.5271 22.1689 11.5985C22.1451 11.6223 22.0736 11.7651 22.026 11.884C22.0021 11.9316 21.9783 12.003 21.9545 12.0506C21.9307 12.1219 21.9069 12.1933 21.883 12.2171C21.8592 12.2885 21.8115 12.4312 21.7877 12.5026C21.7877 12.5502 21.7639 12.574 21.7401 12.5978C21.7401 12.6216 21.7162 12.6691 21.7162 12.7167C21.6924 12.7405 21.6924 12.8119 21.6686 12.8357C21.6448 12.9309 21.6209 13.0498 21.5971 13.1688C21.5971 13.2164 21.5733 13.3115 21.5495 13.3591C21.5495 13.4067 21.5256 13.4781 21.5256 13.5019C21.5256 13.5494 21.5256 13.6446 21.5018 13.716C21.478 13.8349 21.4542 14.0491 21.4303 14.5487C21.4303 14.8342 21.4542 14.9532 21.5495 15.0483C21.6448 15.1435 21.7401 15.1911 21.883 15.1911C22.0736 15.1911 22.2404 15.0721 22.2881 14.8818C22.2881 14.8104 22.3119 14.5963 22.3119 14.3584C22.3357 14.1204 22.3357 13.9063 22.3595 13.8349C22.3834 13.7874 22.3834 13.6922 22.3834 13.6446C22.3834 13.597 22.4072 13.5494 22.4072 13.5257C22.4072 13.4781 22.431 13.4067 22.4548 13.3353C22.4787 13.1688 22.5025 13.0498 22.5501 12.9784C22.5501 12.9546 22.574 12.8833 22.574 12.8595C22.5978 12.8119 22.5978 12.7643 22.6216 12.7405C22.6216 12.7167 22.6454 12.6929 22.6454 12.6691C22.6454 12.6454 22.6693 12.5978 22.6693 12.5502C22.6931 12.5026 22.7407 12.4312 22.7407 12.3836C22.8122 12.2409 22.836 12.1933 22.9075 12.0268C22.9552 11.9078 23.0028 11.8364 23.0028 11.8126C23.0266 11.8126 23.0266 11.7888 23.0266 11.7888C23.0266 11.7651 23.0505 11.7175 23.0743 11.7175C23.0981 11.6937 23.0981 11.6699 23.0981 11.6461C23.0981 11.6223 23.1458 11.5509 23.1696 11.5033C23.2172 11.4558 23.2411 11.4082 23.2411 11.3844C23.2411 11.3844 23.2411 11.3844 23.2649 11.3844C23.2649 11.3844 23.2887 11.3606 23.2887 11.3368C23.3125 11.2892 23.5508 10.9561 23.5984 10.8848C23.6461 10.8372 23.6461 10.8134 23.8367 10.623C23.9796 10.4565 24.2417 10.171 24.48 9.98067L24.6706 9.79033H25.0756C25.3853 9.79033 25.4806 9.79033 25.5044 9.81412C25.5044 9.83792 25.5283 10.0758 25.5759 10.4327C25.5759 10.5517 25.5997 10.7658 25.5997 10.861C25.6236 10.9561 25.6474 11.1703 25.6474 11.3368C25.6712 11.5033 25.6951 11.6937 25.6951 11.7413C25.7189 11.8126 25.7189 11.9554 25.7189 12.0743C25.7427 12.1933 25.7665 12.4074 25.7665 12.5502C25.7903 12.6691 25.8142 12.9071 25.8142 13.0736C25.838 13.2401 25.8618 13.4067 25.8618 13.4781C25.8857 13.5256 25.8857 13.6446 25.8857 13.7398C25.8857 13.9301 25.9333 14.0491 26.0524 14.1442C26.243 14.287 26.4813 14.2632 26.6481 14.0967L26.7434 14.0015V13.6922C26.7434 13.5256 26.7434 13.3591 26.7195 13.3115C26.7195 13.2639 26.6957 13.0736 26.6719 12.8833C26.6719 12.6691 26.6481 12.4788 26.6242 12.455C26.6242 12.4074 26.6004 12.2885 26.6004 12.1457C26.6004 12.0268 26.5766 11.8126 26.5528 11.6699C26.5528 11.5271 26.5289 11.2654 26.5051 11.0989C26.4813 10.9085 26.4813 10.7182 26.4575 10.6468C26.4575 10.5993 26.4336 10.4803 26.4336 10.3851C26.4336 10.29 26.4336 10.1234 26.4098 10.0045C26.3622 9.76654 26.3622 9.76654 26.7195 9.79033C26.8625 9.79033 26.934 9.79033 26.9816 9.79033Z" fill="#2962FF"/>
<path fill-rule="evenodd" clip-rule="evenodd" d="M130.717 6.81641C132.408 6.8402 133.576 6.93537 134.219 7.1257C134.958 7.33983 135.53 7.67291 135.911 8.14875C136.316 8.62459 136.554 9.1718 136.649 9.7428C136.745 10.3376 136.792 11.4796 136.792 13.1926V19.545C136.792 21.1629 136.721 22.2573 136.578 22.8045C136.435 23.3517 136.197 23.78 135.839 24.0893C135.482 24.3986 135.053 24.6127 134.529 24.7317C134.005 24.8506 133.242 24.922 132.194 24.922H126.69V6.81641H129.954C130.217 6.81641 130.479 6.81641 130.717 6.81641ZM131.05 9.90934V21.8053C131.67 21.8053 132.075 21.6863 132.218 21.4008C132.361 21.1391 132.432 20.4015 132.432 19.1882V12.1458C132.432 11.3369 132.408 10.8134 132.361 10.5755C132.313 10.3614 132.194 10.1711 132.027 10.0759C131.86 9.95693 131.527 9.90934 131.05 9.90934Z" fill="#2962FF"/>
<path fill-rule="evenodd" clip-rule="evenodd" d="M121.258 21.6625H119.71L119.448 24.922H114.921L117.137 6.81641H123.45L125.952 24.922H121.473L121.258 21.6625ZM121.139 18.4506C120.925 16.4045 120.687 13.8826 120.472 10.861C120.043 14.3108 119.757 16.8566 119.638 18.4506H121.139Z" fill="#2962FF"/>
<path fill-rule="evenodd" clip-rule="evenodd" d="M110.06 25.2551C109.846 25.2789 109.632 25.3027 109.393 25.3027C109.036 25.3027 108.679 25.2551 108.321 25.2075C107.749 25.1361 107.225 24.9696 106.749 24.7554C105.986 24.3986 105.415 23.9227 105.033 23.3517C104.652 22.7807 104.438 22.1859 104.366 21.5435C104.295 20.9012 104.247 19.5688 104.247 17.5227V6.81641H108.607V20.3777C108.607 21.1629 108.655 21.6863 108.726 21.9004C108.822 22.1145 108.964 22.2335 109.227 22.2335C109.489 22.2335 109.679 22.1146 109.751 21.8766C109.822 21.6149 109.87 21.0439 109.87 20.1398V6.81641H114.23V18.9027C114.23 20.2826 114.182 21.2343 114.111 21.8053C114.015 22.3525 113.777 22.9235 113.372 23.5183C112.967 24.0893 112.419 24.5413 111.752 24.8506C111.252 25.0647 110.704 25.2075 110.06 25.2551Z" fill="#2962FF"/>
<path fill-rule="evenodd" clip-rule="evenodd" d="M100.006 23.994C100.006 24.3985 100.102 24.6602 100.221 24.7554C100.364 24.8505 100.673 24.9219 101.198 24.9219H102.699V27.1108H99.4107C98.6244 27.1108 98.0526 27.0394 97.7191 26.8966C97.4094 26.7777 97.1949 26.5873 97.0758 26.3256C96.9567 26.0639 96.909 25.5881 96.909 24.9219C95.9084 24.8743 95.0745 24.6126 94.3597 24.0654C93.645 23.542 93.1685 22.8758 92.9541 22.0669C92.7158 21.2342 92.5967 20.0208 92.5967 18.403V12.7881C92.5967 11.5747 92.6682 10.623 92.8111 9.98065C92.9302 9.33827 93.2161 8.74348 93.645 8.17247C94.05 7.60147 94.598 7.14942 95.2651 6.86392C95.9322 6.57842 96.6708 6.43567 97.4808 6.43567C98.4338 6.43567 99.3154 6.60221 100.078 6.98288C100.84 7.33976 101.412 7.7918 101.793 8.33901C102.151 8.88623 102.413 9.45723 102.508 10.052C102.627 10.6468 102.699 11.5271 102.699 12.6929V18.5695C102.699 20.1873 102.627 21.2818 102.484 21.8528C102.317 22.4238 102.055 22.8758 101.65 23.2089C101.221 23.5658 100.673 23.8275 100.006 23.994ZM96.9567 11.4557V19.9256C96.9567 20.9725 97.0043 21.6149 97.0758 21.8528C97.1711 22.1145 97.3379 22.2334 97.6476 22.2334C97.9335 22.2334 98.1241 22.0907 98.1956 21.8052C98.2909 21.5197 98.3385 20.8535 98.3385 19.7829V11.4557C98.3385 10.623 98.2909 10.0758 98.1956 9.8379C98.1241 9.62377 97.9335 9.50481 97.6714 9.50481C97.4332 9.50481 97.2664 9.59998 97.1473 9.79031C97.0282 9.98065 96.9567 10.5279 96.9567 11.4557Z" fill="#2962FF"/>
<path fill-rule="evenodd" clip-rule="evenodd" d="M87.2833 25.255C87.045 25.2788 86.7829 25.3026 86.5208 25.3026C85.3534 25.3026 84.3528 25.0647 83.5427 24.565C82.7088 24.0892 82.1608 23.4944 81.9226 22.7569C81.6605 22.0193 81.5176 20.9725 81.5176 19.6163V18.4267H85.5678V20.6394C85.5678 21.3056 85.6393 21.7338 85.7584 21.9479C85.8537 22.1383 86.0682 22.2334 86.3541 22.2334C86.64 22.2334 86.8544 22.1145 86.9974 21.8528C87.1403 21.6149 87.2118 21.258 87.2118 20.7583C87.2118 19.6877 87.0688 18.9978 86.8068 18.6647C86.5447 18.3554 85.8537 17.8082 84.7816 17.023C83.6857 16.2617 82.9709 15.6907 82.6135 15.3338C82.2561 15.0007 81.9702 14.5011 81.732 13.8825C81.5176 13.2639 81.3984 12.4788 81.3984 11.5271C81.3984 10.1234 81.5652 9.12414 81.8749 8.48176C82.2085 7.83938 82.7326 7.33976 83.4712 6.98288C84.2098 6.626 85.0913 6.43567 86.1158 6.43567C87.2594 6.43567 88.2363 6.626 89.0225 7.03046C89.8087 7.41113 90.3567 7.91076 90.6188 8.52935C90.857 9.12415 91 10.1472 91 11.5747V12.2885H86.9497V10.9561C86.9497 10.3137 86.9021 9.93307 86.7829 9.74273C86.6876 9.57619 86.5208 9.50481 86.2826 9.50481C86.0205 9.50481 85.8061 9.62377 85.687 9.8379C85.544 10.0758 85.4725 10.4327 85.4725 10.8847C85.4725 11.5033 85.544 11.9554 85.7108 12.2647C85.8537 12.574 86.2588 12.9308 86.9259 13.3591C88.8795 14.6201 90.0946 15.6193 90.595 16.4282C91.0953 17.2134 91.3574 18.5219 91.3574 20.2825C91.3574 21.5673 91.2144 22.5189 90.9285 23.1375C90.6664 23.7561 90.1185 24.2557 89.3084 24.6602C88.7128 24.9695 88.0457 25.1836 87.2833 25.255Z" fill="#2962FF"/>
<path fill-rule="evenodd" clip-rule="evenodd" d="M70.987 17.1658V24.922H66.627V6.81641H70.987V13.835L72.9406 6.81641H77.0147L74.5369 14.977L77.253 24.922H72.75L70.987 17.1658Z" fill="#2962FF"/>
<path fill-rule="evenodd" clip-rule="evenodd" d="M64.888 6.81641V24.922H61.0522L58.7888 16.69V24.922H55.1436V6.81641H58.7888L61.2428 14.9532V6.81641H64.888Z" fill="#2962FF"/>
<path fill-rule="evenodd" clip-rule="evenodd" d="M49.2827 25.2551C49.0683 25.2789 48.8538 25.3027 48.6394 25.3027C47.6387 25.3027 46.7572 25.1123 45.971 24.7554C45.2086 24.3986 44.6368 23.9227 44.2556 23.3517C43.8744 22.7807 43.6599 22.1859 43.5885 21.5435C43.517 20.9012 43.4932 19.5688 43.4932 17.5227V6.81641H47.8532V20.3777C47.8532 21.1629 47.877 21.6863 47.9723 21.9004C48.0438 22.1145 48.2105 22.2335 48.4488 22.2335C48.7109 22.2335 48.9015 22.1146 48.9729 21.8766C49.0683 21.6149 49.0921 21.0439 49.0921 20.1398V6.81641H53.4521V18.9027C53.4521 20.2826 53.4283 21.2343 53.333 21.8053C53.2615 22.3525 52.9994 22.9235 52.5944 23.5183C52.1893 24.0893 51.6652 24.5413 50.9981 24.8506C50.4978 25.0647 49.926 25.2075 49.2827 25.2551Z" fill="#2962FF"/>
<path fill-rule="evenodd" clip-rule="evenodd" d="M41.8487 18.9027C41.8487 20.7108 41.8487 21.8766 41.801 22.4001C41.7772 22.9235 41.6104 23.3993 41.3245 23.8038C41.0624 24.232 40.6812 24.5175 40.2047 24.6603C39.7044 24.8268 38.9896 24.922 38.0128 24.922H35.8447V21.7577C36.1068 21.7815 36.2974 21.7815 36.4165 21.7815C36.7263 21.7815 36.9645 21.7101 37.1551 21.5435C37.3219 21.377 37.4172 21.1629 37.4648 20.925C37.4887 20.687 37.4887 20.235 37.4887 19.545V6.81641H41.8487V18.9027Z" fill="#2962FF"/>
<path fill-rule="evenodd" clip-rule="evenodd" d="M132.98 37.1034C132.742 37.3413 132.384 37.5316 131.86 37.5316C131.646 37.5316 131.407 37.5078 131.288 37.4602V36.7703C131.407 36.8178 131.55 36.8416 131.693 36.8416C132.313 36.8416 132.479 36.461 132.67 36.0089L132.908 35.3903L130.621 29.942H131.574L133.361 34.3673L135.1 29.942H136.053L133.456 36.342C133.361 36.5561 133.218 36.8654 132.98 37.1034Z" fill="#2962FF"/>
<path fill-rule="evenodd" clip-rule="evenodd" d="M149.8 45.716C148.014 44.1695 146.894 41.9093 146.894 39.3874C146.894 39.1019 146.918 38.8164 146.941 38.5071L146.965 38.3881L146.822 37.7695L144.464 37.7933C143.153 37.8171 142.081 37.7933 142.081 37.7457C142.081 37.7457 141.676 37.7457 140.938 37.722H138.055V29.8706H139.675L139.722 16.9755C139.746 9.45727 139.794 5.19853 139.865 4.22307L139.889 4.1279L139.865 4.10411V4.05653V3.98515V3.91377L139.913 3.8424V3.79482V3.72344L139.937 3.65207V3.60448L139.985 3.53311L140.008 3.46173L140.032 3.39036L140.08 3.34277L140.127 3.2714L140.175 3.20002L140.199 3.15244L140.27 3.10485L140.294 3.03348L140.366 2.98589L140.39 2.91452L140.461 2.89073L140.485 2.81935L140.556 2.79556L140.58 2.72418L140.652 2.6766L140.675 2.62902L140.723 2.55764L140.795 2.53385L140.818 2.46248L140.89 2.43868L140.938 2.3911L141.009 2.31972L141.08 2.29593L141.152 2.27214L141.247 2.22456L141.295 2.20076L141.366 2.17697L141.438 2.12939L141.486 2.1056L141.557 2.0818H141.628L141.7 2.03422L141.748 2.01043H141.819L141.914 1.98664H142.01L142.081 1.93905L142.176 1.91526H142.248H142.319H142.367H142.439H142.51H142.558L142.629 1.93905L142.677 1.91526L150.944 1.89147C156.662 1.84389 159.473 1.89147 159.95 1.98664C160.307 2.08181 160.736 2.15318 160.879 2.17697C160.998 2.17697 161.07 2.22455 161.046 2.29593H161.117L161.189 2.31972H161.26L161.308 2.36731L161.379 2.3911H161.451L161.499 2.43868L161.57 2.46248L161.642 2.53385L161.713 2.55764L161.761 2.62902L161.785 2.6766L161.832 2.70039L161.856 2.72418L161.88 2.74798L162.07 2.89073C162.237 3.03348 162.404 3.20002 162.618 3.39036C162.69 3.46173 162.761 3.53311 162.833 3.58069L162.88 3.62827L162.928 3.69965C163.047 3.91378 163.214 4.10411 163.381 4.29445L163.548 4.46099L164 5.19853L164.334 5.67437L164.381 5.79333C164.644 6.34054 165.072 6.88775 165.215 7.10188C165.501 7.53013 165.811 8.00597 166.121 8.36284L166.335 8.60076L167.074 9.67139C167.24 9.88552 167.407 10.1234 167.55 10.3138L167.669 10.4803L167.693 10.5041C167.693 10.5517 167.717 10.5993 167.741 10.6231L167.765 10.6944C167.788 10.7658 167.836 10.8134 167.86 10.861L167.908 10.9086L168.051 11.1227C168.146 11.2417 168.265 11.3606 168.336 11.432L168.408 11.5034L168.456 11.5985C168.479 11.6461 168.503 11.6699 168.551 11.7175L168.622 11.7889L168.694 11.9554C168.884 12.2885 169.313 12.9309 169.837 13.6684C170.505 14.6201 171.053 15.429 171.053 15.429C171.053 15.4528 171.362 15.9049 171.72 16.4283C172.339 17.3086 172.411 17.4751 172.411 18.2127C172.411 18.9264 172.434 19.0454 172.673 18.9978C172.816 18.974 172.887 18.8075 172.935 17.6417V17.2372V17.2134C172.577 16.9041 172.315 16.1428 172.315 15.2387V10.9324C172.315 9.76657 172.768 8.7911 173.34 8.7911H175.413C175.984 8.7911 176.437 9.76657 176.437 10.9324V15.2387C176.437 16.4283 175.984 17.3799 175.413 17.3799H174.769L174.698 17.4513C174.65 17.5703 174.65 17.8082 174.626 18.2602C174.626 18.7599 174.602 19.2595 174.602 19.3547C174.579 19.6878 173.745 20.3063 173.078 20.4729L172.411 20.6394V27.4915C172.411 31.8692 172.339 34.6052 172.244 35.0573C172.148 35.4617 172.101 35.7948 172.125 35.8186C172.148 35.8424 172.029 36.0089 171.839 36.1993C171.648 36.3896 171.505 36.5799 171.505 36.6275C171.505 36.6989 171.291 36.8654 171.005 37.0558C170.528 37.3413 169.837 37.6744 169.575 37.6744C169.361 37.6982 168.122 37.722 166.835 37.722L164.477 37.7457V37.8409L164.524 38.0788C164.572 38.5071 164.62 38.9591 164.62 39.3874C164.62 44.122 160.641 47.9524 155.757 47.9524C153.47 47.9524 151.373 47.0959 149.8 45.716ZM157.806 39.3874C157.806 40.5294 156.9 41.4573 155.757 41.4573C154.613 41.4573 153.708 40.5294 153.708 39.3874C153.708 38.2454 154.613 37.3413 155.757 37.3413C156.9 37.3413 157.806 38.2454 157.806 39.3874ZM167.455 19.0454C167.455 20.5443 167.407 21.2818 167.264 21.4008C167.002 21.6387 166.669 21.6149 165.215 21.2104C164.501 21.0201 162.499 20.5205 160.76 20.0922C159.045 19.664 156.853 19.1168 155.9 18.8788C154.947 18.6409 153.803 18.3554 153.374 18.2365C152.922 18.1175 152.54 17.9272 152.445 17.7606C152.35 17.5941 152.278 15.548 152.278 12.2171C152.278 7.41117 152.302 6.93534 152.54 6.64983C152.802 6.36433 152.969 6.36433 156.662 6.31675C158.783 6.29296 160.498 6.31675 160.498 6.36433C160.474 6.38812 160.593 6.57846 160.736 6.76879C160.903 6.98292 161.237 7.45876 161.499 7.86322C161.57 7.95839 161.642 8.05355 161.713 8.14872L161.808 8.26768L161.927 8.5056C162.213 9.00522 162.618 9.57623 163.071 10.2186L163.309 10.5993L163.619 11.0513L164.119 11.8365L164.239 12.003L164.453 12.3599L164.477 12.4312C164.501 12.4788 164.524 12.5264 164.572 12.574L164.62 12.6216L164.644 12.6692C164.763 12.9309 164.739 12.9309 165.382 13.716L165.597 14.0015L165.668 14.0967C165.859 14.4298 166.121 14.858 166.407 15.2863L167.455 16.8565V19.0454ZM149.205 23.1614C149.205 23.4944 148.657 23.7562 147.99 23.7562H145.56C144.869 23.7562 144.345 23.4944 144.345 23.1614V21.9956C144.345 21.6863 144.869 21.4246 145.56 21.4246H147.99C148.395 21.4246 148.776 21.5197 148.99 21.6863C149.133 21.7814 149.205 21.8766 149.205 21.9956V23.1614ZM150.11 17.6417V17.6654C149.753 18.2365 149.276 18.6171 148.752 18.6171H144.94C144.535 18.6171 144.178 18.403 143.868 18.0699L143.844 18.0461L143.797 18.0223C143.749 18.0223 143.749 17.9985 143.725 17.9985V17.9034V17.8796C143.296 17.2848 143.01 16.4045 143.01 15.4052V8.98143C143.01 7.22084 143.868 5.76954 144.94 5.76954H148.752C149.8 5.76954 150.658 7.22084 150.658 8.98143V15.4052C150.658 16.1666 150.491 16.8803 150.229 17.4275L150.11 17.6417ZM149.991 39.3874C149.991 42.4565 152.588 44.9547 155.757 44.9547C158.949 44.9547 161.522 42.4565 161.522 39.3874C161.522 36.3182 158.949 33.8201 155.757 33.8201C152.588 33.8201 149.991 36.3182 149.991 39.3874ZM161.642 28.5145C162.857 29.2997 164 30.2989 164.572 31.1316C164.977 31.7502 165.954 33.6298 165.954 33.8201C165.954 33.8439 165.978 33.8915 166.002 33.9153V33.9866C166.002 34.1056 166.049 34.2483 166.097 34.3435L166.168 34.4387V34.6528C166.192 34.8194 166.216 35.0335 166.264 35.2238L166.454 36.1993H167.884C169.552 36.1755 170.076 35.9852 170.481 35.2C170.743 34.7718 170.743 34.0342 170.743 26.3257C170.743 19.093 170.719 17.5227 170.433 17.261H170.409V17.2372C170.362 17.1658 170.314 17.0944 170.242 17.0469L170.171 16.9993L170.147 16.9041C170.1 16.8327 170.028 16.7376 169.957 16.6424C169.814 16.4521 169.313 15.7383 168.861 15.0959C168.646 14.7628 168.432 14.4536 168.241 14.2632L168.122 14.1205L168.098 14.0729C168.074 14.0015 168.051 13.9539 168.027 13.9063L167.979 13.8826V13.8112C167.931 13.6922 167.86 13.5733 167.741 13.5019L167.669 13.3591C167.598 13.2402 167.526 13.0974 167.407 12.9309C167.121 12.5264 166.55 11.7175 166.145 11.1227C165.978 10.8848 165.835 10.6944 165.692 10.5279L165.644 10.4565L165.62 10.4089L165.501 10.1948C165.477 10.0283 165.406 9.86173 165.263 9.76656H165.239L164.81 9.0766C164.596 8.71972 164.143 7.95839 163.667 7.50634L163.619 7.48255L163.595 7.41117C163.548 7.3398 163.5 7.24463 163.428 7.17325C162.857 6.36433 162.475 5.84091 162.118 5.2937C161.546 4.38961 160.855 3.8424 160.069 3.60448C159.021 3.31898 145.417 3.29519 143.058 3.5569C142.915 3.5569 142.796 3.58069 142.748 3.60448C142.105 3.86619 141.533 4.46099 141.366 5.0082C141.319 5.19853 141.295 8.05355 141.295 11.9316C141.295 13.2402 141.295 14.6439 141.295 16.0952L141.343 26.7777H148.728C156.996 26.7777 158.068 26.8491 159.974 27.6342C160.522 27.8721 161.094 28.1814 161.642 28.5145Z" fill="#2962FF"/>
<path fill-rule="evenodd" clip-rule="evenodd" d="M125.427 30.8222C125.809 30.1561 126.547 29.823 127.262 29.823C128.525 29.823 129.359 30.5367 129.359 31.8929V35.3665H128.477V32.0118C128.477 30.965 127.905 30.513 127.071 30.513C126.166 30.513 125.427 31.2029 125.427 32.2022V35.3665H124.546V29.942H125.427V30.8222L125.356 30.9412L125.427 31.0364V30.8222Z" fill="#2962FF"/>
<path fill-rule="evenodd" clip-rule="evenodd" d="M121.687 31.4408C121.687 30.8936 121.092 30.513 120.282 30.513C119.495 30.513 118.876 30.8936 118.828 31.4646H117.923C117.971 30.513 118.971 29.823 120.329 29.823C121.592 29.823 122.569 30.4178 122.569 31.5122V34.3672C122.569 34.6052 122.664 34.7241 122.902 34.7241C122.998 34.7241 123.069 34.7241 123.117 34.7003V35.3427C123.045 35.3903 122.879 35.4141 122.688 35.4141C122.188 35.4141 121.83 35.1524 121.783 34.5338V34.4148L121.854 34.2959L121.783 34.2721V34.4148L121.711 34.51C121.306 35.0334 120.591 35.4854 119.567 35.4854C118.542 35.4854 117.732 34.9858 117.732 34.0341C117.732 32.9635 118.757 32.6066 119.805 32.4163C120.877 32.2022 121.687 32.0832 121.687 31.4408ZM121.687 32.2973C121.306 32.7018 120.782 32.8208 119.924 33.0111C119.043 33.2014 118.638 33.4394 118.638 33.9628C118.638 34.6052 119.162 34.7955 119.686 34.7955C120.448 34.7955 121.259 34.4148 121.687 33.6535V32.2973Z" fill="#2962FF"/>
<path fill-rule="evenodd" clip-rule="evenodd" d="M111.299 37.5315V29.942H112.157V30.8936L112.133 30.9174C112.109 30.965 112.085 31.0126 112.061 31.0602H112.157V30.8936L112.228 30.7747C112.609 30.1799 113.3 29.823 114.11 29.823C115.635 29.823 116.612 31.084 116.612 32.6304C116.612 34.3196 115.54 35.4854 114.063 35.4854C113.229 35.4854 112.585 35.081 112.252 34.5814L112.18 34.4624V34.3434H112.109L112.18 34.4624V37.5315H111.299ZM112.18 32.6066V32.7494C112.18 33.82 112.871 34.7955 113.967 34.7955C115.111 34.7955 115.706 33.7962 115.706 32.6542C115.706 31.4884 115.087 30.513 113.967 30.513C112.824 30.513 112.18 31.4884 112.18 32.6066Z" fill="#2962FF"/>
<path fill-rule="evenodd" clip-rule="evenodd" d="M101.984 31.0364V30.8222L102.055 30.7033C102.436 30.1085 103.056 29.823 103.723 29.823C104.533 29.823 105.176 30.0847 105.486 30.6795L105.534 30.7509H105.557H105.581L105.629 30.6795C106.01 30.1085 106.63 29.823 107.344 29.823C108.631 29.823 109.441 30.513 109.441 31.7025V35.3665H108.536V31.8453C108.536 30.9174 108.059 30.513 107.201 30.513C106.558 30.513 105.891 30.9174 105.724 31.8215V31.7025V31.6788L105.7 31.7025V31.7263L105.724 31.8215V35.3665H104.843V31.9643C104.843 30.965 104.366 30.513 103.532 30.513C102.651 30.513 102.008 31.2743 102.008 32.1784V35.3665H101.126V29.942H101.984V30.8222C101.96 30.8698 101.936 30.9174 101.912 30.965L101.984 31.0364Z" fill="#2962FF"/>
<path fill-rule="evenodd" clip-rule="evenodd" d="M94.8601 34.7003C94.3597 34.2007 94.0977 33.4869 94.0977 32.6542C94.0977 30.965 95.1936 29.823 96.8614 29.823C97.6714 29.823 98.3624 30.1085 98.8389 30.6081C99.3392 31.1078 99.6013 31.7977 99.6013 32.6542C99.6013 34.3434 98.5053 35.4854 96.8614 35.4854C96.0275 35.4854 95.3366 35.1999 94.8601 34.7003ZM94.9792 32.6542C94.9792 33.9152 95.7416 34.7955 96.8614 34.7955C97.9812 34.7955 98.7197 33.9152 98.7197 32.6542C98.7197 31.3933 97.9812 30.513 96.8614 30.513C95.7416 30.513 94.9792 31.3933 94.9792 32.6542Z" fill="#2962FF"/>
<path fill-rule="evenodd" clip-rule="evenodd" d="M86.6636 31.6075C86.6636 33.3443 87.688 34.7718 89.4987 34.7718C90.8806 34.7718 91.8813 33.9153 92.1195 32.7495H93.0249C92.6675 34.4387 91.4048 35.4855 89.4749 35.4855C87.0686 35.4855 85.7344 33.8201 85.7344 31.6313C85.7344 29.3473 87.2115 27.8008 89.5464 27.8008C91.2618 27.8008 92.5722 28.6335 93.001 30.1324H92.0957C91.7145 29.0855 90.833 28.5145 89.5702 28.5145C87.6642 28.5145 86.6636 29.8945 86.6636 31.6075Z" fill="#2962FF"/>
<path fill-rule="evenodd" clip-rule="evenodd" d="M81.3268 35.3665H80.4453V27.8959H81.3268V35.3665Z" fill="#2962FF"/>
<path fill-rule="evenodd" clip-rule="evenodd" d="M77.5868 31.4408C77.5868 30.8936 77.015 30.513 76.1811 30.513C75.4187 30.513 74.7754 30.8936 74.7278 31.4646H73.8224C73.8701 30.513 74.8708 29.823 76.2288 29.823C77.4915 29.823 78.4684 30.4178 78.4684 31.5122V34.3672C78.4684 34.6052 78.5637 34.7241 78.8019 34.7241C78.8972 34.7241 78.9687 34.7241 79.0163 34.7003V35.3427C78.9449 35.3903 78.7781 35.4141 78.5875 35.4141C78.0871 35.4141 77.7298 35.1524 77.6821 34.5338V34.4148L77.7536 34.2959L77.6821 34.2721V34.4148L77.6106 34.51C77.2056 35.0334 76.4909 35.4854 75.4664 35.4854C74.4419 35.4854 73.6318 34.9858 73.6318 34.0341C73.6318 32.9635 74.6563 32.6066 75.7046 32.4163C76.7768 32.2022 77.5868 32.0832 77.5868 31.4408ZM77.5868 32.2973C77.2056 32.7018 76.6815 32.8208 75.8238 33.0111C74.9422 33.2014 74.5372 33.4394 74.5372 33.9628C74.5372 34.6052 75.0613 34.7955 75.5855 34.7955C76.3479 34.7955 77.158 34.4148 77.5868 33.6535V32.2973Z" fill="#2962FF"/>
<path fill-rule="evenodd" clip-rule="evenodd" d="M61.6716 34.7003C61.1951 34.2007 60.9092 33.4869 60.9092 32.6542C60.9092 30.965 62.029 29.823 63.6729 29.823C65.3407 29.823 66.4366 30.965 66.4366 32.6542C66.4366 33.4869 66.1507 34.2007 65.6742 34.7003C65.1977 35.1999 64.5068 35.4854 63.6729 35.4854C62.8628 35.4854 62.1719 35.1999 61.6716 34.7003ZM61.8145 32.6542C61.8145 33.9152 62.5531 34.7955 63.6729 34.7955C64.7927 34.7955 65.5313 33.9152 65.5313 32.6542C65.5313 31.3933 64.7927 30.513 63.6729 30.513C62.5531 30.513 61.8145 31.3933 61.8145 32.6542Z" fill="#2962FF"/>
<path fill-rule="evenodd" clip-rule="evenodd" d="M55.6436 30.6795C56.0248 30.1085 56.6442 29.823 57.359 29.823C58.6455 29.823 59.4318 30.513 59.4318 31.7025V35.3665H58.5502V31.8453C58.5502 30.9174 58.0737 30.513 57.216 30.513C56.5728 30.513 55.9057 30.9174 55.7389 31.8215V31.7025V31.5836H55.7151L55.6912 31.6312L55.7389 31.8215V35.3665H54.8573V31.9643C54.8573 30.965 54.3808 30.513 53.547 30.513C52.6654 30.513 52.0222 31.2743 52.0222 32.1784V35.3665H51.1406V29.942H51.9983V30.8222C51.9745 30.8698 51.9507 30.9174 51.9269 30.965L51.9983 31.0364V30.8222L52.0698 30.7033C52.451 30.1085 53.0705 29.823 53.7376 29.823C54.5476 29.823 55.1909 30.0847 55.5006 30.6795L55.5721 30.8222L55.6436 30.6795Z" fill="#2962FF"/>
<path fill-rule="evenodd" clip-rule="evenodd" d="M45.1368 32.8208C45.1606 33.8438 45.8277 34.7955 47.0428 34.7955C47.829 34.7955 48.4723 34.4386 48.6868 33.82H49.5445C49.3062 34.8193 48.3056 35.4854 47.019 35.4854C45.2321 35.4854 44.2314 34.1769 44.2314 32.6304C44.2314 31.0364 45.2798 29.823 46.9713 29.823C48.5676 29.823 49.6398 30.9174 49.6398 32.4877V32.8208H45.1368ZM48.7344 32.2022C48.6868 31.2267 47.9958 30.513 46.9713 30.513C45.8992 30.513 45.2321 31.2981 45.1606 32.2022H48.7344Z" fill="#2962FF"/>
<path fill-rule="evenodd" clip-rule="evenodd" d="M37.7266 32.1784V35.3665H36.8213V27.9435H40.2759C41.7293 27.9435 42.8014 28.8476 42.8014 30.0372C42.8014 30.8223 42.3249 31.4885 41.5625 31.8215L41.3957 31.774V31.8691L41.5625 31.8215C42.3725 32.0833 42.6823 32.6543 42.6823 33.3442V34.5338C42.6823 34.8431 42.7776 35.1048 42.9444 35.3665H41.9675C41.8484 35.1762 41.7769 34.8907 41.7769 34.5576V33.3442C41.7769 32.6543 41.2766 32.1784 40.2521 32.1784H37.7266ZM37.7266 31.4647H40.2521C41.2289 31.4647 41.896 30.8461 41.896 30.061C41.896 29.252 41.2051 28.6334 40.2521 28.6334H37.7266V31.4647Z" fill="#2962FF"/>
<path fill-rule="evenodd" clip-rule="evenodd" d="M21.2402 35.3665V29.942H22.0979V30.8222L22.0741 30.8698H22.0979V30.8222H22.1218C22.4791 30.1561 23.2415 29.823 23.9563 29.823C24.4328 29.823 24.8378 29.9182 25.1714 30.1085C25.7194 30.4416 26.0529 31.0602 26.0529 31.8929V35.3665H25.1714V32.0118C25.1714 30.965 24.5996 30.513 23.7657 30.513C23.1462 30.513 22.5983 30.846 22.3124 31.3695C22.1932 31.6074 22.1218 31.8929 22.1218 32.2022V35.3665H21.2402Z" fill="#2962FF"/>
<path fill-rule="evenodd" clip-rule="evenodd" d="M11.8296 35.0572C11.4484 35.3427 10.9242 35.4855 10.3048 35.4855C8.92293 35.4855 8.01758 34.7241 8.01758 33.487V33.0349H8.92293V33.4632C8.92293 34.2959 9.49474 34.7955 10.3048 34.7955C11.1863 34.7955 11.7105 34.2483 11.7105 33.4156V27.9435H12.6158V33.368C12.6158 34.1056 12.3299 34.6766 11.8296 35.0572Z" fill="#2962FF"/>
<path fill-rule="evenodd" clip-rule="evenodd" d="M19.3342 29.942V35.3666H18.4765V34.4863L18.405 34.6052C18.0476 35.1524 17.4043 35.4855 16.6419 35.4855C15.3792 35.4855 14.5215 34.7718 14.5215 33.4394V29.942H15.403V33.2967C15.403 34.3435 15.9748 34.7955 16.8325 34.7955C17.3567 34.7955 17.7855 34.5576 18.0953 34.2008L18.1191 34.1294V34.1056L18.1667 34.0342L18.2144 34.0104L18.262 33.939C18.3812 33.7011 18.4526 33.4394 18.4526 33.1539V29.942H19.3342Z" fill="#2962FF"/>
</g>
<defs>
<clipPath id="clip0_606_519">
<rect width="176.366" height="48" fill="white"/>
</clipPath>
</defs>
</svg>
