<svg width="86" height="155" viewBox="0 0 86 155" fill="none" xmlns="http://www.w3.org/2000/svg">
<g clip-path="url(#clip0_576_4783)">
<path d="M72.8985 1.4021H13.1001C6.63585 1.4021 1.39551 6.66391 1.39551 13.1547V141.512C1.39551 148.003 6.63585 153.265 13.1001 153.265H72.8985C79.3628 153.265 84.6031 148.003 84.6031 141.512V13.1547C84.6031 6.66391 79.3628 1.4021 72.8985 1.4021Z" fill="#D9E6FF"/>
<path d="M72.8982 154.667H13.0998C5.87694 154.667 -0.000976562 148.765 -0.000976562 141.512V13.1545C-0.000976562 5.90199 5.87694 0 13.0998 0H72.8982C80.1211 0 85.999 5.90199 85.999 13.1545V141.512C85.999 148.765 80.1211 154.667 72.8982 154.667ZM13.0998 2.80379C7.41739 2.80379 2.79138 7.44875 2.79138 13.1545V141.512C2.79138 147.218 7.41739 151.863 13.0998 151.863H72.8982C78.5807 151.863 83.2067 147.218 83.2067 141.512V13.1545C83.2067 7.44875 78.5807 2.80379 72.8982 2.80379H13.0998Z" fill="#1433E1"/>
<path d="M50.2438 14.5419H35.7561C34.937 14.5419 34.2715 13.8737 34.2715 13.0512C34.2715 12.2288 34.937 11.5605 35.7561 11.5605H50.2438C51.0629 11.5605 51.7284 12.2288 51.7284 13.0512C51.7284 13.8737 51.0629 14.5419 50.2438 14.5419Z" fill="#1433E1"/>
<path d="M14.697 135.161C11.8674 135.161 9.56836 132.853 9.56836 130.012V21.5141C9.56836 18.673 11.8674 16.3645 14.697 16.3645H24.796L26.4202 17.7197C27.1788 18.3505 28.1422 18.701 29.1288 18.701H57.6761C58.7092 18.701 59.7005 18.3225 60.4777 17.6402L61.9251 16.3645H71.3028C74.1324 16.3645 76.4314 18.673 76.4314 21.5141V130.012C76.4314 132.853 74.1324 135.161 71.3028 135.161H14.697Z" fill="#EEFFF1"/>
<path d="M71.3026 17.0608C73.7459 17.0608 75.7332 19.0562 75.7332 21.5095V130.007C75.7332 132.46 73.7459 134.456 71.3026 134.456H14.6968C12.2535 134.456 10.2663 132.46 10.2663 130.007V21.5142C10.2663 19.0608 12.2535 17.0655 14.6968 17.0655H24.5446L25.978 18.2571C26.8622 18.9954 27.9838 19.402 29.1333 19.402H57.6806C58.8813 19.402 60.0401 18.9627 60.943 18.1683L62.1949 17.0655H71.3073M71.3073 15.6636H61.669L60.0215 17.1169C59.3746 17.687 58.5415 18.0001 57.6806 18.0001H29.1333C28.3049 18.0001 27.5045 17.7103 26.8715 17.1823L25.0518 15.6636H14.6968C11.4763 15.6636 8.87012 18.2851 8.87012 21.5142V130.012C8.87012 133.245 11.481 135.862 14.6968 135.862H71.3073C74.5278 135.862 77.134 133.241 77.134 130.012V21.5142C77.134 18.2804 74.5231 15.6636 71.3073 15.6636Z" fill="#1433E1"/>
<path d="M46.0553 143.573C46.0553 142.077 44.8499 140.867 43.3606 140.867C41.8714 140.867 40.666 142.077 40.666 143.573C40.666 145.068 41.8714 146.278 43.3606 146.278C44.8499 146.278 46.0553 145.068 46.0553 143.573Z" fill="#1433E1"/>
<path d="M45.1802 80.3799C32.9031 80.3799 22.9111 70.3517 22.9111 58.0197C22.9111 53.4542 24.2747 49.0616 26.8484 45.3232C27.2114 44.7904 27.9374 44.6596 28.4679 45.0241C28.9985 45.3933 29.1288 46.1176 28.7658 46.6503C26.4621 50.0008 25.2428 53.9308 25.2428 58.0197C25.2428 69.0573 34.1876 78.0434 45.1848 78.0434C56.1821 78.0434 65.1269 69.062 65.1269 58.0197C65.1269 46.9774 56.1821 37.9959 45.1848 37.9959C43.9562 37.9959 42.7322 38.1081 41.5362 38.3277C40.9032 38.4445 40.2982 38.024 40.1819 37.3931C40.0655 36.7576 40.4844 36.1501 41.1127 36.0333C42.4437 35.7856 43.8119 35.6594 45.1848 35.6594C57.4619 35.6594 67.4539 45.6877 67.4539 58.0197C67.4539 70.3517 57.4666 80.3799 45.1848 80.3799H45.1802Z" fill="#1433E1"/>
<path d="M61.6621 65.0705C65.5378 55.9338 61.303 45.3722 52.2035 41.4807C43.104 37.5892 32.5855 41.8413 28.7099 50.9781C24.8342 60.1149 29.069 70.6764 38.1685 74.5679C47.268 78.4595 57.7865 74.2073 61.6621 65.0705Z" fill="#57FF81"/>
<path d="M45.1811 76.2346C35.1798 76.2346 27.04 68.0662 27.04 58.0193C27.04 47.9723 35.1751 39.804 45.1811 39.804C55.187 39.804 63.3221 47.9723 63.3221 58.0193C63.3221 68.0662 55.187 76.2346 45.1811 76.2346ZM45.1811 40.2759C35.4357 40.2759 27.5054 48.2387 27.5054 58.0239C27.5054 67.8092 35.4357 75.772 45.1811 75.772C54.9264 75.772 62.8567 67.8092 62.8567 58.0239C62.8567 48.2387 54.9264 40.2759 45.1811 40.2759Z" fill="#1433E1"/>
<path d="M43.2384 67C42.7492 67 42.2829 66.7945 41.9568 66.4284L36.4249 60.2342C35.803 59.5356 35.8713 58.4746 36.5803 57.8619C37.2893 57.2492 38.3662 57.3165 38.988 58.0151L43.0943 62.6103L50.9012 51.7126C51.4434 50.9542 52.5088 50.7711 53.2785 51.3091C54.0482 51.8433 54.2302 52.8931 53.688 53.6515L44.6337 66.2902C44.3341 66.7123 43.8526 66.9738 43.3294 67C43.299 67 43.2687 67 43.2384 67Z" fill="#1433E1"/>
<path d="M64.3258 97.0909H21.6725C20.9 97.0909 20.2764 96.4647 20.2764 95.689C20.2764 94.9133 20.9 94.2871 21.6725 94.2871H64.3212C65.0937 94.2871 65.7174 94.9133 65.7174 95.689C65.7174 96.4647 65.0937 97.0909 64.3212 97.0909H64.3258Z" fill="#1433E1"/>
<path d="M64.3258 102.727H21.6725C20.9 102.727 20.2764 102.1 20.2764 101.325C20.2764 100.549 20.9 99.9229 21.6725 99.9229H64.3212C65.0937 99.9229 65.7174 100.549 65.7174 101.325C65.7174 102.1 65.0937 102.727 64.3212 102.727H64.3258Z" fill="#1433E1"/>
<path d="M64.3258 108.362H21.6725C20.9 108.362 20.2764 107.736 20.2764 106.96C20.2764 106.185 20.9 105.558 21.6725 105.558H64.3212C65.0937 105.558 65.7174 106.185 65.7174 106.96C65.7174 107.736 65.0937 108.362 64.3212 108.362H64.3258Z" fill="#1433E1"/>
</g>
<defs>
<clipPath id="clip0_576_4783">
<rect width="86" height="154.667" fill="white"/>
</clipPath>
</defs>
</svg>
