<svg width="54" height="55" viewBox="0 0 54 55" fill="none" xmlns="http://www.w3.org/2000/svg">
<path d="M41.5581 17.6023H12.7129V53.1021H41.5581V17.6023Z" fill="#BCD3FF"/>
<path d="M52.6498 23.1121H50.4316V25.3302H52.6498V23.1121Z" fill="#1433E1"/>
<path d="M50.4311 25.3308H48.2129V27.549H50.4311V25.3308Z" fill="#1433E1"/>
<path d="M50.4311 20.8943H48.2129V23.1125H50.4311V20.8943Z" fill="#1433E1"/>
<path d="M48.2123 23.1121H45.9941V25.3302H48.2123V23.1121Z" fill="#1433E1"/>
<path d="M8.27678 4.29272H6.05859V6.51091H8.27678V4.29272Z" fill="#1433E1"/>
<path d="M6.05803 6.51147H3.83984V8.72966H6.05803V6.51147Z" fill="#1433E1"/>
<path d="M6.05803 2.07495H3.83984V4.29314H6.05803V2.07495Z" fill="#1433E1"/>
<path d="M3.84026 4.29272H1.62207V6.51091H3.84026V4.29272Z" fill="#1433E1"/>
<path d="M41.5584 54.1671C40.9334 54.1671 40.4053 53.639 40.4053 53.014V17.5142C40.4053 16.898 40.9334 16.3611 41.5584 16.3611C42.1833 16.3611 42.7115 16.898 42.7115 17.5142V53.014C42.6235 53.639 42.0865 54.1671 41.5584 54.1671Z" fill="#1433E1"/>
<path d="M12.7127 54.1671C12.0965 54.1671 11.5596 53.639 11.5596 53.014V17.5142C11.5596 16.898 12.0965 16.3611 12.7127 16.3611C13.3288 16.3611 13.8658 16.898 13.8658 17.5142V53.014C13.7778 53.639 13.2408 54.1671 12.7127 54.1671Z" fill="#1433E1"/>
<path d="M44.8414 18.6676H9.34158C8.71662 18.6676 8.18848 18.1394 8.18848 17.5145V14.1432C8.18848 11.7489 10.1426 9.70679 12.6249 9.70679H21.4976C22.1226 9.70679 22.6507 10.2349 22.6507 10.8599C22.6507 11.4849 22.1226 12.013 21.4976 12.013H12.6249C11.3837 12.013 10.4067 12.9901 10.4067 14.2312V16.4494H43.6883V14.2312C43.6883 12.9901 42.7112 12.013 41.4701 12.013H32.5973C31.9724 12.013 31.4442 11.4849 31.4442 10.8599C31.4442 10.2349 31.9812 9.70679 32.5973 9.70679H41.4701C43.8643 9.70679 45.9065 11.6609 45.9065 14.1432V17.5145C45.9945 18.1394 45.4664 18.6676 44.8414 18.6676Z" fill="#1433E1"/>
<path d="M32.6854 12.0127H21.5945C20.9695 12.0127 20.4414 11.4846 20.4414 10.8596V1.98685C20.4414 1.36188 20.9783 0.83374 21.5945 0.83374H32.6854C33.3104 0.83374 33.8386 1.36188 33.8386 1.98685V10.8596C33.7505 11.4846 33.2136 12.0127 32.6854 12.0127ZM22.6596 9.79452H31.5323V3.13995H22.6596V9.79452Z" fill="#1433E1"/>
<path d="M19.367 47.5123C18.742 47.5123 18.2139 46.9753 18.2139 46.3592V24.1773C18.2139 23.5523 18.7508 23.0242 19.367 23.0242C19.9831 23.0242 20.5201 23.5611 20.5201 24.1773V46.368C20.4321 46.9929 19.8951 47.5211 19.367 47.5211V47.5123Z" fill="#1433E1"/>
<path d="M27.0955 47.5123C26.4793 47.5123 25.9424 46.9753 25.9424 46.3592V24.1773C25.9424 23.5523 26.4793 23.0242 27.0955 23.0242C27.7117 23.0242 28.2486 23.5611 28.2486 24.1773V46.368C28.2486 46.9929 27.7117 47.5211 27.0955 47.5211V47.5123Z" fill="#1433E1"/>
<path d="M34.9041 47.5123C34.2791 47.5123 33.751 46.9753 33.751 46.3592V24.1773C33.751 23.5523 34.2791 23.0242 34.9041 23.0242C35.529 23.0242 36.0572 23.5611 36.0572 24.1773V46.368C35.9692 46.9929 35.4322 47.5211 34.9041 47.5211V47.5123Z" fill="#1433E1"/>
<path d="M52.649 54.1671H1.62186C0.99689 54.1671 0.46875 53.6389 0.46875 53.0139C0.46875 52.389 0.99689 51.8608 1.62186 51.8608H52.649C53.2739 51.8608 53.8021 52.389 53.8021 53.0139C53.7141 53.6389 53.1771 54.1671 52.649 54.1671Z" fill="#1433E1"/>
<path d="M49.2775 37.5746C47.4115 37.5746 45.9062 36.0694 45.9062 34.2033C45.9062 32.3372 47.4115 30.832 49.2775 30.832C51.1436 30.832 52.6488 32.3372 52.6488 34.2033C52.6488 36.0694 51.1436 37.5746 49.2775 37.5746ZM49.2775 33.1382C48.6526 33.1382 48.1244 33.6664 48.1244 34.2913C48.1244 34.9163 48.6526 35.4445 49.2775 35.4445C49.9025 35.4445 50.4306 34.9163 50.4306 34.2913C50.4306 33.6664 49.9025 33.1382 49.2775 33.1382Z" fill="#1433E1"/>
<path d="M4.90547 33.1378C3.03938 33.1378 1.53418 31.6326 1.53418 29.7666C1.53418 27.9005 3.03938 26.3953 4.90547 26.3953C6.77157 26.3953 8.27677 27.9005 8.27677 29.7666C8.27677 31.6326 6.77157 33.1378 4.90547 33.1378ZM4.90547 28.7015C4.28051 28.7015 3.75237 29.2296 3.75237 29.8546C3.75237 30.4795 4.28051 31.0077 4.90547 31.0077C5.53044 31.0077 6.05858 30.4795 6.05858 29.8546C6.05858 29.2296 5.53044 28.7015 4.90547 28.7015Z" fill="#1433E1"/>
</svg>
