<svg width="184" height="120" viewBox="0 0 184 120" fill="none" xmlns="http://www.w3.org/2000/svg">
<path d="M114.8 23.2551V101.476H168.622C172.439 101.476 175.53 98.3786 175.53 94.5645V75.9404C175.53 73.3327 175.117 70.744 174.305 68.2694L163.176 34.3603C161.002 27.7342 154.82 23.2551 147.85 23.2551H114.8Z" fill="#D9E6FF"/>
<path d="M128.374 34.9636V57.1168C128.374 58.67 129.632 59.9335 131.19 59.9335H132.638C135.064 59.9335 137.419 60.7315 139.346 62.2087L153.377 72.9623C154.929 74.1545 156.833 74.8005 158.789 74.8005H175.53L173.631 66.8968L163.171 34.3604L128.374 34.9636Z" fill="#B2FFC4"/>
<path d="M164.657 102.202V91.6957C164.657 88.5228 167.226 85.9531 170.397 85.9531H175.53V95.5051C175.53 99.2622 172.458 102.297 168.702 102.255L164.657 102.207V102.202Z" fill="#57FF81"/>
<path d="M164.658 103.627C163.87 103.627 163.233 102.991 163.233 102.202V91.6956C163.233 87.7437 166.448 84.5281 170.398 84.5281H175.531C176.319 84.5281 176.955 85.1646 176.955 85.953C176.955 86.7415 176.319 87.378 175.531 87.378H170.398C168.019 87.378 166.082 89.3159 166.082 91.6956V102.202C166.082 102.991 165.446 103.627 164.658 103.627Z" fill="#1433E1"/>
<path d="M168.622 103.627H113.375V22.5569H147.85C155.456 22.5569 162.155 27.4112 164.529 34.6405L175.658 68.5496C176.518 71.1715 176.954 73.9027 176.954 76.6671V95.2912C176.954 99.889 173.213 103.627 168.622 103.627ZM116.224 100.777H168.622C171.646 100.777 174.106 98.3168 174.106 95.2912V76.6671C174.106 74.2067 173.716 71.7747 172.952 69.4426L161.823 35.5334C159.833 29.4774 154.221 25.4115 147.85 25.4115H116.224V100.777Z" fill="#1433E1"/>
<path d="M5.74541 84.7371H114.8V102.202H5.74541C3.36195 102.202 1.4248 100.264 1.4248 97.8799V89.0594C1.4248 86.675 3.36195 84.7371 5.74541 84.7371Z" fill="#D9E6FF"/>
<path d="M116.224 103.627H5.74497C2.57812 103.627 0 101.048 0 97.8799V89.0547C0 85.8865 2.57812 83.3074 5.74497 83.3074H116.224V103.622V103.627ZM5.74497 86.162C4.14968 86.162 2.84875 87.4587 2.84875 89.0594V97.8846C2.84875 99.4806 4.14493 100.782 5.74497 100.782H113.375V86.1668H5.74497V86.162Z" fill="#1433E1"/>
<path d="M181.47 55.1313C180.578 55.1313 179.747 54.5709 179.448 53.6779L175.412 41.7463H165.793C164.611 41.7463 163.656 40.7916 163.656 39.6089C163.656 38.4262 164.611 37.4714 165.793 37.4714H176.946C177.862 37.4714 178.674 38.0557 178.968 38.9249L183.498 52.3099C183.878 53.4262 183.275 54.6421 182.159 55.0221C181.931 55.0981 181.703 55.1361 181.475 55.1361L181.47 55.1313Z" fill="#1433E1"/>
<path d="M163.176 33.6621H114.8V36.512H163.176V33.6621Z" fill="#1433E1"/>
<path d="M175.531 76.9474H158.79C156.534 76.9474 154.303 76.1922 152.508 74.8195L138.478 64.0659C136.811 62.7882 134.737 62.0852 132.633 62.0852H131.185C128.849 62.0852 126.945 60.1853 126.945 57.8483V35.6951H129.794V57.8483C129.794 58.6131 130.416 59.2353 131.185 59.2353H132.633C135.354 59.2353 138.046 60.1473 140.206 61.8049L154.236 72.5586C155.533 73.5513 157.147 74.1023 158.785 74.1023H175.526V76.9522L175.531 76.9474Z" fill="#1433E1"/>
<path d="M134.071 74.2639H128.374C127.192 74.2639 126.237 73.3092 126.237 72.1264C126.237 70.9437 127.192 69.989 128.374 69.989H134.071C135.254 69.989 136.208 70.9437 136.208 72.1264C136.208 73.3092 135.254 74.2639 134.071 74.2639Z" fill="#1433E1"/>
<path d="M164.658 103.627C163.87 103.627 163.233 102.991 163.233 102.202V91.6956C163.233 87.7437 166.448 84.5281 170.398 84.5281H175.531C176.319 84.5281 176.955 85.1646 176.955 85.953C176.955 86.7415 176.319 87.378 175.531 87.378H170.398C168.019 87.378 166.082 89.3159 166.082 91.6956V102.202C166.082 102.991 165.446 103.627 164.658 103.627Z" fill="#1433E1"/>
<path d="M37.3377 118.575C46.3765 118.575 53.7038 111.245 53.7038 102.203C53.7038 93.1601 46.3765 85.8298 37.3377 85.8298C28.299 85.8298 20.9717 93.1601 20.9717 102.203C20.9717 111.245 28.299 118.575 37.3377 118.575Z" fill="#141B57"/>
<path d="M37.3373 120C27.5281 120 19.5469 112.016 19.5469 102.202C19.5469 92.3893 27.5281 84.4048 37.3373 84.4048C47.1465 84.4048 55.1277 92.3893 55.1277 102.202C55.1277 112.016 47.1465 120 37.3373 120ZM37.3373 87.2547C29.0997 87.2547 22.3956 93.9615 22.3956 102.202C22.3956 110.443 29.0997 117.15 37.3373 117.15C45.5749 117.15 52.279 110.443 52.279 102.202C52.279 93.9615 45.5749 87.2547 37.3373 87.2547Z" fill="#1433E1"/>
<path d="M137.344 118.575C146.382 118.575 153.71 111.245 153.71 102.203C153.71 93.1601 146.382 85.8298 137.344 85.8298C128.305 85.8298 120.978 93.1601 120.978 102.203C120.978 111.245 128.305 118.575 137.344 118.575Z" fill="#141B57"/>
<path d="M137.343 120C127.534 120 119.553 112.016 119.553 102.202C119.553 92.3893 127.534 84.4048 137.343 84.4048C147.152 84.4048 155.134 92.3893 155.134 102.202C155.134 112.016 147.152 120 137.343 120ZM137.343 87.2547C129.106 87.2547 122.401 93.9615 122.401 102.202C122.401 110.443 129.106 117.15 137.343 117.15C145.581 117.15 152.285 110.443 152.285 102.202C152.285 93.9615 145.581 87.2547 137.343 87.2547Z" fill="#1433E1"/>
<path d="M137.343 111.541C142.498 111.541 146.678 107.36 146.678 102.202C146.678 97.0451 142.498 92.8643 137.343 92.8643C132.188 92.8643 128.009 97.0451 128.009 102.202C128.009 107.36 132.188 111.541 137.343 111.541Z" fill="#D9E6FF"/>
<path d="M137.343 112.965C131.413 112.965 126.584 108.135 126.584 102.202C126.584 96.2698 131.413 91.4392 137.343 91.4392C143.273 91.4392 148.102 96.2698 148.102 102.202C148.102 108.135 143.273 112.965 137.343 112.965ZM137.343 94.2891C132.979 94.2891 129.433 97.8372 129.433 102.202C129.433 106.567 132.979 110.116 137.343 110.116C141.706 110.116 145.253 106.567 145.253 102.202C145.253 97.8372 141.706 94.2891 137.343 94.2891Z" fill="#1433E1"/>
<path d="M37.3383 111.541C42.4936 111.541 46.6727 107.36 46.6727 102.202C46.6727 97.0451 42.4936 92.8643 37.3383 92.8643C32.1831 92.8643 28.0039 97.0451 28.0039 102.202C28.0039 107.36 32.1831 111.541 37.3383 111.541Z" fill="#D9E6FF"/>
<path d="M37.3379 112.965C31.4077 112.965 26.5791 108.135 26.5791 102.202C26.5791 96.2698 31.4077 91.4392 37.3379 91.4392C43.268 91.4392 48.0966 96.2698 48.0966 102.202C48.0966 108.135 43.268 112.965 37.3379 112.965ZM37.3379 94.2891C32.9745 94.2891 29.4278 97.8372 29.4278 102.202C29.4278 106.567 32.9745 110.116 37.3379 110.116C41.7012 110.116 45.2479 106.567 45.2479 102.202C45.2479 97.8372 41.7012 94.2891 37.3379 94.2891Z" fill="#1433E1"/>
<path d="M114.8 84.7373H6.79004V8.33607C6.79004 4.5172 9.88568 1.42505 13.6983 1.42505H107.887C111.705 1.42505 114.796 4.52195 114.796 8.33607V84.7373H114.8Z" fill="#2962FF"/>
<path d="M116.224 86.1621H5.36523V8.33597C5.36523 3.74288 9.10184 0 13.6978 0H107.887C112.483 0 116.22 3.74288 116.22 8.33597V86.1621H116.224ZM8.21398 83.3122H113.376V8.33597C113.376 5.31032 110.916 2.84991 107.892 2.84991H13.6978C10.6734 2.84991 8.21398 5.31032 8.21398 8.33597V83.3122Z" fill="#1433E1"/>
<path d="M114.799 11.167H6.78906V14.9669H114.799V11.167Z" fill="#1433E1"/>
</svg>
