<svg width="457" height="344" viewBox="0 0 457 344" fill="none" xmlns="http://www.w3.org/2000/svg">
<g clip-path="url(#clip0_705_4337)">
<path d="M293.551 291.786H164.28V293.736H293.551V291.786Z" fill="#141B57" stroke="#1B46F5" stroke-miterlimit="10"/>
<g style="mix-blend-mode:multiply">
<path d="M130.496 343.467H115.744C112.485 343.467 109.844 340.826 109.844 337.566V289.912H136.397V337.566C136.397 340.826 133.755 343.467 130.496 343.467Z" fill="#141B57"/>
</g>
<g style="mix-blend-mode:multiply" opacity="0.8">
<path d="M109.844 289.912H136.397V337.566C136.397 340.826 133.755 343.467 130.496 343.467H115.744C112.485 343.467 109.844 340.826 109.844 337.566V289.912Z" stroke="#1B46F5" stroke-miterlimit="10"/>
</g>
<g style="mix-blend-mode:multiply">
<path d="M158.71 343.467H143.958C140.699 343.467 138.058 340.826 138.058 337.566V289.912H164.61V337.566C164.61 340.826 161.969 343.467 158.71 343.467Z" fill="#141B57"/>
</g>
<g style="mix-blend-mode:multiply" opacity="0.8">
<path d="M138.058 289.912H164.61V337.566C164.61 340.826 161.969 343.467 158.71 343.467H143.958C140.699 343.467 138.058 340.826 138.058 337.566V289.912Z" stroke="#1B46F5" stroke-miterlimit="10"/>
</g>
<path d="M117.885 327.639C112.666 327.639 108.416 323.389 108.416 318.17V265.509H166.027V318.17C166.027 323.389 161.777 327.639 156.558 327.639H117.874H117.885Z" fill="#57FF81"/>
<path d="M165.505 266.052V318.181C165.505 323.102 161.501 327.117 156.569 327.117H117.885C112.964 327.117 108.949 323.112 108.949 318.181V266.052H165.495M166.56 264.987H107.884V318.181C107.884 323.698 112.357 328.182 117.885 328.182H156.569C162.086 328.182 166.57 323.709 166.57 318.181V264.987H166.56Z" fill="#1B46F5"/>
<g style="mix-blend-mode:multiply">
<path d="M313.873 343.467H299.121C295.862 343.467 293.221 340.826 293.221 337.566V289.912H319.774V337.566C319.774 340.826 317.132 343.467 313.873 343.467Z" fill="#141B57"/>
</g>
<g style="mix-blend-mode:multiply" opacity="0.8">
<path d="M293.221 289.912H319.774V337.566C319.774 340.826 317.132 343.467 313.873 343.467H299.121C295.862 343.467 293.221 340.826 293.221 337.566V289.912Z" stroke="#1B46F5" stroke-miterlimit="10"/>
</g>
<g style="mix-blend-mode:multiply">
<path d="M342.088 343.467H327.336C324.077 343.467 321.436 340.826 321.436 337.566V289.912H347.988V337.566C347.988 340.826 345.347 343.467 342.088 343.467Z" fill="#141B57"/>
</g>
<g style="mix-blend-mode:multiply" opacity="0.8">
<path d="M321.425 289.912H347.978V337.566C347.978 340.826 345.336 343.467 342.077 343.467H327.325C324.066 343.467 321.425 340.826 321.425 337.566V289.912Z" stroke="#1B46F5" stroke-miterlimit="10"/>
</g>
<path d="M301.262 327.639C296.043 327.639 291.793 323.389 291.793 318.17V265.509H349.404V318.17C349.404 323.389 345.154 327.639 339.935 327.639H301.251H301.262Z" fill="#57FF81"/>
<path d="M348.872 266.052V318.181C348.872 323.102 344.867 327.117 339.935 327.117H301.251C296.33 327.117 292.315 323.112 292.315 318.181V266.052H348.861M349.926 264.987H291.25V318.181C291.25 323.698 295.723 328.182 301.251 328.182H339.935C345.453 328.182 349.937 323.709 349.937 318.181V264.987H349.926Z" fill="#1B46F5"/>
<path d="M350.289 246.603H107.543V267.213H350.289V246.603Z" fill="#172AB6" stroke="#1433E1" stroke-miterlimit="10"/>
<path d="M353.238 5.45361H104.603V249.756H353.238V5.45361Z" fill="#D9E6FF"/>
<path d="M352.695 5.98617V249.223H105.135V5.98617H352.706M353.771 4.92102H104.07V250.288H353.771V4.92102Z" fill="#1B46F5"/>
<path d="M346.56 12.1213H111.26V243.099H346.56V12.1213Z" fill="#5991FF"/>
<path d="M346.039 12.6539V242.555H111.793V12.6539H346.028M347.093 11.5887H110.728V243.62H347.093V11.5887Z" fill="#1B46F5"/>
<path d="M339.903 18.2886H117.916V236.196H339.903V18.2886Z" fill="#8EB8FF"/>
<path d="M339.381 18.8211V235.664H118.449V18.8211H339.371M340.436 17.756H117.384V236.729H340.436V17.756Z" fill="#1B46F5"/>
<path d="M353.771 263.294H104.07V287.675H353.771V263.294Z" fill="#172AB6" stroke="#1433E1" stroke-miterlimit="10"/>
<path d="M152.628 268.875H109.172V282.317H152.628V268.875Z" fill="#D9E6FF"/>
<path d="M152.085 269.408V281.785H109.694V269.408H152.085ZM153.15 268.343H108.629V282.85H153.15V268.343Z" fill="#1B46F5"/>
<g style="mix-blend-mode:multiply">
<path d="M131.507 268.875H122.177V282.317H131.507V268.875Z" fill="#D9E6FF"/>
<path d="M130.975 269.408V281.785H122.71V269.408H130.975ZM132.04 268.343H121.645V282.85H132.04V268.343Z" fill="#1B46F5"/>
</g>
<g style="mix-blend-mode:multiply">
<path d="M152.617 268.875H143.287V282.317H152.617V268.875Z" fill="#D9E6FF"/>
<path d="M152.085 269.408V281.785H143.82V269.408H152.085ZM153.15 268.343H142.755V282.85H153.15V268.343Z" fill="#1B46F5"/>
</g>
<path d="M348.669 268.875H305.213V282.317H348.669V268.875Z" fill="#D9E6FF"/>
<path d="M348.126 269.408V281.785H305.735V269.408H348.126ZM349.191 268.343H304.67V282.85H349.191V268.343Z" fill="#1B46F5"/>
<g style="mix-blend-mode:multiply">
<path d="M335.653 268.875H326.323V282.317H335.653V268.875Z" fill="#D9E6FF"/>
<path d="M335.121 269.408V281.785H326.856V269.408H335.121ZM336.186 268.343H325.791V282.85H336.186V268.343Z" fill="#1B46F5"/>
</g>
<g style="mix-blend-mode:multiply">
<path d="M314.543 268.875H305.213V282.317H314.543V268.875Z" fill="#D9E6FF"/>
<path d="M314.011 269.408V281.785H305.746V269.408H314.011ZM315.076 268.343H304.681V282.85H315.076V268.343Z" fill="#1B46F5"/>
</g>
<g style="mix-blend-mode:multiply">
<path d="M208.342 269.568H195.519V282.392H208.342V269.568Z" fill="#141B57"/>
<path d="M207.81 270.1V281.859H196.051V270.1H207.81ZM208.875 269.035H194.986V282.924H208.875V269.035Z" fill="#1B46F5"/>
</g>
<g style="mix-blend-mode:multiply">
<path d="M262.311 269.568H249.487V282.392H262.311V269.568Z" fill="#141B57"/>
<path d="M261.779 270.1V281.859H250.02V270.1H261.779ZM262.844 269.035H248.955V282.924H262.844V269.035Z" fill="#1B46F5"/>
</g>
<path d="M353.771 297.9H104.07V308.765H353.771V297.9Z" fill="#172AB6"/>
<path d="M104.188 303.333H353.643" stroke="#1B46F5" stroke-miterlimit="10"/>
<path d="M181.588 274.297H180.672V301.309H181.588V274.297Z" fill="#192A8F"/>
<path d="M182.121 273.764H180.14V301.841H182.121V273.764Z" fill="#1B46F5"/>
<path d="M277.159 274.297H276.243V301.309H277.159V274.297Z" fill="#192A8F"/>
<path d="M277.692 273.764H275.711V301.841H277.692V273.764Z" fill="#1B46F5"/>
<path d="M440.011 252.706L418.56 250.437L347.614 242.971V12.3344L451.727 0.596436V253.931L440.011 252.706Z" fill="#D9E6FF"/>
<path d="M451.195 1.19297V253.345L450.769 253.303L440.075 252.184L418.614 249.916L348.147 242.502V12.8031L451.195 1.19297ZM452.26 0L347.082 11.8551V243.45L418.497 250.97L439.948 253.239L450.641 254.357L452.249 254.528V0H452.26Z" fill="#1B46F5"/>
<path d="M456.467 0.532593H452.792V254.08H456.467V0.532593Z" fill="#8EB8FF"/>
<path d="M455.934 1.06515V253.548H453.336V1.06515H455.934ZM457 0H452.271V254.613H457V0Z" fill="#1B46F5"/>
<path d="M5.26172 0.596436L110.216 12.3344V242.971L31.0263 251.247L23.592 252.014L5.26172 253.942V0.596436Z" fill="#D9E6FF"/>
<path d="M5.79459 1.19297L109.684 12.8137V242.491L74.163 246.198L30.9628 250.704L23.5391 251.471L5.79459 253.324V1.19297ZM4.72949 0V254.528L23.6456 252.546L31.0693 251.78L74.2695 247.274L110.738 243.461V11.8551L4.72949 0Z" fill="#1B46F5"/>
<path d="M4.19615 0.532593H0.532227V254.08H4.19615V0.532593Z" fill="#8EB8FF"/>
<path d="M3.66392 1.06515V253.548H1.06509V1.06515H3.66392ZM4.72902 0H0V254.613H4.72902V0Z" fill="#1B46F5"/>
<path d="M112.772 307.103C110.833 307.103 109.268 305.527 109.268 303.599C109.268 301.671 110.844 300.095 112.772 300.095C114.7 300.095 116.276 301.671 116.276 303.599C116.276 305.527 114.7 307.103 112.772 307.103Z" fill="#D9E6FF"/>
<path d="M112.772 300.617C114.412 300.617 115.744 301.948 115.744 303.588C115.744 305.229 114.412 306.56 112.772 306.56C111.132 306.56 109.8 305.229 109.8 303.588C109.8 301.948 111.132 300.617 112.772 300.617ZM112.772 299.551C110.535 299.551 108.735 301.362 108.735 303.588C108.735 305.814 110.546 307.625 112.772 307.625C114.998 307.625 116.809 305.814 116.809 303.588C116.809 301.362 114.998 299.551 112.772 299.551Z" fill="#1B46F5"/>
<path d="M126.278 307.103C124.339 307.103 122.773 305.527 122.773 303.599C122.773 301.671 124.35 300.095 126.278 300.095C128.205 300.095 129.782 301.671 129.782 303.599C129.782 305.527 128.205 307.103 126.278 307.103Z" fill="#D9E6FF"/>
<path d="M126.278 300.617C127.918 300.617 129.25 301.948 129.25 303.588C129.25 305.229 127.918 306.56 126.278 306.56C124.638 306.56 123.306 305.229 123.306 303.588C123.306 301.948 124.638 300.617 126.278 300.617ZM126.278 299.551C124.041 299.551 122.241 301.362 122.241 303.588C122.241 305.814 124.052 307.625 126.278 307.625C128.504 307.625 130.315 305.814 130.315 303.588C130.315 301.362 128.504 299.551 126.278 299.551Z" fill="#1B46F5"/>
<g style="mix-blend-mode:multiply">
<path d="M126.278 307.103C124.339 307.103 122.773 305.527 122.773 303.599C122.773 301.671 124.35 300.095 126.278 300.095C128.205 300.095 129.782 301.671 129.782 303.599C129.782 305.527 128.205 307.103 126.278 307.103Z" fill="#D9E6FF"/>
<path d="M126.278 300.617C127.918 300.617 129.25 301.948 129.25 303.588C129.25 305.229 127.918 306.56 126.278 306.56C124.638 306.56 123.306 305.229 123.306 303.588C123.306 301.948 124.638 300.617 126.278 300.617ZM126.278 299.551C124.041 299.551 122.241 301.362 122.241 303.588C122.241 305.814 124.052 307.625 126.278 307.625C128.504 307.625 130.315 305.814 130.315 303.588C130.315 301.362 128.504 299.551 126.278 299.551Z" fill="#1B46F5"/>
</g>
<path d="M345.059 307.103C343.12 307.103 341.555 305.527 341.555 303.599C341.555 301.671 343.131 300.095 345.059 300.095C346.987 300.095 348.563 301.671 348.563 303.599C348.563 305.527 346.987 307.103 345.059 307.103Z" fill="#D9E6FF"/>
<path d="M345.059 300.617C346.699 300.617 348.031 301.948 348.031 303.588C348.031 305.229 346.699 306.56 345.059 306.56C343.419 306.56 342.088 305.229 342.088 303.588C342.088 301.948 343.419 300.617 345.059 300.617ZM345.059 299.551C342.822 299.551 341.022 301.362 341.022 303.588C341.022 305.814 342.833 307.625 345.059 307.625C347.285 307.625 349.096 305.814 349.096 303.588C349.096 301.362 347.285 299.551 345.059 299.551Z" fill="#1B46F5"/>
<path d="M331.553 307.103C329.615 307.103 328.049 305.527 328.049 303.599C328.049 301.671 329.625 300.095 331.553 300.095C333.481 300.095 335.057 301.671 335.057 303.599C335.057 305.527 333.481 307.103 331.553 307.103Z" fill="#D9E6FF"/>
<path d="M331.553 300.617C333.194 300.617 334.525 301.948 334.525 303.588C334.525 305.229 333.194 306.56 331.553 306.56C329.913 306.56 328.582 305.229 328.582 303.588C328.582 301.948 329.913 300.617 331.553 300.617ZM331.553 299.551C329.317 299.551 327.517 301.362 327.517 303.588C327.517 305.814 329.327 307.625 331.553 307.625C333.779 307.625 335.59 305.814 335.59 303.588C335.59 301.362 333.779 299.551 331.553 299.551Z" fill="#1B46F5"/>
<g style="mix-blend-mode:multiply">
<path d="M331.553 307.103C329.615 307.103 328.049 305.527 328.049 303.599C328.049 301.671 329.625 300.095 331.553 300.095C333.481 300.095 335.057 301.671 335.057 303.599C335.057 305.527 333.481 307.103 331.553 307.103Z" fill="#D9E6FF"/>
<path d="M331.553 300.617C333.194 300.617 334.525 301.948 334.525 303.588C334.525 305.229 333.194 306.56 331.553 306.56C329.913 306.56 328.582 305.229 328.582 303.588C328.582 301.948 329.913 300.617 331.553 300.617ZM331.553 299.551C329.317 299.551 327.517 301.362 327.517 303.588C327.517 305.814 329.327 307.625 331.553 307.625C333.779 307.625 335.59 305.814 335.59 303.588C335.59 301.362 333.779 299.551 331.553 299.551Z" fill="#1B46F5"/>
</g>
<path d="M347.86 20.3869V34.8197H346.731V20.3869H347.86ZM348.925 19.3218H345.666V35.8848H348.925V19.3218Z" fill="#1B46F5"/>
<path d="M347.86 117.848V132.281H346.731V117.848H347.86ZM348.925 116.783H345.666V133.346H348.925V116.783Z" fill="#1B46F5"/>
<path d="M347.86 215.309V229.742H346.731V215.309H347.86ZM348.925 214.244H345.666V230.807H348.925V214.244Z" fill="#1B46F5"/>
<path d="M111.09 20.3869V34.8197H109.961V20.3869H111.09ZM112.155 19.3218H108.896V35.8848H112.155V19.3218Z" fill="#1B46F5"/>
<path d="M111.09 117.848V132.281H109.961V117.848H111.09ZM112.155 116.783H108.896V133.346H112.155V116.783Z" fill="#1B46F5"/>
<path d="M111.09 215.309V229.742H109.961V215.309H111.09ZM112.155 214.244H108.896V230.807H112.155V214.244Z" fill="#1B46F5"/>
<path d="M295.723 47.0688H162.107V208.236H295.723V47.0688Z" fill="#5991FF"/>
<path d="M294.658 48.134V207.182H163.172V48.134H294.658ZM296.788 46.0037H161.042V209.312H296.788V46.0037Z" fill="#1B46F5"/>
<path d="M119.408 234.482L162.065 208.62" stroke="#1B46F5" stroke-width="3" stroke-miterlimit="10"/>
<path d="M338.967 234.481L295.575 207.885" stroke="#1B46F5" stroke-width="3" stroke-miterlimit="10"/>
<path d="M338.966 20.3656L295.244 47.2925" stroke="#1B46F5" stroke-width="3" stroke-miterlimit="10"/>
<path d="M119.408 20.3656L162.907 47.0688" stroke="#1B46F5" stroke-width="3" stroke-miterlimit="10"/>
<path d="M337.251 20.9514V233.534H120.579V20.9514H337.241M340.436 17.756H117.384V236.729H340.436V17.756Z" fill="#1B46F5"/>
</g>
<defs>
<clipPath id="clip0_705_4337">
<rect width="457" height="344" fill="white"/>
</clipPath>
</defs>
</svg>
